<svg width="74" height="59" viewBox="0 0 74 59" fill="none" xmlns="http://www.w3.org/2000/svg">
<g id="Brunch">
<path id="Ellipse 43" d="M38.5 41.7743C57.5538 41.7743 73 33.4415 73 23.1625C73 12.8835 57.5538 4.55066 38.5 4.55066C19.4462 4.55066 4 12.8835 4 23.1625C4 33.4415 19.4462 41.7743 38.5 41.7743Z" fill="white"/>
<g id="Group 9">
<path id="Vector 14" d="M56.5594 34.1295L64.201 16.4349C64.2902 16.2283 64.336 16.0057 64.336 15.7807V13.2143C64.336 12.3941 63.733 11.6982 62.9208 11.5817L35.3769 7.63056C34.7575 7.54159 34.1413 7.811 33.7856 8.32578L22.7293 24.3349C22.5391 24.6105 22.4371 24.9375 22.4371 25.2723V26.1891C22.4371 26.9544 22.9637 27.6192 23.7086 27.7944L54.6674 35.0812C55.4455 35.2641 56.2426 34.8633 56.5594 34.1295Z" fill="#DB9A43"/>
<path id="Vector 13" d="M62.4532 11.3234L34.3859 5.39621C33.678 5.24664 32.9553 5.57597 32.6037 6.20832L23.1221 23.2581C22.5919 24.2114 23.1164 25.4076 24.1769 25.6631L53.5132 32.7368C54.2835 32.9224 55.077 32.5341 55.4032 31.8119L63.6158 13.6158C64.0491 12.6557 63.4839 11.5411 62.4532 11.3234Z" fill="#FFBB55"/>
<path id="Union_2" fill-rule="evenodd" clip-rule="evenodd" d="M34.3974 6.37354L39.936 7.54926L38.2866 11.2392L32.4804 9.83193L34.3974 6.37354ZM31.871 11.2392L37.4098 12.4147L35.7604 16.1046L29.9542 14.6976L31.871 11.2392ZM34.8836 17.2803L29.3447 16.1046L27.428 19.5632L33.2342 20.9702L34.8836 17.2803ZM26.8185 20.9702L32.3574 22.1457L30.7079 25.8356L24.9017 24.4286L26.8185 20.9702ZM47.3916 9.24974L41.8528 8.07424L39.936 11.5326L45.7422 12.9397L47.3916 9.24974ZM39.3266 12.9397L44.8654 14.1154L43.216 17.8053L37.4098 16.3981L39.3266 12.9397ZM42.339 18.9808L36.8004 17.8053L34.8836 21.2637L40.6898 22.6707L42.339 18.9808ZM34.2742 22.6707L39.8128 23.8464L38.1634 27.5363L32.3574 26.1291L34.2742 22.6707ZM54.847 10.9505L49.3084 9.77473L47.3916 13.2331L53.1979 14.6404L54.847 10.9505ZM46.7822 14.6404L52.3208 15.8159L50.6714 19.5058L44.8654 18.0988L46.7822 14.6404ZM49.7946 20.6815L44.2558 19.5058L42.339 22.9642L48.1452 24.3714L49.7946 20.6815ZM41.7296 24.3714L47.2684 25.5469L45.619 29.2368L39.8128 27.8298L41.7296 24.3714ZM62.3027 12.6509L56.7641 11.4752L54.847 14.9336L60.6533 16.3409L62.3027 12.6509ZM54.2376 16.3409L59.7765 17.5166L58.1271 21.2065L52.3208 19.7993L54.2376 16.3409ZM57.2503 22.382L51.7114 21.2063L49.7946 24.6649L55.6008 26.0719L57.2503 22.382ZM49.1852 26.0719L54.7238 27.2476L53.0746 30.9375L47.2684 29.5303L49.1852 26.0719Z" fill="#B06A19"/>
</g>
<g id="Group 8">
<path id="Vector 14_2" d="M30.3369 31.1096L22.6953 13.415C22.6061 13.2084 22.5603 12.986 22.5603 12.7611V10.1947C22.5603 9.37416 23.1634 8.67848 23.9755 8.56182L51.5194 4.61066C52.1388 4.52169 52.7551 4.7911 53.1107 5.30611L64.1671 21.3152C64.3573 21.5908 64.4592 21.9176 64.4592 22.2524V23.1692C64.4592 23.9345 63.9326 24.5993 63.1877 24.7748L32.2289 32.0613C31.4509 32.2445 30.6537 31.8434 30.3369 31.1096Z" fill="#DB9A43"/>
<path id="Vector 13_2" d="M24.4431 8.30353L52.5104 2.37634C53.2184 2.22699 53.9411 2.55633 54.2926 3.18868L63.7743 20.2383C64.3045 21.1916 63.7799 22.3877 62.7195 22.6435L33.3832 29.7169C32.6128 29.9026 31.8193 29.5142 31.4931 28.792L23.2805 10.596C22.8473 9.63587 23.4124 8.5212 24.4431 8.30353Z" fill="#FFBB55"/>
<path id="Union_3" fill-rule="evenodd" clip-rule="evenodd" d="M52.499 3.35388L46.9602 4.52938L48.6096 8.21929L54.4158 6.81228L52.499 3.35388ZM55.0253 8.21929L49.4866 9.39501L51.1358 13.0849L56.942 11.6777L55.0253 8.21929ZM52.0128 14.2604L57.5515 13.0849L59.4683 16.5433L53.6623 17.9503L52.0128 14.2604ZM60.0779 17.9503L54.5391 19.1261L56.1885 22.816L61.9947 21.4087L60.0779 17.9503ZM39.5048 6.23009L45.0434 5.05437L46.9602 8.51277L41.1542 9.92001L39.5048 6.23009ZM47.5698 9.92001L42.031 11.0955L43.6804 14.7854L49.4866 13.3784L47.5698 9.92001ZM44.5572 15.9611L50.0961 14.7854L52.0128 18.2438L46.2066 19.651L44.5572 15.9611ZM52.6223 19.651L47.0834 20.8265L48.7329 24.5165L54.5391 23.1094L52.6223 19.651ZM32.0492 7.93058L37.588 6.75486L39.5048 10.2133L33.6986 11.6205L32.0492 7.93058ZM40.1142 11.6205L34.5754 12.7962L36.2248 16.4861L42.031 15.0789L40.1142 11.6205ZM37.1018 17.6616L42.6404 16.4861L44.5572 19.9445L38.751 21.3515L37.1018 17.6616ZM45.1666 21.3515L39.628 22.5273L41.2772 26.2172L47.0834 24.8099L45.1666 21.3515ZM24.5938 9.63107L30.1324 8.45557L32.0492 11.914L26.2429 13.321L24.5938 9.63107ZM32.6586 13.321L27.12 14.4967L28.7692 18.1866L34.5754 16.7794L32.6586 13.321ZM29.6462 19.3621L35.1848 18.1866L37.1018 21.645L31.2956 23.052L29.6462 19.3621ZM37.7112 23.052L32.1724 24.2277L33.8218 27.9177L39.628 26.5106L37.7112 23.052Z" fill="#B06A19"/>
</g>
<g id="Group 7">
<path id="Vector 14_3" d="M54.8341 28.7691L62.4756 11.0742C62.5648 10.8679 62.6107 10.6452 62.6107 10.4203V7.8539C62.6107 7.03339 62.0076 6.33771 61.1955 6.22127L33.6516 2.26989C33.0321 2.18114 32.4159 2.45056 32.0602 2.96534L21.0039 18.9745C20.8137 19.25 20.7118 19.5769 20.7118 19.9119V20.8286C20.7118 21.594 21.2384 22.2588 21.9833 22.434L52.9421 29.7205C53.7201 29.9037 54.5173 29.5026 54.8341 28.7691Z" fill="#DB9A43"/>
<path id="Vector 13_3" d="M60.728 5.96292L32.6607 0.0357373C31.9527 -0.113838 31.2301 0.215501 30.8785 0.84785L21.3969 17.8977C20.8667 18.851 21.3912 20.0471 22.4516 20.3027L51.788 27.3761C52.5583 27.562 53.3518 27.1736 53.678 26.4512L61.8906 8.25536C62.3239 7.29526 61.7587 6.18059 60.728 5.96292Z" fill="#FFBB55"/>
<path id="Union_4" fill-rule="evenodd" clip-rule="evenodd" d="M32.6722 1.01306L38.2108 2.18878L36.5614 5.8787L30.7552 4.47146L32.6722 1.01306ZM30.1457 5.8787L35.6846 7.05419L34.0352 10.7441L28.229 9.3371L30.1457 5.8787ZM33.1584 11.9198L27.6195 10.7441L25.7027 14.2025L31.5089 15.6097L33.1584 11.9198ZM25.0933 15.6097L30.6319 16.7852L28.9827 20.4751L23.1765 19.0681L25.0933 15.6097ZM45.6664 3.88927L40.1276 2.71378L38.2108 6.17218L44.017 7.57918L45.6664 3.88927ZM37.6014 7.57918L43.1402 8.75491L41.4908 12.4448L35.6846 11.0376L37.6014 7.57918ZM40.6138 13.6203L35.0752 12.4448L33.1584 15.9032L38.9646 17.3102L40.6138 13.6203ZM32.5489 17.3102L38.0876 18.4859L36.4381 22.1759L30.6319 20.7686L32.5489 17.3102ZM53.1218 5.58976L47.5832 4.41426L45.6664 7.87266L51.4727 9.27967L53.1218 5.58976ZM45.057 9.2799L50.5956 10.4554L48.9462 14.1453L43.1402 12.7383L45.057 9.2799ZM48.0694 15.321L42.5306 14.1453L40.6138 17.6037L46.42 19.0109L48.0694 15.321ZM40.0043 19.0109L45.5432 20.1864L43.8938 23.8764L38.0876 22.4693L40.0043 19.0109ZM60.5775 7.29048L55.0386 6.11475L53.1218 9.57337L58.9281 10.9804L60.5775 7.29048ZM52.5124 10.9804L58.0513 12.1559L56.4018 15.8458L50.5956 14.4388L52.5124 10.9804ZM55.525 17.0215L49.9862 15.8458L48.0694 19.3044L53.8756 20.7114L55.525 17.0215ZM47.46 20.7114L52.9986 21.8871L51.3494 25.5771L45.5432 24.1698L47.46 20.7114Z" fill="#B06A19"/>
</g>
<g id="Vector 30" style="mix-blend-mode:multiply" opacity="0.8">
<path id="Vector" d="M50.4167 7.44395C49.1765 8.98851 44.4326 9.82264 40.1369 4.14398C35.8414 -1.53467 30.6346 4.9107 32.2468 7.44395C33.8592 9.97721 31.6267 11.3365 30.6346 16.2176C29.6423 21.0987 38.3243 19.9865 40.3087 20.3574C42.1027 20.6924 41.4638 28.3003 41.3246 31.948L37.9044 31.1139C35.2379 31.948 36.028 36.1552 40.3087 36.7056C44.6328 37.2617 49.7799 35.7891 50.7102 34.1415L44.3538 32.6278C44.3538 31.1448 43.9053 20.5426 45.7039 18.5654C47.2895 16.822 53.8906 17.0002 55.8539 15.3297C56.2486 14.9938 56.7865 14.671 57.2734 14.8492C57.8549 15.0619 58.4718 15.3292 58.7006 15.558C59.0638 15.9212 58.852 18.5275 58.7006 19.8138L58.0197 21.4026C58.6627 21.5161 60.1078 21.4593 60.7434 20.0975C61.3789 18.7357 60.3273 17.8278 59.722 17.4873C59.8734 16.2769 59.7753 14.4706 59.1545 14.0827C58.3667 13.5904 57.2373 13.4397 56.4211 13.0379C56.1821 12.9201 56.0073 12.7118 55.8523 12.4948C54.83 11.0626 52.8549 9.93159 53.3313 8.6796C54.0136 6.88787 51.6569 5.89917 50.4167 7.44395Z" fill="#973309"/>
</g>
<g id="Ellipse 230" filter="url(#filter0_f_1607_5785)">
<ellipse cx="37" cy="39" rx="22" ry="5" fill="#474747" fill-opacity="0.3"/>
</g>
<path id="Vector 33" d="M37.2611 10.2053C35.0338 10.553 35.8101 13.2821 36.4182 14.0278C37.8781 15.6849 39.4328 15.4697 40.4365 16.5467C41.44 17.6237 44.2038 17.4648 45.0858 16.1944C45.9678 14.9241 47.7314 15.5192 48.9782 14.7734C50.2252 14.0278 50.2252 12.1223 48.3701 11.8738C46.5149 11.6252 45.3471 8.98236 41.9107 8.67867C38.4741 8.37498 39.9433 9.78652 37.2611 10.2053Z" fill="#DB9A43"/>
<path id="Vector 32" d="M41.499 14.952L39.1989 13.1709C39.0443 13.0513 38.954 12.867 38.954 12.6718V11.8138L46.2171 12.719V13.4347C46.2171 13.6762 46.0791 13.8968 45.8619 14.0023L43.4873 15.1576C42.8395 15.4729 42.0687 15.3932 41.499 14.952Z" fill="#FFBB55"/>
<path id="Vector 31" d="M42.1724 14.4361L39.2372 12.5148C38.8443 12.2574 38.8638 11.6725 39.2731 11.4423L42.1046 9.85077C42.3134 9.73343 42.5705 9.74659 42.7664 9.88459L45.9515 12.1303C46.3553 12.4149 46.2861 13.0359 45.8297 13.2236L42.7485 14.4908C42.5592 14.5689 42.3438 14.5482 42.1724 14.4361Z" fill="#FFF0BD"/>
<path id="Vector 36" d="M14.1128 7.50134C14.9397 8.13301 14.0102 10.4311 13.4423 11.5013C12.2271 13.7908 8.97255 14.4225 7.63159 14.7645C8.31978 12.8171 9.19589 12.0013 10.8442 12.0013C9.63736 11.6225 9.24265 10.1944 9.19589 9.52777C9.85707 9.50144 11.2856 9.81193 11.7103 11.2646C11.7103 10.1065 12.8835 8.44873 14.1128 7.50134Z" fill="#25BE7C"/>
<path id="Vector 39" d="M18.9178 31.7875C17.8601 31.652 16.9842 29.7332 16.9399 28.5036C16.8453 25.8735 19.4151 25.279 20.4301 24.2974C20.8171 26.3592 20.3808 26.5719 18.9178 27.4087C20.1834 27.1293 21.094 28.4594 21.4769 29.022C20.9036 29.3809 19.8066 29.8534 18.6851 28.7914C19.2787 29.8096 19.5233 30.3303 18.9178 31.7875Z" fill="#25BE7C"/>
<path id="Vector 34" d="M9.65849 17.4821C8.26124 14.5278 10.5149 13.2057 12.1037 12.845C12.3588 12.7869 12.5349 12.5436 12.5345 12.2819C12.5327 10.9455 13.5792 9.83491 15.6939 10.0178C20.45 10.4296 19.0316 14.7929 19.3376 16.2474C19.6435 17.7018 20.0607 19.7326 18.8369 20.3635C17.613 20.9948 17.0011 20.5009 15.2768 20.1166C13.5522 19.7326 11.0212 20.3635 9.65849 17.4821Z" fill="#E9303B"/>
<path id="Vector 37" d="M16.9781 22.0531C19.6653 23.9131 18.3747 26.1849 17.1792 27.2916C16.9872 27.4694 16.9563 27.7683 17.0875 27.9948C17.7573 29.1512 17.4064 30.6363 15.4833 31.5351C11.1587 33.5566 10.2055 29.0686 9.21336 27.9621C8.22103 26.8554 6.84444 25.3054 7.58868 24.1469C8.33293 22.9884 9.10986 23.1103 10.7954 22.5808C12.4809 22.0513 14.357 20.2391 16.9781 22.0531Z" fill="#E9303B"/>
<path id="Vector 35" d="M13.4113 16.15C12.5098 15.4709 12.8395 13.7611 13.4113 13.3162C13.983 12.8711 15.0607 12.8477 15.6765 13.1523C16.2923 13.4567 17.4358 17.8831 17.106 18.1408C16.7762 18.3984 14.3131 16.8293 13.4113 16.15Z" fill="#FC6054"/>
<path id="Vector 38" d="M14.394 25.0835C15.5145 25.2208 16.0836 26.8664 15.811 27.5375C15.5384 28.2089 14.6169 28.768 13.9312 28.8122C13.2457 28.8565 10.0422 25.5946 10.199 25.2067C10.3559 24.8186 13.2736 24.946 14.394 25.0835Z" fill="#FC6054"/>
<path id="Ellipse 92" d="M63.8076 31.7875C65.2492 31.7875 66.4178 30.6189 66.4178 29.1773C66.4178 27.7358 65.2492 26.5671 63.8076 26.5671C62.366 26.5671 61.1974 27.7358 61.1974 29.1773C61.1974 30.6189 62.366 31.7875 63.8076 31.7875Z" fill="#08429D"/>
<path id="Ellipse 94" d="M22.8333 32.4931C22.4602 33.8856 23.2865 35.3168 24.679 35.6899C26.0714 36.063 27.5027 35.2367 27.8758 33.8443C28.2489 32.4518 27.4226 31.0205 26.0301 30.6474C24.6377 30.2743 23.2064 31.1007 22.8333 32.4931Z" fill="#08429D"/>
<path id="Ellipse 96" d="M69.5202 20.9979C70.241 19.7495 69.8132 18.1531 68.5648 17.4323C67.3163 16.7115 65.72 17.1393 64.9992 18.3877C64.2784 19.6361 64.7062 21.2325 65.9546 21.9533C67.203 22.6741 68.7994 22.2463 69.5202 20.9979Z" fill="#08429D"/>
<path id="Ellipse 93" d="M63.8076 27.9289C64.2463 27.9289 64.602 27.7257 64.602 27.4749C64.602 27.2242 64.2463 27.021 63.8076 27.021C63.3689 27.021 63.0132 27.2242 63.0132 27.4749C63.0132 27.7257 63.3689 27.9289 63.8076 27.9289Z" fill="#04025D"/>
<path id="Ellipse 95" d="M26.5605 33.492C26.4469 33.9157 26.5512 34.3119 26.7934 34.3768C27.0355 34.4417 27.3239 34.1507 27.4375 33.7269C27.551 33.3031 27.4468 32.907 27.2046 32.8421C26.9624 32.7772 26.6741 33.0682 26.5605 33.492Z" fill="#04025D"/>
<path id="Ellipse 97" d="M66.1786 19.0681C66.398 18.6881 66.3998 18.2785 66.1827 18.1531C65.9655 18.0278 65.6117 18.2342 65.3923 18.6141C65.173 18.9941 65.1711 19.4037 65.3882 19.5291C65.6054 19.6545 65.9592 19.4481 66.1786 19.0681Z" fill="#04025D"/>
</g>
<defs>
<filter id="filter0_f_1607_5785" x="0" y="19" width="74" height="40" filterUnits="userSpaceOnUse" color-interpolation-filters="sRGB">
<feFlood flood-opacity="0" result="BackgroundImageFix"/>
<feBlend mode="normal" in="SourceGraphic" in2="BackgroundImageFix" result="shape"/>
<feGaussianBlur stdDeviation="7.5" result="effect1_foregroundBlur_1607_5785"/>
</filter>
</defs>
</svg>
