<svg width="60" height="41" viewBox="0 0 60 41" fill="none" xmlns="http://www.w3.org/2000/svg">
<g id="Ramen">
<path id="Ellipse 170" d="M29.9325 22.135C46.4638 22.135 59.865 19.5448 59.865 16.3497C59.865 13.1546 46.4638 10.5645 29.9325 10.5645C13.4012 10.5645 0 13.1546 0 16.3497C0 19.5448 13.4012 22.135 29.9325 22.135Z" fill="#D2F5F5"/>
<path id="Ellipse 172" d="M29.9325 22.3865C46.1859 22.3865 59.3619 20.0779 59.3619 17.23C59.3619 14.3822 46.1859 12.0736 29.9325 12.0736C13.6791 12.0736 0.503052 14.3822 0.503052 17.23C0.503052 20.0779 13.6791 22.3865 29.9325 22.3865Z" fill="#973309"/>
<path id="Union_4" d="M18.6087 24.1834C18.6301 24.1596 18.6603 24.1457 18.6922 24.145C18.726 24.1442 18.7582 24.158 18.7805 24.1832C21.0632 26.7277 25.1476 28.4233 29.8068 28.4233C35.5365 28.4233 44.1887 27.2305 47.4071 24.2222C48.6969 23.0166 47.5019 21.3124 45.8979 20.5749C42.4914 19.0084 40.2183 16.8907 38.1959 15.0065C35.6064 12.594 33.4278 10.5644 29.8068 10.5644C29.6043 10.5644 29.4028 10.5677 29.2026 10.574C27.4617 10.629 25.7865 9.78741 24.4989 8.61451C22.9122 7.16945 20.8029 6.28833 18.4878 6.28833C16.4601 6.28833 14.5902 6.9642 13.0911 8.10289C12.1914 8.78656 11.1384 9.27127 10.0342 9.51223C6.02225 10.3883 3.01843 13.9614 3.01843 18.2362C3.01843 23.1678 7.01631 27.1656 11.9479 27.1656C14.5953 27.1656 16.9735 26.0136 18.6087 24.1834Z" fill="#FFBB55"/>
<path id="Vector 54" d="M59.3619 4.59779L54.8187 17.8589C52.9923 17.019 48.7786 15.3129 46.5337 15.2067C48.0303 12.0241 48.1372 3.89074 48.0037 0.221614C48.0037 0.221614 50.1809 -0.523434 54.2055 0.71864C58.23 1.96071 59.3619 4.59779 59.3619 4.59779Z" fill="#03401B"/>
<path id="Vector 55" d="M51.5643 3.37127L50.6545 17.3558C48.6777 17.0109 44.177 16.4394 41.989 16.9111C42.5982 13.451 40.5773 5.55936 39.4907 2.04619C39.4907 2.04619 42.2111 1.20707 45.845 1.62663C49.4789 2.04619 51.5643 3.37127 51.5643 3.37127Z" fill="#183603"/>
<path id="Ellipse 171" d="M29.9325 41C38.4066 41 45.2761 38.4098 45.2761 35.2147C45.2761 32.0196 38.4066 29.4294 29.9325 29.4294C21.4585 29.4294 14.589 32.0196 14.589 35.2147C14.589 38.4098 21.4585 41 29.9325 41Z" fill="white"/>
<path id="Subtract" d="M29.9325 22.135C46.4638 22.135 59.865 19.545 59.865 16.3497C59.865 27.4092 46.4638 37.9816 29.9325 37.9816C13.4012 37.9816 0 27.4092 0 16.3497C0 19.545 13.4012 22.135 29.9325 22.135Z" fill="#D2F5F5"/>
<path id="Subtract_2" d="M29.9325 22.135C46.4638 22.135 59.865 19.545 59.865 16.3497C59.865 24.8921 51.87 33.1436 40.6126 36.4576C23.7043 36.0939 9.83217 29.14 7.04895 20.0792C12.5397 21.3364 20.7535 22.135 29.9325 22.135Z" fill="white"/>
<g id="fishcake">
<path id="Star 2" d="M33.0527 15.4339L32.9003 15.7347C32.767 16.0471 33.1184 16.4649 33.5072 16.6151H34.46V17.3775C34.46 17.6134 34.2983 17.8494 33.9746 17.9744L33.343 18.2186C32.8895 18.3937 32.8447 18.6938 32.9274 19.0203H33.1576V19.68C33.1619 19.7178 33.1619 19.755 33.1576 19.7915C33.1113 20.1977 32.5647 20.5099 31.991 20.3723L31.3141 20.2098C30.8976 20.1097 30.4456 20.25 30.2454 20.5418L29.9199 21.0157C29.5866 21.5009 28.6612 21.5009 28.3279 21.0157L28.0024 20.5418C27.8022 20.25 27.3502 20.1097 26.9337 20.2098L26.2568 20.3723C25.6833 20.5099 25.1365 20.1977 25.0902 19.7915C25.0861 19.755 25.0859 19.7178 25.0902 19.68V19.0203H25.3203C25.4031 18.6938 25.3583 18.3937 24.9048 18.2186L24.2732 17.9744C23.9495 17.8494 23.7877 17.6134 23.7877 17.3775V16.6151H24.7408C25.1294 16.4649 25.4808 16.0471 25.3475 15.7347L25.1951 15.4339C25.1261 15.2981 25.0902 15.1477 25.0902 14.9952V14.2648H33.1576V14.9952C33.1576 15.1477 33.1216 15.2981 33.0527 15.4339Z" fill="#FFE3F9"/>
<path id="Star 1" d="M28.3281 13.3248C28.6614 12.8541 29.5868 12.8541 29.9201 13.3248L30.2455 13.7841C30.4458 14.0668 30.8978 14.2031 31.3143 14.106L31.9912 13.9486C32.6847 13.7873 33.3389 14.263 33.117 14.7673L32.9005 15.2596C32.7672 15.5624 32.9543 15.8912 33.3432 16.0368L33.9748 16.2735C34.622 16.516 34.622 17.1888 33.9748 17.4313L33.3432 17.668C32.9543 17.8139 32.7672 18.1424 32.9005 18.4455L33.117 18.9377C33.3389 19.4418 32.6847 19.9177 31.9912 19.7565L31.3143 19.5988C30.8978 19.5019 30.4458 19.638 30.2455 19.921L29.9201 20.3803C29.5868 20.8509 28.6614 20.8509 28.3281 20.3803L28.0026 19.921C27.8024 19.638 27.3504 19.5019 26.9338 19.5988L26.257 19.7565C25.5635 19.9177 24.9095 19.4418 25.1311 18.9377L25.3477 18.4455C25.481 18.1424 25.2938 17.8139 24.905 17.668L24.2734 17.4313C23.6262 17.1888 23.6262 16.516 24.2734 16.2735L24.905 16.0368C25.2938 15.8912 25.481 15.5624 25.3477 15.2596L25.1311 14.7673C24.9095 14.263 25.5635 13.7873 26.257 13.9486L26.9338 14.106C27.3504 14.2031 27.8024 14.0668 28.0026 13.7841L28.3281 13.3248Z" fill="white"/>
<path id="Vector 53" d="M29.5844 17.09C29.0245 17.09 28.6743 16.933 28.6743 16.5844C28.6743 16.076 29.8158 15.7068 30.5794 16.4141C31.3079 17.089 30.7477 18.1461 29.4719 18.1461C28.1959 18.1461 27.3452 17.7829 27.3452 16.6933C27.3452 15.6036 29.149 14.7665 30.801 15.5309" stroke="#EE82D8" stroke-width="0.646801" stroke-miterlimit="10" stroke-linecap="round" stroke-linejoin="round"/>
</g>
<g id="fishcake_2">
<path id="Star 2_2" d="M21.4087 10.5418L21.3393 10.8718C21.2912 11.2081 21.7387 11.5205 22.1533 11.565L23.0736 11.3185L23.2711 12.0548C23.3322 12.2827 23.2369 12.5526 22.9567 12.7571L22.4098 13.1565C22.0169 13.443 22.0514 13.7443 22.2159 14.0381L22.4382 13.9788L22.609 14.6161C22.6229 14.6514 22.6324 14.6873 22.6377 14.7236C22.6983 15.128 22.2508 15.571 21.6613 15.5863L20.9655 15.6047C20.5372 15.616 20.137 15.8685 20.019 16.2021L19.8273 16.7441C19.6309 17.299 18.7372 17.5385 18.2894 17.1561L17.8525 16.7826C17.5834 16.5527 17.1105 16.5341 16.7342 16.7386L16.1222 17.0706C15.6038 17.3521 14.9951 17.1921 14.8452 16.8115C14.8319 16.7776 14.8221 16.7416 14.8165 16.7041L14.6457 16.0667L14.8678 16.0071C14.8636 15.6703 14.7426 15.3921 14.2591 15.3403L13.5858 15.2681C13.2409 15.2309 13.0236 15.045 12.9625 14.8169L12.7653 14.0806L13.6856 13.8341C14.0222 13.5884 14.2536 13.0939 14.0441 12.8265L13.8187 12.5755C13.7171 12.462 13.6434 12.3259 13.6039 12.1788L13.4147 11.4732L21.2075 9.38525L21.3964 10.0908C21.4359 10.238 21.4401 10.3926 21.4087 10.5418Z" fill="#FFE3F9"/>
<path id="Star 1_2" d="M16.2988 9.72638C16.499 9.18558 17.3928 8.94612 17.8365 9.31436L18.2698 9.67406C18.5365 9.89515 19.0084 9.90975 19.3857 9.70827L19.9986 9.38103C20.6265 9.04573 21.3816 9.336 21.2978 9.88032L21.2161 10.4121C21.1658 10.7391 21.4316 11.0082 21.8449 11.0482L22.5165 11.1133C23.2042 11.18 23.3783 11.83 22.8161 12.2317L22.2672 12.6238C21.9292 12.8653 21.8336 13.2312 22.0406 13.4893L22.3771 13.9089C22.722 14.3385 22.2131 14.9673 21.5018 14.991L20.8073 15.0139C20.3797 15.0282 19.9785 15.2767 19.858 15.6017L19.6626 16.1297C19.4624 16.6705 18.5687 16.9099 18.125 16.5417L17.6916 16.1822C17.425 15.9609 16.9533 15.9463 16.5758 16.1478L15.9628 16.475C15.3349 16.8103 14.5799 16.5201 14.6636 15.9757L14.7454 15.444C14.7957 15.117 14.5298 14.8479 14.1165 14.8079L13.4452 14.7427C12.7572 14.6761 12.5832 14.0261 13.1454 13.6244L13.6944 13.2323C14.0323 12.9908 14.1281 12.6248 13.9208 12.3667L13.5843 11.9474C13.2394 11.5178 13.7483 10.8887 14.4596 10.8651L15.1544 10.8422C15.5817 10.8278 15.9829 10.5796 16.1034 10.2543L16.2988 9.72638Z" fill="white"/>
<path id="Vector 53_2" d="M18.487 13.0378C17.9462 13.1827 17.5673 13.1218 17.477 12.7847C17.3455 12.294 18.3524 11.6418 19.2732 12.1275C20.1516 12.5906 19.884 13.7569 18.6517 14.0872C17.4192 14.4172 16.5034 14.2867 16.2214 13.2342C15.9394 12.1816 17.465 10.9063 19.2587 11.2169" stroke="#EE82D8" stroke-width="0.646801" stroke-miterlimit="10" stroke-linecap="round" stroke-linejoin="round"/>
</g>
<g id="egg">
<path id="Ellipse 172_2" d="M37.3181 18.6867C38.58 20.8076 40.8833 21.4282 43.5788 20.4562C46.2739 19.4846 48.4039 16.021 48.4039 14.2064C48.4039 13.8032 48.3944 13.2656 48.4039 12.5936L48.088 13.8369C46.6601 11.4365 41.402 12.4728 39.1359 13.7476C38.3886 14.1682 37.799 14.7497 37.39 15.416H36.725V16.6259C36.7408 17.3317 36.9325 18.0385 37.3181 18.6867Z" fill="#FFE8C5"/>
<path id="Ellipse 3" d="M43.706 19.0092C41.44 20.2839 38.58 19.598 37.3181 17.4773C36.0561 15.3564 36.8701 12.6033 39.1359 11.3286C41.402 10.0538 46.66 9.01748 48.088 11.4176C49.5162 13.818 45.9718 17.7341 43.706 19.0092Z" fill="white"/>
<path id="Ellipse 175" d="M41.2515 17.6073C42.6407 17.6073 43.7669 16.4812 43.7669 15.092C43.7669 13.7028 42.6407 12.5767 41.2515 12.5767C39.8624 12.5767 38.7362 13.7028 38.7362 15.092C38.7362 16.4812 39.8624 17.6073 41.2515 17.6073Z" fill="#EE167F"/>
</g>
</g>
</svg>
