<svg width="52" height="41" viewBox="0 0 52 41" fill="none" xmlns="http://www.w3.org/2000/svg">
<g id="Spaghetti">
<path id="Union_2" d="M35.5274 2.36121H35.5248C35.1531 2.36121 34.8257 2.55032 34.6329 2.83732C34.3612 2.62309 33.9907 2.54409 33.6365 2.65894L33.6339 2.6598C33.2799 2.77485 33.0266 3.05627 32.9324 3.38964C32.6076 3.27029 32.2313 3.31022 31.9304 3.52896L31.9282 3.53067C31.6277 3.74941 31.4742 4.0948 31.4873 4.44018C31.1419 4.42709 30.7965 4.58058 30.5778 4.8811L30.5761 4.88324C30.3573 5.18419 30.3174 5.56049 30.4368 5.88527C30.1034 5.97951 29.822 6.23281 29.7069 6.58678L29.7061 6.58936C29.5912 6.94354 29.6702 7.31405 29.8844 7.58581C29.5974 7.77857 29.4083 8.10593 29.4083 8.47772V8.4803C29.4083 8.85209 29.5974 9.17944 29.8844 9.37221C29.6702 9.64397 29.5912 10.0145 29.7061 10.3687L29.7069 10.3712C29.822 10.7252 30.1034 10.9785 30.4368 11.0727C30.3174 11.3975 30.3573 11.7738 30.5761 12.0748L30.5778 12.0769C30.7965 12.3774 31.1419 12.5309 31.4873 12.5178C31.4742 12.8632 31.6277 13.2086 31.9282 13.4273L31.9304 13.4291C32.2313 13.6478 32.6076 13.6877 32.9324 13.5684C33.0266 13.9017 33.2799 14.1832 33.6339 14.2982L33.6365 14.2991C33.9907 14.4139 34.3612 14.3349 34.6329 14.1207C34.8257 14.4077 35.1531 14.5968 35.5248 14.5968H35.5274C35.8992 14.5968 36.2266 14.4077 36.4193 14.1207C36.6911 14.3349 37.0616 14.4139 37.4158 14.2991L37.4184 14.2982C37.7723 14.1832 38.0256 13.9017 38.1199 13.5684C38.4446 13.6877 38.8209 13.6478 39.1219 13.4291L39.124 13.4273C39.4246 13.2086 39.578 12.8632 39.5649 12.5178C39.9103 12.5309 40.2557 12.3774 40.4745 12.0769L40.4762 12.0748C40.6949 11.7738 40.7348 11.3975 40.6155 11.0727C40.9489 10.9785 41.2303 10.7252 41.3453 10.3712L41.3462 10.3687C41.461 10.0145 41.382 9.64397 41.1678 9.37221C41.4548 9.17944 41.6439 8.85209 41.6439 8.4803V8.47772C41.6439 8.10593 41.4548 7.77857 41.1678 7.58581C41.382 7.31405 41.461 6.94354 41.3462 6.58936L41.3453 6.58678C41.2303 6.23281 40.9489 5.97951 40.6155 5.88527C40.7348 5.56049 40.6949 5.18419 40.4762 4.88324L40.4745 4.8811C40.2557 4.58058 39.9103 4.42709 39.5649 4.44018C39.578 4.0948 39.4246 3.74941 39.124 3.53067L39.1219 3.52896C38.8209 3.31022 38.4446 3.27029 38.1199 3.38964C38.0256 3.05627 37.7723 2.77485 37.4184 2.6598L37.4158 2.65894C37.0616 2.54409 36.6911 2.62309 36.4193 2.83732C36.2266 2.55032 35.8992 2.36121 35.5274 2.36121Z" fill="#CA5919"/>
<path id="Union_3" d="M11.0562 0H11.0537C10.6819 0 10.3545 0.189112 10.1617 0.476112C9.88997 0.261882 9.51947 0.182889 9.16528 0.297732L9.16271 0.29859C8.80874 0.413647 8.55544 0.695065 8.4612 1.02843C8.13642 0.909081 7.76012 0.949011 7.45917 1.16775L7.45703 1.16947C7.1565 1.3882 7.00302 1.73359 7.01611 2.07898C6.67072 2.06588 6.32534 2.21937 6.1066 2.51989L6.10488 2.52204C5.88614 2.82299 5.84621 3.19929 5.96557 3.52407C5.6322 3.6183 5.35078 3.8716 5.23572 4.22558L5.23487 4.22815C5.12002 4.58234 5.19902 4.95284 5.41325 5.2246C5.12625 5.41736 4.93713 5.74472 4.93713 6.11651V6.11909C4.93713 6.49088 5.12625 6.81824 5.41325 7.011C5.19902 7.28276 5.12002 7.65326 5.23487 8.00745L5.23572 8.01003C5.35078 8.364 5.6322 8.6173 5.96557 8.71154C5.84621 9.03632 5.88614 9.41261 6.10488 9.71357L6.1066 9.71571C6.32534 10.0162 6.67072 10.1697 7.01611 10.1566C7.00302 10.502 7.1565 10.8474 7.45703 11.0661L7.45917 11.0679C7.76012 11.2866 8.13642 11.3265 8.4612 11.2072C8.55544 11.5405 8.80874 11.822 9.16271 11.937L9.16528 11.9379C9.51947 12.0527 9.88997 11.9737 10.1617 11.7595C10.3545 12.0465 10.6819 12.2356 11.0537 12.2356H11.0562C11.428 12.2356 11.7554 12.0465 11.9481 11.7595C12.2199 11.9737 12.5904 12.0527 12.9446 11.9379L12.9472 11.937C13.3011 11.822 13.5544 11.5405 13.6487 11.2072C13.9734 11.3265 14.3497 11.2866 14.6507 11.0679L14.6528 11.0661C14.9534 10.8474 15.1069 10.502 15.0938 10.1566C15.4391 10.1697 15.7845 10.0162 16.0033 9.71571L16.005 9.71357C16.2237 9.41261 16.2636 9.03632 16.1443 8.71154C16.4777 8.6173 16.7591 8.364 16.8741 8.01003L16.875 8.00745C16.9898 7.65326 16.9108 7.28276 16.6966 7.011C16.9836 6.81824 17.1727 6.49088 17.1727 6.11909V6.11651C17.1727 5.74472 16.9836 5.41736 16.6966 5.2246C16.9108 4.95284 16.9898 4.58234 16.875 4.22815L16.8741 4.22558C16.7591 3.8716 16.4777 3.6183 16.1443 3.52407C16.2636 3.19929 16.2237 2.82299 16.005 2.52204L16.0033 2.51989C15.7845 2.21937 15.4391 2.06588 15.0938 2.07898C15.1069 1.73359 14.9534 1.3882 14.6528 1.16947L14.6507 1.16775C14.3497 0.949011 13.9734 0.909081 13.6487 1.02843C13.5544 0.695065 13.3011 0.413647 12.9472 0.29859L12.9446 0.297732C12.5904 0.182889 12.2199 0.261882 11.9481 0.476112C11.7554 0.189112 11.428 0 11.0562 0Z" fill="#CA5919"/>
<path id="Ellipse 156" d="M25.5445 24.9005C39.6523 24.9005 51.089 22.69 51.089 19.9633C51.089 17.2366 39.6523 15.0261 25.5445 15.0261C11.4367 15.0261 0 17.2366 0 19.9633C0 22.69 11.4367 24.9005 25.5445 24.9005Z" fill="#D2F5F5"/>
<path id="Ellipse 157" d="M25.5446 41C32.7763 41 38.6388 38.7895 38.6388 36.0628C38.6388 33.3361 32.7763 31.1256 25.5446 31.1256C18.3128 31.1256 12.4503 33.3361 12.4503 36.0628C12.4503 38.7895 18.3128 41 25.5446 41Z" fill="white"/>
<path id="Union_4" d="M23.6464 27.2132C24.6938 27.1209 25.7037 26.899 26.6605 26.5634C28.835 30.1961 32.809 32.6282 37.3507 32.6282C44.2269 32.6282 49.801 27.0542 49.801 20.178C49.801 13.3018 44.2269 7.7277 37.3507 7.7277C34.906 7.7277 32.3893 6.81561 30.5125 5.24902C28.3526 3.4461 25.5726 2.36121 22.5392 2.36121C19.5011 2.36121 16.7172 3.44932 14.5558 5.25718C13.0208 6.54149 11.2292 7.56026 9.34386 8.23193C4.52368 9.94943 1.07324 14.5534 1.07324 19.9633C1.07324 26.8395 6.64731 32.4136 13.5235 32.4136C17.6948 32.4136 21.3871 30.3621 23.6464 27.2132Z" fill="#FFBB55"/>
<path id="Vector_12" d="M42.6099 24.9005C43.1824 23.1474 43.6188 19.2979 40.7853 17.9241C37.2434 16.2068 29.945 16.5288 27.5838 13.7382C25.2225 10.9477 20.7146 6.15754 15.8848 8.73346M36.8141 25.1152C37.3866 24.1851 37.9304 22.0885 35.5262 21.144C32.5209 19.9634 26.0811 21.0367 23.7199 17.3875C21.3586 13.7382 18.2461 9.22996 12.5576 10.6252M8.2998 13.2016C6.04588 13.2374 1.65287 15.2409 1.82459 23.3979M24.0419 26.0812C23.9345 25.8665 19.6413 24.9005 18.4607 20.0707C17.1373 14.6572 10.3037 15.4555 9.65967 19.7487C9.14449 23.1833 10.733 24.7574 11.5916 25.1152M35.3564 31.1257C41.0813 31.1257 45.7225 26.5004 45.7225 20.7945C45.7225 15.0889 41.0813 10.4636 35.3564 10.4636C33.3201 10.4636 31.2244 9.70394 29.658 8.40267C27.8605 6.90907 25.5477 6.0105 23.0244 6.0105C20.6844 6.0105 18.5255 6.78327 16.7907 8.08647C15.1929 9.28663 13.3967 10.306 11.55 11.0694C7.79386 12.6216 5.15182 16.3116 5.15182 20.6166C5.15182 26.3222 9.79276 30.9475 15.518 30.9475" stroke="#FFF0BD" stroke-width="1.28796" stroke-miterlimit="10" stroke-linejoin="round"/>
<g id="Union_5" style="mix-blend-mode:multiply">
<path id="Vector" d="M30.5126 5.24902C28.3527 3.4461 25.5726 2.36121 22.5393 2.36121C19.5012 2.36121 16.7173 3.44932 14.5558 5.25718C13.0208 6.54149 11.2297 7.56005 9.34434 8.23172C7.01034 9.06331 4.99748 10.5717 3.54187 12.5206C5.58114 15.0014 12.8581 19.9633 25.6518 19.9633C38.4455 19.9633 45.3269 15.0014 47.1684 12.5206C44.8898 9.60318 41.3394 7.7277 37.3508 7.7277C34.906 7.7277 32.3893 6.81561 30.5126 5.24902Z" fill="#EF8F50"/>
</g>
<path id="Subtract_2" d="M25.5445 24.9006C39.6524 24.9006 51.089 22.6902 51.089 19.9634C51.089 29.4015 39.6524 38.4241 25.5445 38.4241C11.4366 38.4241 0 29.4015 0 19.9634C0 22.6902 11.4366 24.9006 25.5445 24.9006Z" fill="#D2F5F5"/>
<path id="Subtract_3" d="M25.5445 24.9006C39.6524 24.9006 51.089 22.6902 51.089 19.9634C51.089 27.2534 44.2661 34.2953 34.659 37.1235C20.2293 36.8131 8.39083 30.8786 6.01562 23.1461C10.7014 24.219 17.7111 24.9006 25.5445 24.9006Z" fill="white"/>
<path id="Union_6" d="M20.7159 9.87439H20.7133C20.3415 9.87439 20.0142 10.0635 19.8214 10.3505C19.5496 10.1363 19.1791 10.0573 18.825 10.1721L18.8224 10.173C18.4684 10.288 18.2151 10.5695 18.1209 10.9028C17.7961 10.7835 17.4198 10.8234 17.1188 11.0421L17.1167 11.0439C16.8162 11.2626 16.6627 11.608 16.6758 11.9534C16.3304 11.9403 15.985 12.0938 15.7663 12.3943L15.7646 12.3964C15.5458 12.6974 15.5059 13.0737 15.6252 13.3985C15.2919 13.4927 15.0104 13.746 14.8954 14.1L14.8945 14.1025C14.7797 14.4567 14.8587 14.8272 15.0729 15.099C14.7859 15.2918 14.5968 15.6191 14.5968 15.9909V15.9935C14.5968 16.3653 14.7859 16.6926 15.0729 16.8854C14.8587 17.1572 14.7797 17.5277 14.8945 17.8818L14.8954 17.8844C15.0104 18.2384 15.2919 18.4917 15.6252 18.5859C15.5059 18.9107 15.5458 19.287 15.7646 19.588L15.7663 19.5901C15.985 19.8906 16.3304 20.0441 16.6758 20.031C16.6627 20.3764 16.8162 20.7218 17.1167 20.9405L17.1188 20.9422C17.4198 21.161 17.7961 21.2009 18.1209 21.0816C18.2151 21.4149 18.4684 21.6963 18.8224 21.8114L18.825 21.8123C19.1791 21.9271 19.5496 21.8481 19.8214 21.6339C20.0142 21.9209 20.3415 22.11 20.7133 22.11H20.7159C21.0877 22.11 21.415 21.9209 21.6078 21.6339C21.8796 21.8481 22.2501 21.9271 22.6042 21.8123L22.6068 21.8114C22.9608 21.6963 23.2141 21.4149 23.3083 21.0816C23.6331 21.2009 24.0094 21.161 24.3104 20.9422L24.3125 20.9405C24.613 20.7218 24.7665 20.3764 24.7534 20.031C25.0988 20.0441 25.4442 19.8906 25.6629 19.5901L25.6647 19.588C25.8834 19.287 25.9233 18.9107 25.804 18.5859C26.1373 18.4917 26.4188 18.2384 26.5338 17.8844L26.5347 17.8818C26.6495 17.5277 26.5705 17.1572 26.3563 16.8854C26.6433 16.6926 26.8324 16.3653 26.8324 15.9935V15.9909C26.8324 15.6191 26.6433 15.2918 26.3563 15.099C26.5705 14.8272 26.6495 14.4567 26.5347 14.1025L26.5338 14.1C26.4188 13.746 26.1373 13.4927 25.804 13.3985C25.9233 13.0737 25.8834 12.6974 25.6647 12.3964L25.6629 12.3943C25.4442 12.0938 25.0988 11.9403 24.7534 11.9534C24.7665 11.608 24.613 11.2626 24.3125 11.0439L24.3104 11.0421C24.0094 10.8234 23.6331 10.7835 23.3083 10.9028C23.2141 10.5695 22.9608 10.288 22.6068 10.173L22.6042 10.1721C22.2501 10.0573 21.8796 10.1363 21.6078 10.3505C21.415 10.0635 21.0877 9.87439 20.7159 9.87439Z" fill="#CA5919"/>
<path id="Intersect_4" d="M24.3391 7.81017C24.5806 6.96269 24.3806 6.03021 23.7319 5.38151C23.0834 4.73302 22.1507 4.53296 21.3034 4.77445C21.0619 5.62193 21.2618 6.55441 21.9105 7.20311C22.5592 7.8516 23.4917 8.05166 24.3391 7.81017Z" fill="#93E6B8"/>
<path id="Intersect_5" d="M25.5445 7.12542C26.3005 7.57792 27.2532 7.62601 28.0474 7.1675C28.8419 6.70877 29.2764 5.85979 29.2626 4.97882C28.5064 4.52632 27.5539 4.47802 26.7595 4.93675C25.9652 5.39526 25.5306 6.24424 25.5445 7.12542Z" fill="#93E6B8"/>
<path id="Intersect_6" d="M27.3038 11.8755C27.7563 11.1194 27.8046 10.1668 27.3459 9.37252C26.8874 8.57807 26.0384 8.1436 25.1572 8.15755C24.7047 8.91358 24.6566 9.86602 25.1151 10.6605C25.5739 11.4547 26.4228 11.8894 27.3038 11.8755Z" fill="#93E6B8"/>
<path id="Ellipse 162" d="M11.8063 5.15185C12.162 5.15185 12.4503 4.86353 12.4503 4.50787C12.4503 4.15221 12.162 3.86389 11.8063 3.86389C11.4507 3.86389 11.1624 4.15221 11.1624 4.50787C11.1624 4.86353 11.4507 5.15185 11.8063 5.15185Z" fill="#973309"/>
<path id="Ellipse 163" d="M7.72772 6.65441C8.08338 6.65441 8.3717 6.36609 8.3717 6.01043C8.3717 5.65477 8.08338 5.36646 7.72772 5.36646C7.37206 5.36646 7.08374 5.65477 7.08374 6.01043C7.08374 6.36609 7.37206 6.65441 7.72772 6.65441Z" fill="#973309"/>
<path id="Ellipse 164" d="M9.01568 4.50781C9.37134 4.50781 9.65966 4.21949 9.65966 3.86383C9.65966 3.50817 9.37134 3.21985 9.01568 3.21985C8.66002 3.21985 8.3717 3.50817 8.3717 3.86383C8.3717 4.21949 8.66002 4.50781 9.01568 4.50781Z" fill="#973309"/>
<path id="Ellipse 165" d="M23.3979 14.3822C23.7535 14.3822 24.0419 14.0939 24.0419 13.7382C24.0419 13.3826 23.7535 13.0942 23.3979 13.0942C23.0422 13.0942 22.7539 13.3826 22.7539 13.7382C22.7539 14.0939 23.0422 14.3822 23.3979 14.3822Z" fill="#973309"/>
<path id="Ellipse 166" d="M23.8272 16.5288C24.1829 16.5288 24.4712 16.2405 24.4712 15.8848C24.4712 15.5292 24.1829 15.2408 23.8272 15.2408C23.4715 15.2408 23.1832 15.5292 23.1832 15.8848C23.1832 16.2405 23.4715 16.5288 23.8272 16.5288Z" fill="#973309"/>
<path id="Ellipse 168" d="M34.5602 5.79577C34.9159 5.79577 35.2042 5.50745 35.2042 5.15179C35.2042 4.79613 34.9159 4.50781 34.5602 4.50781C34.2046 4.50781 33.9163 4.79613 33.9163 5.15179C33.9163 5.50745 34.2046 5.79577 34.5602 5.79577Z" fill="#973309"/>
<path id="Ellipse 169" d="M37.3508 5.36645C37.7064 5.36645 37.9947 5.07813 37.9947 4.72247C37.9947 4.36681 37.7064 4.07849 37.3508 4.07849C36.9951 4.07849 36.7068 4.36681 36.7068 4.72247C36.7068 5.07813 36.9951 5.36645 37.3508 5.36645Z" fill="#973309"/>
<path id="Ellipse 167" d="M20.178 15.6702C20.5337 15.6702 20.822 15.3818 20.822 15.0262C20.822 14.6705 20.5337 14.3822 20.178 14.3822C19.8224 14.3822 19.5341 14.6705 19.5341 15.0262C19.5341 15.3818 19.8224 15.6702 20.178 15.6702Z" fill="#973309"/>
</g>
</svg>
