<svg width="158" height="158" viewBox="0 0 158 158" fill="none" xmlns="http://www.w3.org/2000/svg">
<rect width="158" height="158" fill="#4D4D4D"/>
<g id="SS f1">
<g clip-path="url(#clip0_1_80165)">
<rect x="-127" y="-367" width="412" height="892" rx="18" fill="white"/>
<path id="Vector" d="M138.918 -556.92C324.6 -543.523 475.619 -411.904 574.765 -254.832C669.147 -105.305 693.091 74.1934 644.525 244.094C594.424 419.361 482.863 572.196 316.656 648.108C138.042 729.686 -74.2763 749.101 -243.565 649.71C-411.582 551.066 -491.554 356.554 -509.587 163.012C-526.316 -16.5217 -454.804 -186.238 -333.956 -320.397C-209.993 -458.013 -46.1398 -570.272 138.918 -556.92Z" fill="#FD6F00"/>
<path id="Vector_2" d="M-176.157 568.961C-323.288 498.407 -406.067 357.823 -449.059 207.715C-492.155 57.2465 -497.357 -104.661 -406.377 -234.848C-309.485 -373.494 -148.915 -475.27 27.3438 -473.988C196.332 -472.759 322.21 -349.09 432.77 -228.744C543.818 -107.867 653.768 27.2233 633.589 185.917C611.985 355.822 492.17 504.379 329.782 581.195C171.18 656.22 -17.9957 644.804 -176.157 568.961Z" fill="#F2B620"/>
<g id="Group 249">
<g id="TiffsyLogoOMG-01-01 1">
<path id="Vector_3" d="M86.5591 86.5738C95.1643 86.1349 103.802 86.1554 112.443 86.8459C116.761 87.2379 121.075 87.7588 125.388 88.8282C126.477 89.1083 127.551 89.4448 128.606 89.8362C129.678 90.2516 130.752 90.7139 131.814 91.4718C132.414 91.8879 132.931 92.4129 133.337 93.0196C133.583 93.4004 133.758 93.822 133.855 94.2646C133.907 94.5083 133.932 94.757 133.93 95.0063C133.922 95.2899 133.877 95.5713 133.795 95.8431C133.646 96.2944 133.411 96.7126 133.103 97.0749C132.859 97.3642 132.587 97.6284 132.29 97.8634C131.781 98.2548 131.236 98.5977 130.663 98.8875C129.625 99.4064 128.549 99.8465 127.445 100.204C126.375 100.567 125.303 100.868 124.226 101.138C122.08 101.677 119.932 102.106 117.78 102.482C113.478 103.225 109.165 103.753 104.848 104.17C96.2059 104.949 87.551 105.263 78.8976 105.294C70.2427 105.257 61.5878 104.919 52.9476 104.123C48.6304 103.695 44.3161 103.158 40.015 102.393C37.8644 102.008 35.7153 101.568 33.5779 101.006C32.5056 100.722 31.4318 100.421 30.3594 100.032C29.2461 99.6508 28.169 99.1715 27.1409 98.5993C26.5452 98.265 25.9955 97.8549 25.5053 97.3792C25.1954 97.0723 24.9353 96.7189 24.7343 96.3317C24.6137 96.0949 24.5237 95.8437 24.4666 95.5841C24.4037 95.3119 24.381 95.032 24.3993 94.7532C24.4305 94.2719 24.5594 93.802 24.7782 93.3721C24.9662 93.0089 25.2024 92.6728 25.4804 92.3729C25.9479 91.8856 26.4812 91.4661 27.0648 91.1265C28.0837 90.528 29.1624 90.0376 30.2833 89.6635C31.3572 89.2905 32.431 88.9862 33.5019 88.7214C37.8103 87.6973 42.1333 87.2014 46.4476 86.8195C55.0879 86.151 63.7252 86.1276 72.3303 86.5723C63.7325 87.0785 55.1449 87.6593 46.6773 88.875C42.4523 89.4734 38.2316 90.2165 34.2129 91.3854C33.2107 91.678 32.2247 91.997 31.2869 92.3671C30.3772 92.7092 29.505 93.144 28.6843 93.6647C28.348 93.8777 28.0427 94.1361 27.7773 94.4328C27.6931 94.5308 27.6223 94.6395 27.5666 94.7561C27.5415 94.808 27.5305 94.8654 27.5344 94.9229C27.5344 94.9317 27.5344 94.939 27.5344 94.9229C27.5344 94.9141 27.5344 94.9024 27.5344 94.8966C27.5344 94.8907 27.5344 94.8878 27.5461 94.8966C27.6048 94.9803 27.6731 95.0569 27.7495 95.1248C28.048 95.3825 28.3766 95.6031 28.7282 95.7817C29.5979 96.2215 30.5045 96.5842 31.4376 96.8657C32.4046 97.1715 33.4038 97.4509 34.4177 97.6894C36.4453 98.1751 38.5227 98.5584 40.6133 98.8875C44.7989 99.5429 49.0414 99.9833 53.2928 100.318C61.7956 101.031 70.3554 101.306 78.9078 101.291C87.4603 101.325 96.0245 101.053 104.526 100.369C108.78 100.046 113.023 99.6131 117.214 98.9768C119.308 98.6564 121.389 98.2848 123.426 97.8152C125.462 97.3456 127.49 96.8013 129.215 95.9967C129.609 95.8155 129.985 95.5986 130.34 95.3486C130.469 95.2549 130.589 95.1496 130.7 95.0341C130.78 94.9448 130.818 94.879 130.821 94.8878C130.824 94.8966 130.821 94.9083 130.821 94.9317C130.824 94.9118 130.824 94.8916 130.821 94.8717C130.809 94.7869 130.779 94.7057 130.733 94.6332C130.544 94.3404 130.303 94.0845 130.022 93.8783C129.348 93.3546 128.458 92.8996 127.535 92.5075C126.587 92.1168 125.62 91.775 124.637 91.4835C120.645 90.2648 116.424 89.5085 112.202 88.8999C103.745 87.6578 95.1555 87.0814 86.5591 86.5738Z" fill="#282828"/>
<path id="Vector_4" d="M32.4485 120.946L29.4363 99.069C29.4363 99.069 51.7801 103.301 79.177 103.301C106.574 103.301 129.21 99.069 129.21 99.069L126.188 120.929C125.989 122.38 125.376 123.743 124.421 124.855C123.466 125.966 122.211 126.778 120.806 127.193C113.115 129.456 96.9593 133.473 79.1712 133.473C61.4181 133.473 45.4323 129.469 37.8117 127.205C36.411 126.787 35.1602 125.975 34.2091 124.865C33.258 123.755 32.6467 122.394 32.4485 120.946Z" fill="#D18B0F" stroke="#282828" stroke-width="2" stroke-miterlimit="10"/>
<path id="Vector_5" d="M46.6524 54.7397L47.163 58.9253L42.8443 59.4505L45.9048 84.5593L41.7749 85.0626L38.7144 59.9537L34.3972 60.4804L33.8866 56.2963L46.6524 54.7397Z" fill="#1C1C1C"/>
<path id="Vector_6" d="M56.6371 54.0551L58.6414 83.4943L54.4895 83.7766L52.4867 54.3374L56.6371 54.0551Z" fill="#1C1C1C"/>
<path id="Vector_7" d="M73.2739 66.5195L73.3939 70.7328L68.0248 70.8791L68.3671 83.0568L64.2079 83.1739L63.3784 53.6908L74.3799 53.3806L74.4984 57.5939L67.6561 57.7871L67.9063 66.6775L73.2739 66.5195Z" fill="#1C1C1C"/>
<path id="Vector_8" d="M89.5333 66.6189L89.466 70.8337L84.0955 70.7489L83.9009 82.9295L79.7417 82.8637L80.2113 53.3601L91.2172 53.5357L91.1426 57.7505L84.3018 57.6407L84.1555 66.5341L89.5333 66.6189Z" fill="#1C1C1C"/>
<path id="Vector_9" d="M102.745 53.7902C106.783 54.0506 108.686 56.8771 108.382 61.5878L108.322 62.5139L104.397 62.2608L104.475 61.0407C104.611 58.9369 103.908 58.0899 102.587 58.0035C101.266 57.9172 100.459 58.6692 100.323 60.7729C99.9321 66.8296 107.974 68.4901 107.43 76.9021C107.125 81.6143 104.839 84.1701 100.762 83.9068C96.6843 83.6434 94.7459 80.8141 95.056 76.1033L95.1731 74.2936L99.0982 74.5482L98.9622 76.6505C98.8276 78.7542 99.6088 79.5647 100.93 79.651C102.251 79.7373 103.124 79.0322 103.271 76.9284C103.661 70.8718 95.6193 69.2113 96.1635 60.7993C96.4576 56.0871 98.7061 53.5298 102.745 53.7902Z" fill="#1C1C1C"/>
<path id="Vector_10" d="M114.082 54.9314L118.39 55.5268L119.707 69.2787L124.693 56.3914L128.627 56.9342L120.727 75.7581L119.378 85.4488L115.257 84.8812L116.598 75.1964L114.082 54.9314Z" fill="#1C1C1C"/>
<path id="Vector_11" d="M45.5172 28.7794C45.0388 29.7874 44.6072 30.7398 44.338 31.66C44.0688 32.5802 43.9957 33.4565 44.2239 34.0666C44.3336 34.3559 44.5088 34.6158 44.736 34.8258C45.0631 35.1584 45.4094 35.4716 45.7732 35.7636C46.553 36.3971 47.4615 37.032 48.3963 37.7532C49.3311 38.4745 50.3069 39.2791 51.0955 40.3544C51.9059 41.396 52.3785 42.8312 52.1415 44.1288C52.0127 44.8256 51.6989 45.4749 51.233 46.0087C50.7988 46.5119 50.2901 46.9456 49.7247 47.2947C48.6204 47.984 47.3943 48.4553 46.1126 48.683C46.948 47.8608 47.7102 47.0562 48.2749 46.237C48.8396 45.4177 49.1526 44.5911 49.0166 44.0103C48.9127 43.2686 48.5514 42.6805 47.9603 42.0485C47.3693 41.4165 46.5456 40.7991 45.6635 40.1349C44.7813 39.4708 43.8114 38.7598 42.9087 37.8951C42.4372 37.4539 42.0109 36.9667 41.6359 36.441C41.2016 35.8279 40.956 35.1012 40.9293 34.3504C40.9204 33.6804 41.074 33.0183 41.377 32.4207C41.6581 31.861 42.021 31.3462 42.4537 30.8934C43.3161 29.9826 44.3597 29.2625 45.5172 28.7794Z" fill="#1C1C1C"/>
<path id="Vector_12" d="M76.6374 19.7866C76.5715 22.2649 76.4457 24.6378 76.7412 26.8469C76.8139 27.381 76.9214 27.9097 77.0631 28.4298C77.1406 28.6844 77.2196 28.9155 77.3132 29.1613C77.4069 29.4071 77.5108 29.6865 77.6322 29.9484C77.856 30.4721 78.0901 30.9988 78.3637 31.5327L79.1624 33.1815C79.4258 33.7491 79.6862 34.3372 79.9276 34.9371C80.1612 35.552 80.3566 36.1808 80.5128 36.8199C80.8168 38.0993 80.9058 39.4203 80.7761 40.7289C80.7188 41.3902 80.5893 42.0431 80.3899 42.6761C79.975 43.9581 79.3124 45.146 78.4397 46.1726C77.9986 46.7104 77.4936 47.1923 76.9358 47.6078C77.6117 45.1822 77.8926 42.9029 77.5532 40.7494C77.4112 39.6527 77.1542 38.5739 76.7866 37.5309C76.6049 36.9968 76.3959 36.4724 76.1604 35.9597C75.9351 35.4301 75.6791 34.8961 75.4143 34.3504C75.1495 33.8047 74.8935 33.2298 74.6419 32.6402C74.3903 32.0506 74.162 31.4406 73.9733 30.8144C73.8738 30.5043 73.8036 30.181 73.7188 29.8664C73.6358 29.5299 73.5786 29.1876 73.5476 28.8424C73.482 28.1769 73.4899 27.5062 73.571 26.8425C73.7268 25.5596 74.0719 24.3068 74.5951 23.1251C75.1134 21.9207 75.8011 20.7965 76.6374 19.7866Z" fill="#1C1C1C"/>
<path id="Vector_13" d="M110.132 28.7794C111.289 29.2629 112.333 29.9829 113.195 30.8934C113.628 31.3462 113.991 31.861 114.272 32.4207C114.574 33.0185 114.728 33.6805 114.72 34.3504C114.693 35.1015 114.447 35.8283 114.012 36.441C113.637 36.9667 113.211 37.4538 112.74 37.8951C111.868 38.6963 110.948 39.4443 109.986 40.1349C109.108 40.7991 108.28 41.4253 107.689 42.0485C107.098 42.6717 106.736 43.2686 106.631 44.0103C106.493 44.5955 106.805 45.4279 107.374 46.237C107.943 47.046 108.701 47.8608 109.536 48.683C108.254 48.4551 107.028 47.9838 105.923 47.2947C105.358 46.9455 104.85 46.5118 104.416 46.0087C103.949 45.4758 103.635 44.8261 103.508 44.1288C103.271 42.8312 103.743 41.396 104.554 40.3544C105.342 39.2791 106.327 38.4789 107.253 37.7532C108.179 37.0276 109.096 36.3971 109.876 35.7636C110.24 35.4716 110.586 35.1584 110.913 34.8258C111.14 34.6161 111.315 34.3561 111.424 34.0666C111.652 33.4565 111.589 32.5714 111.311 31.66C111.033 30.7486 110.609 29.7874 110.132 28.7794Z" fill="#1C1C1C"/>
</g>
</g>
</g>
<rect x="-131" y="-371" width="420" height="900" rx="22" stroke="#1D1B20" stroke-width="8"/>
</g>
<defs>
<clipPath id="clip0_1_80165">
<rect x="-127" y="-367" width="412" height="892" rx="18" fill="white"/>
</clipPath>
</defs>
</svg>
