<svg width="62" height="62" viewBox="0 0 62 62" fill="none" xmlns="http://www.w3.org/2000/svg">
<g id="&#240;&#159;&#166;&#134; emoji &#34;smiling face with heart-shaped eyes&#34;">
<path id="Vector" d="M62 31.0053C62 48.1407 48.1679 61.9728 31.0325 61.9728C13.8972 61.9728 0.0650635 48.1407 0.0650635 31.0053C0.0650635 13.87 13.8972 0.0378418 31.0325 0.0378418C48.1679 0.0378418 62 13.87 62 31.0053Z" fill="#FFDD67"/>
<path id="Vector_2" d="M61.7935 11.5993C61.2774 8.8122 59.729 6.54125 57.1484 5.81868C54.3614 5.0961 51.884 6.12835 49.5098 8.60575C48.1679 4.88965 46.1034 2.10258 42.8002 0.657432C39.497 -0.787717 36.1938 0.244532 34.1293 2.82516C31.9615 5.509 31.1357 9.74122 33.4067 15.2121C35.5744 20.3734 45.1743 30.6959 45.484 31.0056C45.8969 30.7991 56.6323 24.0895 59.2129 20.7863C61.7935 17.5863 62.3097 14.3863 61.7935 11.5993ZM27.9358 2.82516C25.8713 0.244532 22.5681 -0.787717 19.2649 0.657432C15.9617 2.10258 13.8972 4.88965 12.5553 8.60575C10.0779 6.23158 7.60047 5.0961 4.8134 5.9219C2.336 6.64448 0.6844 8.91543 0.168275 11.7025C-0.347849 14.3863 0.2715 17.6895 2.7489 20.8895C5.43275 24.0895 16.1681 30.7991 16.581 31.0056C16.8907 30.6959 26.4906 20.3734 28.6584 15.2121C30.9293 9.74122 30.1035 5.61223 27.9358 2.82516Z" fill="#F46767"/>
<path id="Vector_3" d="M48.5807 37.3021C48.5807 36.4763 48.0646 35.4441 46.7227 35.1344C43.1098 34.4118 37.8453 33.7925 31.0325 33.7925C24.2196 33.7925 18.9552 34.5151 15.3423 35.1344C13.8972 35.4441 13.4843 36.4763 13.4843 37.3021C13.4843 44.8375 19.2648 52.373 31.0325 52.373C42.8001 52.2697 48.5807 44.7343 48.5807 37.3021Z" fill="#664E27"/>
<path id="Vector_4" d="M44.1421 37.5086C41.8712 37.0957 37.1228 36.4763 31.0326 36.4763C24.9423 36.4763 20.194 37.0957 17.923 37.5086C16.5811 37.715 16.4779 38.2311 16.5811 39.0569C16.6843 39.4698 16.6843 40.0892 16.8908 40.7085C16.994 41.3279 17.2004 41.6376 18.2327 41.5343C20.194 41.3279 41.9744 41.3279 43.9357 41.5343C44.9679 41.6376 45.0712 41.3279 45.2776 40.7085C45.3808 40.0892 45.4841 39.5731 45.5873 39.0569C45.5873 38.2311 45.4841 37.715 44.1421 37.5086Z" fill="white"/>
</g>
</svg>
