<svg width="63" height="63" viewBox="0 0 63 63" fill="none" xmlns="http://www.w3.org/2000/svg">
<g id="&#240;&#159;&#166;&#134; emoji &#34;money bag&#34;">
<path id="Vector" d="M52.8469 45.8984C52.8469 57.74 43.2561 57.74 31.3167 57.74C19.3772 57.74 9.7865 57.74 9.7865 45.8984C9.7865 34.0568 19.4751 14.6797 31.3167 14.6797C43.1583 14.6797 52.8469 33.959 52.8469 45.8984Z" fill="#DBB471"/>
<path id="Vector_2" opacity="0.5" d="M52.8468 45.8986C52.8468 41.8861 51.7703 36.9929 49.813 32.2954C50.2045 35.3292 49.4216 40.7118 40.1244 42.7669C26.9127 45.605 33.7633 49.3238 28.5764 49.8131C24.1725 50.2046 12.4288 48.443 10.0801 41.7883C9.88433 43.2562 9.6886 44.6263 9.6886 45.9964C9.78646 57.7402 19.475 57.7402 31.3166 57.7402C43.1582 57.7402 52.8468 57.7402 52.8468 45.8986Z" fill="#89664C"/>
<path id="Vector_3" d="M33.274 53.8254H31.0231V57.74L40.1245 62.6332L60.676 56.272V52.8468L53.1404 48.4429L33.274 53.8254Z" fill="#6AA64F"/>
<path id="Vector_4" d="M31.3167 51.5747C31.3167 51.5747 33.6654 55.3915 40.3202 58.7188C40.3202 58.7188 50.6938 58.2295 60.676 51.5747C60.676 51.5747 54.902 48.7367 53.2383 45.0178C53.2383 45.0178 49.3237 50.4982 31.3167 51.5747Z" fill="#6AA64F"/>
<path id="Vector_5" d="M26.9128 53.7275L29.0658 53.6296L29.3594 57.2506L20.8452 62.6331L0.391494 58.2292L0.0979004 54.9997L7.04628 50.2043L26.9128 53.7275Z" fill="#6AA64F"/>
<path id="Vector_6" d="M28.5764 51.4769C28.5764 51.4769 26.5213 55.2936 20.3558 58.9146C20.3558 58.9146 10.2758 59.2082 0 53.8256C0 53.8256 5.48041 50.6939 6.75265 46.9751C6.75265 46.9751 11.0587 51.8683 28.5764 51.4769Z" fill="#6AA64F"/>
<path id="Vector_7" d="M23.6832 52.5534C23.6832 52.5534 23.3896 53.3363 24.7597 53.4342L21.1387 56.468C21.1387 56.468 18.9857 56.2722 18.4964 57.7402C18.4964 57.7402 9.6886 56.7616 4.01247 54.2171C4.01247 54.2171 5.18684 53.3363 3.71887 52.7491C3.71887 52.7491 5.38257 51.5747 5.77403 50.4982C5.77403 50.4982 7.33986 50.694 7.82918 49.5196C8.02491 49.4217 13.8968 52.9448 23.6832 52.5534Z" stroke="#6AA64F" stroke-width="0.708856" stroke-miterlimit="10"/>
<path id="Vector_8" d="M8.61211 53.9231C9.63904 53.9231 10.4715 53.3535 10.4715 52.6509C10.4715 51.9483 9.63904 51.3787 8.61211 51.3787C7.58518 51.3787 6.75269 51.9483 6.75269 52.6509C6.75269 53.3535 7.58518 53.9231 8.61211 53.9231Z" fill="#6AA64F"/>
<path id="Vector_9" d="M18.5943 51.0853C18.5943 51.0853 16.3434 54.0212 11.4502 58.0337L11.7438 60.676L8.31853 59.8931L8.1228 57.055C8.1228 57.055 13.1139 52.4554 14.1904 50.2045C14.0925 50.2045 15.8541 50.7917 18.5943 51.0853ZM41.201 50.4002C41.201 50.4002 42.0818 52.749 48.7365 57.055V59.8931L52.5533 58.7187V55.7828C52.5533 55.7828 47.9536 52.5533 45.2134 49.3237L41.201 50.4002Z" fill="#F9F3D9"/>
<path id="Vector_10" d="M35.6227 47.2688L33.4697 47.171L33.2739 51.1834L41.9839 56.7617L62.4375 51.1834L62.5354 47.6603L55.3913 42.6692L35.6227 47.2688Z" fill="#6AA64F"/>
<path id="Vector_11" d="M33.8611 44.8219C33.8611 44.8219 36.0141 48.9322 42.3753 52.651C42.3753 52.651 52.5532 52.651 62.6332 46.3877C62.6332 46.3877 57.055 43.1582 55.6849 39.1458C55.6849 39.1458 51.4767 44.6262 33.8611 44.8219Z" fill="#6AA64F"/>
<path id="Vector_12" d="M38.265 45.8985C38.265 45.8985 38.7543 46.6815 37.1885 46.975L41.2988 50.2046C41.2988 50.2046 43.6475 49.6174 44.4304 50.9875C44.4304 50.9875 54.2169 49.2259 58.7187 46.8772C58.7187 46.8772 57.2507 46.1921 58.7187 45.3114C58.7187 45.3114 56.9571 43.8434 56.272 42.8647C56.272 42.8647 54.6083 43.3541 53.7276 42.1797C53.7276 42.2776 50.2044 45.4092 38.265 45.8985Z" stroke="#6AA64F" stroke-width="0.708856" stroke-miterlimit="10"/>
<path id="Vector_13" d="M45.8006 48.3449C45.4091 48.8342 44.1369 49.03 43.0604 48.7364C41.9838 48.4428 41.4945 47.7577 41.886 47.2684C42.2774 46.7791 43.5497 46.5834 44.6262 46.877C45.7027 47.1706 46.192 47.7577 45.8006 48.3449Z" fill="#6AA64F"/>
<path id="Vector_14" d="M43.8433 44.0389C43.8433 44.0389 46.192 47.1706 51.1831 51.3787L51.0852 54.3147L54.5105 53.336L54.6084 50.2044C54.6084 50.2044 49.5194 45.3111 48.2472 42.9624C48.345 42.9624 46.6813 43.6475 43.8433 44.0389Z" fill="#F9F3D9"/>
<path id="Vector_15" d="M45.0176 1.95729C45.0176 7.92702 37.2864 17.6156 31.3166 17.6156C25.3469 17.6156 17.6156 8.90566 17.6156 2.93593C17.6156 -3.0338 18.4964 2.93593 24.4661 2.93593C25.3469 2.93593 29.4572 0 31.3166 0C32.5889 0 36.2098 2.93593 38.1671 2.93593C43.3539 2.93593 45.0176 -2.54448 45.0176 1.95729Z" fill="#DBB471"/>
<path id="Vector_16" d="M29.555 13.0161C28.9678 13.4075 26.1298 13.1139 25.249 13.799C24.0746 14.6798 25.7383 16.7349 24.5639 18.0072C22.2152 20.3559 20.3558 22.9983 20.943 24.4662C21.9216 27.0107 23.781 19.7687 25.4447 22.5089C27.1084 25.2491 26.8148 20.6495 29.3593 22.9983C31.9038 25.347 29.7508 18.7901 32.1974 21.6281C34.644 24.4662 34.7419 27.6957 36.5034 27.6957C38.5586 27.6957 34.3504 19.9645 37.0906 21.8239C39.8308 23.6833 42.8646 22.9983 40.1244 20.1602C39.2436 19.2794 38.0692 17.7136 36.6991 16.3435C36.2098 15.8541 36.6013 13.3097 36.112 12.9182C35.5248 12.4289 34.0568 13.9947 33.4696 13.7011C32.2952 13.1139 32.6867 14.1904 30.9251 14.484C29.7508 14.8755 30.7294 12.2332 29.555 13.0161Z" fill="#89664C"/>
<path id="Vector_17" d="M18.3006 18.7899C22.1174 15.1689 29.0657 17.2241 33.176 18.9856C37.1885 20.7472 39.6351 15.1689 37.0906 12.3309C35.6226 10.6672 33.2739 12.6245 32.3931 13.7988C31.4145 14.9732 30.6316 16.2454 29.555 17.4198C27.9892 19.1814 24.1725 17.7134 25.3469 15.2668C26.6191 12.7223 32.0017 15.6583 33.7632 16.1476C37.1885 17.1262 40.8095 17.5177 44.2347 16.2454C45.4091 15.854 44.9198 13.8967 43.7454 14.386C39.9287 15.7561 36.112 14.8753 32.491 13.701C30.6316 13.1138 27.6956 11.548 25.7383 12.4287C20.1601 15.0711 25.3469 22.6066 30.0444 19.6707C31.1209 18.9856 31.8059 17.9091 32.5888 16.9305C33.0782 16.3433 35.5248 12.6245 36.112 14.4839C36.4056 15.4625 36.112 17.2241 35.0355 17.5177C34.3504 17.8113 32.9803 16.8326 32.2953 16.6369C31.023 16.1476 29.7508 15.7561 28.3807 15.4625C24.7597 14.6796 19.8665 14.8753 17.0284 17.5177C16.0498 18.3006 17.4199 19.6707 18.3006 18.7899Z" fill="#E8E8E8"/>
<path id="Vector_18" d="M43.8433 0.489322C42.8646 1.27224 41.1031 2.93593 38.1671 2.93593C36.2098 2.93593 32.5889 0 31.3166 0C29.4572 0 25.3469 2.93593 24.4661 2.93593C21.2366 2.93593 19.475 1.27224 18.5942 0.587187C18.5942 0.587187 19.6707 4.99109 22.9981 7.24197C25.4447 8.8078 25.1512 6.94838 26.4234 5.18682C27.6956 3.42526 28.5764 2.54448 30.8273 6.94837C32.0017 9.39499 34.2525 0.293593 36.0141 3.22953C39.2436 8.61207 40.418 5.67614 43.8433 0.489322Z" fill="#89664C"/>
<path id="Vector_19" d="M51.2809 51.2811L51.1831 54.217L54.6083 53.2384L54.7062 50.1067C54.7062 50.2046 52.651 50.9875 51.2809 51.2811ZM48.7365 57.1529V59.991L52.5532 58.8166V55.8807C52.4553 55.7828 51.4767 56.37 48.7365 57.1529ZM11.4501 57.9358L11.7437 60.676L8.31845 59.8931L8.12272 57.0551C8.02486 57.0551 9.39496 57.5444 11.4501 57.9358Z" fill="#DBB471"/>
</g>
</svg>
