<svg width="70" height="70" viewBox="0 0 70 70" fill="none" xmlns="http://www.w3.org/2000/svg">
<g id="&#240;&#159;&#166;&#134; emoji &#34;pot of food&#34;">
<path id="Vector" d="M35.5688 49.3295C20.1752 49.3295 7.34722 44.5481 4.43176 38.2507C9.7962 54.6939 6.53089 69.9709 35.5688 69.9709C64.6067 69.9709 61.3414 54.6939 66.7059 38.2507C63.7904 44.5481 50.9624 49.3295 35.5688 49.3295Z" fill="#3E4347"/>
<path id="Vector_2" d="M21.2247 21.5742C37.6679 17.0261 75.4522 23.9066 67.1723 39.5334C71.7204 44.6646 73.3531 50.1457 51.6621 49.7958C18.3093 57.6092 -9.21261 41.3993 2.91568 29.1544C0.000226203 23.2069 6.41423 20.1748 21.2247 21.5742Z" fill="#6F7980"/>
<path id="Vector_3" d="M35.5688 48.6297C50.146 48.6297 62.2743 44.0816 65.0732 38.1341C65.3064 37.551 65.423 36.9679 65.6563 36.3848C65.6563 36.035 65.7729 35.8017 65.7729 35.4519C65.7729 28.2215 52.2452 22.3906 35.6854 22.3906C19.1256 22.3906 5.5979 28.2215 5.5979 35.4519C5.5979 35.8017 5.5979 36.035 5.71452 36.3848C5.83114 36.9679 6.06437 37.551 6.29761 38.1341C8.86321 44.0816 20.9915 48.6297 35.5688 48.6297Z" fill="#3E4347"/>
<path id="Vector_4" d="M35.5687 48.6298C50.146 48.6298 62.2743 44.0817 65.0731 38.1342C65.0731 37.9009 65.1898 37.7843 65.1898 37.5511C62.7408 31.3703 50.3792 26.7056 35.4521 26.7056C20.525 26.7056 8.16346 31.3703 5.71448 37.5511C5.8311 37.7843 5.8311 37.9009 5.8311 38.1342C8.86317 44.0817 20.9915 48.6298 35.5687 48.6298Z" fill="#FBBF67"/>
<path id="Vector_5" d="M39.6504 33.1196C33.8195 33.003 26.7058 37.6677 21.9244 37.3178C13.9944 36.7347 22.1577 40.5831 27.7554 40.5831C31.4871 40.5831 34.0527 37.2012 36.0352 35.8018C38.8341 34.0525 45.7146 33.2362 39.6504 33.1196Z" fill="#D33B23"/>
<path id="Vector_6" d="M22.391 29.2713C20.8749 25.073 12.1286 31.9535 19.5921 33.4695C20.7583 33.7028 23.6738 33.0031 22.391 29.2713ZM39.3006 42.4491C37.4347 37.3179 26.5892 45.8311 35.9187 47.5803C37.3181 47.8136 40.9333 46.9973 39.3006 42.4491ZM41.2831 27.7553C39.5338 23.557 28.6883 30.4375 37.9012 31.9535C39.184 32.0701 42.7991 31.3704 41.2831 27.7553ZM59.1257 32.3034C58.426 27.7553 44.5484 30.3208 54.1111 35.1022C55.5105 35.8019 59.7088 36.385 59.1257 32.3034Z" fill="#FF8736"/>
<path id="Vector_7" d="M15.2772 36.3849C13.9944 34.6356 12.1285 32.3033 11.4288 33.4694C10.3792 35.1021 10.0294 38.3674 10.8457 38.484C16.6766 39.6502 16.2101 37.7843 15.2772 36.3849ZM47.3472 33.1196C45.248 34.0525 43.9652 33.3528 43.0323 34.7522C40.8165 37.9009 48.3967 38.9505 49.7961 37.0846C50.8457 35.8018 48.7466 32.5365 47.3472 33.1196ZM49.0964 40.933C47.5804 40.2333 47.9303 42.5657 45.5979 40.6998C43.9652 39.417 40.4667 42.6823 42.7991 44.898C45.3647 47.347 46.0644 45.0146 47.1139 45.2479C49.3297 45.5977 53.1781 42.6823 49.0964 40.933ZM23.4404 41.6327C22.041 40.2333 19.8253 44.1983 20.6416 45.2479C22.3909 47.5802 28.6883 47.1138 30.3209 45.3645C32.42 43.2654 26.8224 44.898 23.4404 41.6327Z" fill="#89664C"/>
<path id="Vector_8" d="M18.076 40.4668C18.076 40.4668 18.1926 41.8662 18.4259 42.4493C16.9098 41.8662 16.9098 39.184 16.9098 39.184C16.9098 39.184 15.8603 39.767 15.9769 40.8166C14.3442 39.4172 12.9448 40.1169 12.9448 40.1169C12.9448 40.1169 15.044 41.2831 15.3938 42.0994C14.2276 42.216 13.5279 42.5659 13.0614 43.4988C13.0614 43.4988 15.3938 42.3326 17.1431 43.149C16.4434 43.7321 16.7932 45.1315 16.7932 45.1315C19.5921 42.216 21.3413 44.7816 22.6241 44.0819C21.5746 42.6825 20.0585 42.4493 20.0585 42.4493C19.4754 41.2831 18.076 40.4668 18.076 40.4668ZM30.6708 29.0382C29.2714 28.8049 27.872 29.5046 27.872 29.5046C27.872 29.5046 29.1548 30.0877 29.7378 30.321C28.455 31.3705 26.1227 29.9711 26.1227 29.9711C26.1227 29.9711 26.1227 31.1373 27.0556 31.6038C25.0731 32.3035 24.8399 33.9361 24.8399 33.9361C24.8399 33.9361 26.939 32.77 27.7553 32.8866C27.1722 33.9361 27.1722 34.7525 27.872 35.5688C27.872 35.5688 28.1052 33.0032 29.7378 31.9536C29.8545 32.8866 31.2539 33.2364 31.2539 33.2364C30.2043 29.388 33.353 29.1548 33.353 27.7554C31.7204 27.7554 30.6708 29.0382 30.6708 29.0382ZM57.8428 39.5338C58.4259 38.9507 60.8749 38.6009 60.8749 38.6009C60.8749 38.6009 59.8253 37.4347 57.7262 38.0178C58.1927 37.0848 57.493 36.1519 57.493 36.1519C57.493 36.1519 56.4434 38.6009 54.8108 38.6009C55.2772 38.0178 55.8603 36.8516 55.8603 36.8516C55.8603 36.8516 54.2277 37.2014 53.2947 38.251C53.2947 38.251 51.7787 37.7845 50.3793 38.7175C51.1956 39.8837 53.8778 38.1344 55.2772 41.8662C55.2772 41.8662 56.0935 40.7 55.7437 39.8837C57.6096 39.767 59.3589 41.7496 59.3589 41.7496C59.3589 40.7 58.8924 40.1169 57.8428 39.5338Z" fill="#6AA64F"/>
<path id="Vector_9" opacity="0.6" d="M36.5018 10.9621C32.1869 6.53062 35.1024 0 35.1024 0C35.1024 0 26.0061 8.62975 31.7204 14.5773C38.3677 21.4577 35.1024 25.656 35.1024 25.656C35.1024 25.656 43.2656 17.9592 36.5018 10.9621ZM23.6738 14.9271C20.4085 11.7784 22.6242 6.99709 22.6242 6.99709C22.6242 6.99709 15.8604 13.2945 20.1752 17.6093C25.1898 22.6239 22.6242 25.656 22.6242 25.656C22.6242 25.656 28.6884 20.0583 23.6738 14.9271ZM49.3298 14.9271C46.0645 11.7784 48.2802 6.99709 48.2802 6.99709C48.2802 6.99709 41.5164 13.2945 45.8312 17.6093C50.8458 22.6239 48.2802 25.656 48.2802 25.656C48.2802 25.656 54.3444 20.0583 49.3298 14.9271Z" fill="#A6AEB0"/>
</g>
</svg>
