<svg width="62" height="62" viewBox="0 0 62 62" fill="none" xmlns="http://www.w3.org/2000/svg">
<g id="&#240;&#159;&#166;&#134; emoji &#34;face savouring delicious food&#34;">
<path id="Vector" d="M62 31C62 48.1533 48.1533 62 31 62C13.8467 62 0 48.1533 0 31C0 13.8467 13.8467 0 31 0C48.1533 0 62 13.8467 62 31Z" fill="#FFDD67"/>
<path id="Vector_2" d="M41.3333 47.43C36.1667 42.2634 38.44 44.5367 43.9167 39.06C49.3933 33.5834 47.12 31.2067 52.2867 36.4767C57.4533 41.6434 57.66 46.7067 54.56 49.8067C51.5633 52.8034 46.5 52.5967 41.3333 47.43Z" fill="#FF717F"/>
<path id="Vector_3" d="M45.0533 37.9233L52.08 47.2233L42.8833 40.1967L45.0533 37.9233Z" fill="#E2596C"/>
<path id="Vector_4" d="M27.3833 23.6632C25.4199 18.3932 22.5266 15.7065 19.6333 15.7065C16.7399 15.7065 13.8466 18.3932 11.8833 23.6632C11.6766 24.1799 12.7099 25.1099 13.2266 24.5932C15.0866 22.6299 17.3599 21.8032 19.6333 21.8032C21.9066 21.8032 24.1799 22.6299 26.0399 24.5932C26.6599 25.1099 27.5899 24.1799 27.3833 23.6632ZM50.0133 23.6632C48.0499 18.3932 45.1566 15.7065 42.2633 15.7065C39.3699 15.7065 36.4766 18.3932 34.5133 23.6632C34.3066 24.1799 35.3399 25.1099 35.8566 24.5932C37.7166 22.6299 39.9899 21.8032 42.2633 21.8032C44.5366 21.8032 46.8099 22.6299 48.6699 24.5932C49.1866 25.1099 50.2199 24.1799 50.0133 23.6632ZM47.6366 32.0332C43.1933 38.3365 37.8199 39.8865 30.9999 39.8865C24.1799 39.8865 18.8066 38.3365 14.3633 32.0332C13.7433 31.2065 12.0899 31.7232 12.5033 32.9632C14.8799 41.2299 22.8366 46.0865 31.1033 46.0865C39.3699 46.0865 47.3266 41.2299 49.7033 32.9632C49.9099 31.7232 48.2566 31.2065 47.6366 32.0332Z" fill="#664E27"/>
</g>
</svg>
