<svg width="260" height="260" viewBox="0 0 260 260" fill="none" xmlns="http://www.w3.org/2000/svg">
<path d="M170.466 24.1176C170.466 24.1176 132.272 12.8752 94.5464 35.62C56.8204 58.3648 37.6116 100.792 21.112 134.826C4.61241 168.86 13.7592 202.207 42.3384 216.211C70.9176 230.214 90.5788 206.534 130.827 203.45C171.075 200.366 181.86 205.379 215.394 181.818C248.929 158.257 255.32 106.179 229.221 69.16C203.122 32.1412 170.466 24.1176 170.466 24.1176Z" fill="#F2B620"/>
<path opacity="0.7" d="M170.466 24.1176C170.466 24.1176 132.272 12.8752 94.5464 35.62C56.8204 58.3648 37.6116 100.792 21.112 134.826C4.61241 168.86 13.7592 202.207 42.3384 216.211C70.9176 230.214 90.5788 206.534 130.827 203.45C171.075 200.366 181.86 205.379 215.394 181.818C248.929 158.257 255.32 106.179 229.221 69.16C203.122 32.1412 170.466 24.1176 170.466 24.1176Z" fill="white"/>
<path d="M23.894 209.404H239.158" stroke="#263238" stroke-linecap="round" stroke-linejoin="round"/>
<path d="M23.894 214.339H239.158" stroke="#263238" stroke-linecap="round" stroke-linejoin="round"/>
<path d="M39.2444 126.677H26.8996C25.7135 126.677 24.752 127.639 24.752 128.825V141.17C24.752 142.356 25.7135 143.317 26.8996 143.317H39.2444C40.4305 143.317 41.392 142.356 41.392 141.17V128.825C41.392 127.639 40.4305 126.677 39.2444 126.677Z" stroke="#263238" stroke-linecap="round" stroke-linejoin="round"/>
<path d="M57.2936 126.677H44.9488C43.7627 126.677 42.8012 127.639 42.8012 128.825V141.17C42.8012 142.356 43.7627 143.317 44.9488 143.317H57.2936C58.4797 143.317 59.4412 142.356 59.4412 141.17V128.825C59.4412 127.639 58.4797 126.677 57.2936 126.677Z" stroke="#263238" stroke-linecap="round" stroke-linejoin="round"/>
<path d="M75.3428 126.677H62.998C61.8119 126.677 60.8504 127.639 60.8504 128.825V141.17C60.8504 142.356 61.8119 143.317 62.998 143.317H75.3428C76.5289 143.317 77.4904 142.356 77.4904 141.17V128.825C77.4904 127.639 76.5289 126.677 75.3428 126.677Z" stroke="#263238" stroke-linecap="round" stroke-linejoin="round"/>
<path d="M93.3868 126.677H81.042C79.8559 126.677 78.8944 127.639 78.8944 128.825V141.17C78.8944 142.356 79.8559 143.317 81.042 143.317H93.3868C94.5729 143.317 95.5344 142.356 95.5344 141.17V128.825C95.5344 127.639 94.5729 126.677 93.3868 126.677Z" stroke="#263238" stroke-linecap="round" stroke-linejoin="round"/>
<path d="M111.436 126.677H99.0912C97.9051 126.677 96.9436 127.639 96.9436 128.825V141.17C96.9436 142.356 97.9051 143.317 99.0912 143.317H111.436C112.622 143.317 113.584 142.356 113.584 141.17V128.825C113.584 127.639 112.622 126.677 111.436 126.677Z" stroke="#263238" stroke-linecap="round" stroke-linejoin="round"/>
<path d="M129.485 126.677H117.14C115.954 126.677 114.993 127.639 114.993 128.825V141.17C114.993 142.356 115.954 143.317 117.14 143.317H129.485C130.671 143.317 131.633 142.356 131.633 141.17V128.825C131.633 127.639 130.671 126.677 129.485 126.677Z" stroke="#263238" stroke-linecap="round" stroke-linejoin="round"/>
<path d="M147.529 126.677H135.184C133.998 126.677 133.037 127.639 133.037 128.825V141.17C133.037 142.356 133.998 143.317 135.184 143.317H147.529C148.715 143.317 149.677 142.356 149.677 141.17V128.825C149.677 127.639 148.715 126.677 147.529 126.677Z" stroke="#263238" stroke-linecap="round" stroke-linejoin="round"/>
<path d="M165.578 126.677H153.234C152.048 126.677 151.086 127.639 151.086 128.825V141.17C151.086 142.356 152.048 143.317 153.234 143.317H165.578C166.764 143.317 167.726 142.356 167.726 141.17V128.825C167.726 127.639 166.764 126.677 165.578 126.677Z" stroke="#263238" stroke-linecap="round" stroke-linejoin="round"/>
<path d="M183.628 126.677H171.283C170.097 126.677 169.135 127.639 169.135 128.825V141.17C169.135 142.356 170.097 143.317 171.283 143.317H183.628C184.814 143.317 185.775 142.356 185.775 141.17V128.825C185.775 127.639 184.814 126.677 183.628 126.677Z" stroke="#263238" stroke-linecap="round" stroke-linejoin="round"/>
<path d="M201.672 126.677H189.327C188.141 126.677 187.179 127.639 187.179 128.825V141.17C187.179 142.356 188.141 143.317 189.327 143.317H201.672C202.858 143.317 203.819 142.356 203.819 141.17V128.825C203.819 127.639 202.858 126.677 201.672 126.677Z" stroke="#263238" stroke-linecap="round" stroke-linejoin="round"/>
<path d="M219.721 126.677H207.376C206.19 126.677 205.228 127.639 205.228 128.825V141.17C205.228 142.356 206.19 143.317 207.376 143.317H219.721C220.907 143.317 221.868 142.356 221.868 141.17V128.825C221.868 127.639 220.907 126.677 219.721 126.677Z" stroke="#263238" stroke-linecap="round" stroke-linejoin="round"/>
<path d="M237.77 126.677H225.425C224.239 126.677 223.278 127.639 223.278 128.825V141.17C223.278 142.356 224.239 143.317 225.425 143.317H237.77C238.956 143.317 239.918 142.356 239.918 141.17V128.825C239.918 127.639 238.956 126.677 237.77 126.677Z" stroke="#263238" stroke-linecap="round" stroke-linejoin="round"/>
<path d="M39.2444 144.461H26.8996C25.7135 144.461 24.752 145.423 24.752 146.609V158.954C24.752 160.14 25.7135 161.101 26.8996 161.101H39.2444C40.4305 161.101 41.392 160.14 41.392 158.954V146.609C41.392 145.423 40.4305 144.461 39.2444 144.461Z" stroke="#263238" stroke-linecap="round" stroke-linejoin="round"/>
<path d="M57.2936 144.461H44.9488C43.7627 144.461 42.8012 145.423 42.8012 146.609V158.954C42.8012 160.14 43.7627 161.101 44.9488 161.101H57.2936C58.4797 161.101 59.4412 160.14 59.4412 158.954V146.609C59.4412 145.423 58.4797 144.461 57.2936 144.461Z" stroke="#263238" stroke-linecap="round" stroke-linejoin="round"/>
<path d="M75.3428 144.461H62.998C61.8119 144.461 60.8504 145.423 60.8504 146.609V158.954C60.8504 160.14 61.8119 161.101 62.998 161.101H75.3428C76.5289 161.101 77.4904 160.14 77.4904 158.954V146.609C77.4904 145.423 76.5289 144.461 75.3428 144.461Z" stroke="#263238" stroke-linecap="round" stroke-linejoin="round"/>
<path d="M93.3868 144.461H81.042C79.8559 144.461 78.8944 145.423 78.8944 146.609V158.954C78.8944 160.14 79.8559 161.101 81.042 161.101H93.3868C94.5729 161.101 95.5344 160.14 95.5344 158.954V146.609C95.5344 145.423 94.5729 144.461 93.3868 144.461Z" stroke="#263238" stroke-linecap="round" stroke-linejoin="round"/>
<path d="M111.436 144.461H99.0912C97.9051 144.461 96.9436 145.423 96.9436 146.609V158.954C96.9436 160.14 97.9051 161.101 99.0912 161.101H111.436C112.622 161.101 113.584 160.14 113.584 158.954V146.609C113.584 145.423 112.622 144.461 111.436 144.461Z" stroke="#263238" stroke-linecap="round" stroke-linejoin="round"/>
<path d="M129.485 144.461H117.14C115.954 144.461 114.993 145.423 114.993 146.609V158.954C114.993 160.14 115.954 161.101 117.14 161.101H129.485C130.671 161.101 131.633 160.14 131.633 158.954V146.609C131.633 145.423 130.671 144.461 129.485 144.461Z" stroke="#263238" stroke-linecap="round" stroke-linejoin="round"/>
<path d="M147.529 144.461H135.184C133.998 144.461 133.037 145.423 133.037 146.609V158.954C133.037 160.14 133.998 161.101 135.184 161.101H147.529C148.715 161.101 149.677 160.14 149.677 158.954V146.609C149.677 145.423 148.715 144.461 147.529 144.461Z" stroke="#263238" stroke-linecap="round" stroke-linejoin="round"/>
<path d="M165.578 144.461H153.234C152.048 144.461 151.086 145.423 151.086 146.609V158.954C151.086 160.14 152.048 161.101 153.234 161.101H165.578C166.764 161.101 167.726 160.14 167.726 158.954V146.609C167.726 145.423 166.764 144.461 165.578 144.461Z" stroke="#263238" stroke-linecap="round" stroke-linejoin="round"/>
<path d="M183.628 144.461H171.283C170.097 144.461 169.135 145.423 169.135 146.609V158.954C169.135 160.14 170.097 161.101 171.283 161.101H183.628C184.814 161.101 185.775 160.14 185.775 158.954V146.609C185.775 145.423 184.814 144.461 183.628 144.461Z" stroke="#263238" stroke-linecap="round" stroke-linejoin="round"/>
<path d="M201.672 144.461H189.327C188.141 144.461 187.179 145.423 187.179 146.609V158.954C187.179 160.14 188.141 161.101 189.327 161.101H201.672C202.858 161.101 203.819 160.14 203.819 158.954V146.609C203.819 145.423 202.858 144.461 201.672 144.461Z" stroke="#263238" stroke-linecap="round" stroke-linejoin="round"/>
<path d="M219.721 144.461H207.376C206.19 144.461 205.228 145.423 205.228 146.609V158.954C205.228 160.14 206.19 161.101 207.376 161.101H219.721C220.907 161.101 221.868 160.14 221.868 158.954V146.609C221.868 145.423 220.907 144.461 219.721 144.461Z" stroke="#263238" stroke-linecap="round" stroke-linejoin="round"/>
<path d="M237.77 144.461H225.425C224.239 144.461 223.278 145.423 223.278 146.609V158.954C223.278 160.14 224.239 161.101 225.425 161.101H237.77C238.956 161.101 239.918 160.14 239.918 158.954V146.609C239.918 145.423 238.956 144.461 237.77 144.461Z" stroke="#263238" stroke-linecap="round" stroke-linejoin="round"/>
<path d="M39.2444 162.245H26.8996C25.7135 162.245 24.752 163.207 24.752 164.393V176.738C24.752 177.924 25.7135 178.885 26.8996 178.885H39.2444C40.4305 178.885 41.392 177.924 41.392 176.738V164.393C41.392 163.207 40.4305 162.245 39.2444 162.245Z" stroke="#263238" stroke-linecap="round" stroke-linejoin="round"/>
<path d="M57.2936 162.245H44.9488C43.7627 162.245 42.8012 163.207 42.8012 164.393V176.738C42.8012 177.924 43.7627 178.885 44.9488 178.885H57.2936C58.4797 178.885 59.4412 177.924 59.4412 176.738V164.393C59.4412 163.207 58.4797 162.245 57.2936 162.245Z" stroke="#263238" stroke-linecap="round" stroke-linejoin="round"/>
<path d="M75.3428 162.245H62.998C61.8119 162.245 60.8504 163.207 60.8504 164.393V176.738C60.8504 177.924 61.8119 178.885 62.998 178.885H75.3428C76.5289 178.885 77.4904 177.924 77.4904 176.738V164.393C77.4904 163.207 76.5289 162.245 75.3428 162.245Z" stroke="#263238" stroke-linecap="round" stroke-linejoin="round"/>
<path d="M93.3868 162.245H81.042C79.8559 162.245 78.8944 163.207 78.8944 164.393V176.738C78.8944 177.924 79.8559 178.885 81.042 178.885H93.3868C94.5729 178.885 95.5344 177.924 95.5344 176.738V164.393C95.5344 163.207 94.5729 162.245 93.3868 162.245Z" stroke="#263238" stroke-linecap="round" stroke-linejoin="round"/>
<path d="M111.436 162.245H99.0912C97.9051 162.245 96.9436 163.207 96.9436 164.393V176.738C96.9436 177.924 97.9051 178.885 99.0912 178.885H111.436C112.622 178.885 113.584 177.924 113.584 176.738V164.393C113.584 163.207 112.622 162.245 111.436 162.245Z" stroke="#263238" stroke-linecap="round" stroke-linejoin="round"/>
<path d="M129.485 162.245H117.14C115.954 162.245 114.993 163.207 114.993 164.393V176.738C114.993 177.924 115.954 178.885 117.14 178.885H129.485C130.671 178.885 131.633 177.924 131.633 176.738V164.393C131.633 163.207 130.671 162.245 129.485 162.245Z" stroke="#263238" stroke-linecap="round" stroke-linejoin="round"/>
<path d="M147.529 162.245H135.184C133.998 162.245 133.037 163.207 133.037 164.393V176.738C133.037 177.924 133.998 178.885 135.184 178.885H147.529C148.715 178.885 149.677 177.924 149.677 176.738V164.393C149.677 163.207 148.715 162.245 147.529 162.245Z" stroke="#263238" stroke-linecap="round" stroke-linejoin="round"/>
<path d="M165.578 162.245H153.234C152.048 162.245 151.086 163.207 151.086 164.393V176.738C151.086 177.924 152.048 178.885 153.234 178.885H165.578C166.764 178.885 167.726 177.924 167.726 176.738V164.393C167.726 163.207 166.764 162.245 165.578 162.245Z" stroke="#263238" stroke-linecap="round" stroke-linejoin="round"/>
<path d="M183.628 162.245H171.283C170.097 162.245 169.135 163.207 169.135 164.393V176.738C169.135 177.924 170.097 178.885 171.283 178.885H183.628C184.814 178.885 185.775 177.924 185.775 176.738V164.393C185.775 163.207 184.814 162.245 183.628 162.245Z" stroke="#263238" stroke-linecap="round" stroke-linejoin="round"/>
<path d="M201.672 162.245H189.327C188.141 162.245 187.179 163.207 187.179 164.393V176.738C187.179 177.924 188.141 178.885 189.327 178.885H201.672C202.858 178.885 203.819 177.924 203.819 176.738V164.393C203.819 163.207 202.858 162.245 201.672 162.245Z" stroke="#263238" stroke-linecap="round" stroke-linejoin="round"/>
<path d="M219.721 162.245H207.376C206.19 162.245 205.228 163.207 205.228 164.393V176.738C205.228 177.924 206.19 178.885 207.376 178.885H219.721C220.907 178.885 221.868 177.924 221.868 176.738V164.393C221.868 163.207 220.907 162.245 219.721 162.245Z" stroke="#263238" stroke-linecap="round" stroke-linejoin="round"/>
<path d="M237.77 162.245H225.425C224.239 162.245 223.278 163.207 223.278 164.393V176.738C223.278 177.924 224.239 178.885 225.425 178.885H237.77C238.956 178.885 239.918 177.924 239.918 176.738V164.393C239.918 163.207 238.956 162.245 237.77 162.245Z" stroke="#263238" stroke-linecap="round" stroke-linejoin="round"/>
<path d="M39.2444 180.029H26.8996C25.7135 180.029 24.752 180.991 24.752 182.177V194.522C24.752 195.708 25.7135 196.669 26.8996 196.669H39.2444C40.4305 196.669 41.392 195.708 41.392 194.522V182.177C41.392 180.991 40.4305 180.029 39.2444 180.029Z" stroke="#263238" stroke-linecap="round" stroke-linejoin="round"/>
<path d="M57.2936 180.029H44.9488C43.7627 180.029 42.8012 180.991 42.8012 182.177V194.522C42.8012 195.708 43.7627 196.669 44.9488 196.669H57.2936C58.4797 196.669 59.4412 195.708 59.4412 194.522V182.177C59.4412 180.991 58.4797 180.029 57.2936 180.029Z" stroke="#263238" stroke-linecap="round" stroke-linejoin="round"/>
<path d="M75.3428 180.029H62.998C61.8119 180.029 60.8504 180.991 60.8504 182.177V194.522C60.8504 195.708 61.8119 196.669 62.998 196.669H75.3428C76.5289 196.669 77.4904 195.708 77.4904 194.522V182.177C77.4904 180.991 76.5289 180.029 75.3428 180.029Z" stroke="#263238" stroke-linecap="round" stroke-linejoin="round"/>
<path d="M93.3868 180.029H81.042C79.8559 180.029 78.8944 180.991 78.8944 182.177V194.522C78.8944 195.708 79.8559 196.669 81.042 196.669H93.3868C94.5729 196.669 95.5344 195.708 95.5344 194.522V182.177C95.5344 180.991 94.5729 180.029 93.3868 180.029Z" stroke="#263238" stroke-linecap="round" stroke-linejoin="round"/>
<path d="M111.436 180.029H99.0912C97.9051 180.029 96.9436 180.991 96.9436 182.177V194.522C96.9436 195.708 97.9051 196.669 99.0912 196.669H111.436C112.622 196.669 113.584 195.708 113.584 194.522V182.177C113.584 180.991 112.622 180.029 111.436 180.029Z" stroke="#263238" stroke-linecap="round" stroke-linejoin="round"/>
<path d="M129.485 180.029H117.14C115.954 180.029 114.993 180.991 114.993 182.177V194.522C114.993 195.708 115.954 196.669 117.14 196.669H129.485C130.671 196.669 131.633 195.708 131.633 194.522V182.177C131.633 180.991 130.671 180.029 129.485 180.029Z" stroke="#263238" stroke-linecap="round" stroke-linejoin="round"/>
<path d="M147.529 180.029H135.184C133.998 180.029 133.037 180.991 133.037 182.177V194.522C133.037 195.708 133.998 196.669 135.184 196.669H147.529C148.715 196.669 149.677 195.708 149.677 194.522V182.177C149.677 180.991 148.715 180.029 147.529 180.029Z" stroke="#263238" stroke-linecap="round" stroke-linejoin="round"/>
<path d="M165.578 180.029H153.234C152.048 180.029 151.086 180.991 151.086 182.177V194.522C151.086 195.708 152.048 196.669 153.234 196.669H165.578C166.764 196.669 167.726 195.708 167.726 194.522V182.177C167.726 180.991 166.764 180.029 165.578 180.029Z" stroke="#263238" stroke-linecap="round" stroke-linejoin="round"/>
<path d="M183.628 180.029H171.283C170.097 180.029 169.135 180.991 169.135 182.177V194.522C169.135 195.708 170.097 196.669 171.283 196.669H183.628C184.814 196.669 185.775 195.708 185.775 194.522V182.177C185.775 180.991 184.814 180.029 183.628 180.029Z" stroke="#263238" stroke-linecap="round" stroke-linejoin="round"/>
<path d="M201.672 180.029H189.327C188.141 180.029 187.179 180.991 187.179 182.177V194.522C187.179 195.708 188.141 196.669 189.327 196.669H201.672C202.858 196.669 203.819 195.708 203.819 194.522V182.177C203.819 180.991 202.858 180.029 201.672 180.029Z" stroke="#263238" stroke-linecap="round" stroke-linejoin="round"/>
<path d="M219.721 180.029H207.376C206.19 180.029 205.228 180.991 205.228 182.177V194.522C205.228 195.708 206.19 196.669 207.376 196.669H219.721C220.907 196.669 221.868 195.708 221.868 194.522V182.177C221.868 180.991 220.907 180.029 219.721 180.029Z" stroke="#263238" stroke-linecap="round" stroke-linejoin="round"/>
<path d="M237.77 180.029H225.425C224.239 180.029 223.278 180.991 223.278 182.177V194.522C223.278 195.708 224.239 196.669 225.425 196.669H237.77C238.956 196.669 239.918 195.708 239.918 194.522V182.177C239.918 180.991 238.956 180.029 237.77 180.029Z" stroke="#263238" stroke-linecap="round" stroke-linejoin="round"/>
<path d="M62.062 119.038V38.7972" stroke="#263238" stroke-linecap="round" stroke-linejoin="round"/>
<path d="M67.3868 96.9644H64.532V113.584H67.3868V96.9644Z" fill="#263238" stroke="#263238" stroke-linecap="round" stroke-linejoin="round"/>
<path d="M59.5972 96.9644H56.7424V113.584H59.5972V96.9644Z" fill="#263238" stroke="#263238" stroke-linecap="round" stroke-linejoin="round"/>
<path d="M23.894 119.038H239.158" stroke="#263238" stroke-width="2" stroke-linecap="round" stroke-linejoin="round"/>
<path d="M190.341 119.038V38.7972" stroke="#263238" stroke-linecap="round" stroke-linejoin="round"/>
<path d="M188.521 96.9644H185.666V113.584H188.521V96.9644Z" fill="#263238" stroke="#263238" stroke-linecap="round" stroke-linejoin="round"/>
<path d="M195.406 96.9644H192.551V113.584H195.406V96.9644Z" fill="#263238" stroke="#263238" stroke-linecap="round" stroke-linejoin="round"/>
<path d="M64.9688 186.956H71.3596C71.9237 186.956 72.4646 187.18 72.8635 187.578C73.2623 187.977 73.4864 188.518 73.4864 189.082V209.144H62.842V189.082C62.842 188.518 63.0661 187.977 63.4649 187.578C63.8638 187.18 64.4047 186.956 64.9688 186.956Z" fill="white" stroke="#263238" stroke-linecap="round" stroke-linejoin="round"/>
<path d="M64.9688 186.956H71.3596C71.9237 186.956 72.4646 187.18 72.8635 187.578C73.2623 187.977 73.4864 188.518 73.4864 189.082V192.754H62.842V189.082C62.842 188.518 63.0661 187.977 63.4649 187.578C63.8638 187.18 64.4047 186.956 64.9688 186.956Z" fill="white" stroke="#263238" stroke-linecap="round" stroke-linejoin="round"/>
<path d="M65.078 193.586V206.976" stroke="#263238" stroke-linecap="round" stroke-linejoin="round"/>
<path d="M68.4528 193.586V206.976" stroke="#263238" stroke-linecap="round" stroke-linejoin="round"/>
<path d="M235.976 180.58H185.219C184.32 180.58 183.591 181.309 183.591 182.208V207.776C183.591 208.675 184.32 209.404 185.219 209.404H235.976C236.875 209.404 237.604 208.675 237.604 207.776V182.208C237.604 181.309 236.875 180.58 235.976 180.58Z" fill="white" stroke="#263238" stroke-linecap="round" stroke-linejoin="round"/>
<path d="M235.524 182.395H224.359V188.37H235.524V182.395Z" fill="#696969" stroke="#263238" stroke-linecap="round" stroke-linejoin="round"/>
<path d="M226.907 193.96C226.907 194.243 226.823 194.519 226.666 194.755C226.509 194.99 226.286 195.173 226.024 195.281C225.763 195.389 225.476 195.418 225.198 195.363C224.921 195.307 224.666 195.171 224.466 194.971C224.266 194.771 224.13 194.516 224.075 194.239C224.02 193.962 224.048 193.674 224.156 193.413C224.264 193.151 224.448 192.928 224.683 192.771C224.918 192.614 225.194 192.53 225.477 192.53C225.856 192.53 226.22 192.681 226.488 192.949C226.757 193.217 226.907 193.581 226.907 193.96Z" fill="white" stroke="#263238" stroke-linecap="round" stroke-linejoin="round"/>
<path d="M230.022 195.385C230.812 195.385 231.452 194.745 231.452 193.955C231.452 193.165 230.812 192.525 230.022 192.525C229.232 192.525 228.592 193.165 228.592 193.955C228.592 194.745 229.232 195.385 230.022 195.385Z" fill="white" stroke="#263238" stroke-linecap="round" stroke-linejoin="round"/>
<path d="M234.567 195.385C235.357 195.385 235.997 194.745 235.997 193.955C235.997 193.165 235.357 192.525 234.567 192.525C233.777 192.525 233.137 193.165 233.137 193.955C233.137 194.745 233.777 195.385 234.567 195.385Z" fill="white" stroke="#263238" stroke-linecap="round" stroke-linejoin="round"/>
<path d="M226.907 199.404C226.908 199.687 226.825 199.964 226.669 200.2C226.512 200.436 226.289 200.62 226.028 200.729C225.767 200.838 225.479 200.867 225.201 200.813C224.924 200.758 224.668 200.622 224.468 200.423C224.267 200.223 224.131 199.968 224.075 199.69C224.019 199.413 224.047 199.125 224.156 198.864C224.264 198.602 224.447 198.378 224.682 198.221C224.917 198.064 225.194 197.98 225.477 197.98C225.856 197.98 226.218 198.13 226.487 198.397C226.755 198.664 226.906 199.026 226.907 199.404Z" fill="white" stroke="#263238" stroke-linecap="round" stroke-linejoin="round"/>
<path d="M231.447 199.404C231.448 199.688 231.365 199.965 231.208 200.201C231.051 200.437 230.828 200.621 230.566 200.73C230.305 200.839 230.017 200.867 229.739 200.812C229.461 200.757 229.206 200.621 229.006 200.421C228.805 200.22 228.669 199.965 228.614 199.687C228.559 199.409 228.588 199.121 228.697 198.86C228.806 198.598 228.99 198.375 229.226 198.218C229.462 198.062 229.739 197.979 230.022 197.98C230.399 197.981 230.761 198.132 231.028 198.398C231.295 198.665 231.445 199.027 231.447 199.404Z" fill="white" stroke="#263238" stroke-linecap="round" stroke-linejoin="round"/>
<path d="M235.992 199.404C235.993 199.688 235.909 199.965 235.753 200.201C235.596 200.437 235.373 200.621 235.111 200.73C234.85 200.839 234.562 200.867 234.284 200.812C234.006 200.757 233.751 200.621 233.55 200.421C233.35 200.22 233.214 199.965 233.159 199.687C233.104 199.409 233.133 199.121 233.241 198.86C233.35 198.598 233.534 198.375 233.77 198.218C234.006 198.062 234.284 197.979 234.567 197.98C234.944 197.981 235.306 198.132 235.573 198.398C235.84 198.665 235.99 199.027 235.992 199.404Z" fill="white" stroke="#263238" stroke-linecap="round" stroke-linejoin="round"/>
<path d="M226.907 204.88C226.907 205.163 226.823 205.439 226.666 205.674C226.509 205.91 226.286 206.093 226.024 206.201C225.763 206.309 225.476 206.338 225.198 206.283C224.921 206.227 224.666 206.091 224.466 205.891C224.266 205.691 224.13 205.436 224.075 205.159C224.02 204.882 224.048 204.594 224.156 204.333C224.264 204.071 224.448 203.848 224.683 203.691C224.918 203.534 225.194 203.45 225.477 203.45C225.856 203.45 226.22 203.601 226.488 203.869C226.757 204.137 226.907 204.501 226.907 204.88Z" fill="white" stroke="#263238" stroke-linecap="round" stroke-linejoin="round"/>
<path d="M231.447 204.88C231.447 205.163 231.363 205.44 231.205 205.675C231.048 205.91 230.824 206.094 230.563 206.202C230.301 206.31 230.013 206.338 229.736 206.282C229.458 206.227 229.204 206.09 229.004 205.889C228.804 205.689 228.668 205.434 228.614 205.156C228.559 204.878 228.588 204.59 228.697 204.329C228.806 204.068 228.99 203.845 229.226 203.688C229.462 203.532 229.739 203.449 230.022 203.45C230.4 203.451 230.763 203.603 231.03 203.871C231.297 204.139 231.447 204.502 231.447 204.88Z" fill="white" stroke="#263238" stroke-linecap="round" stroke-linejoin="round"/>
<path d="M235.992 204.88C235.992 205.163 235.908 205.44 235.75 205.675C235.593 205.91 235.369 206.094 235.108 206.202C234.846 206.31 234.558 206.338 234.281 206.282C234.003 206.227 233.748 206.09 233.549 205.889C233.349 205.689 233.213 205.434 233.158 205.156C233.104 204.878 233.133 204.59 233.242 204.329C233.351 204.068 233.535 203.845 233.771 203.688C234.007 203.532 234.284 203.449 234.567 203.45C234.945 203.451 235.308 203.603 235.575 203.871C235.842 204.139 235.992 204.502 235.992 204.88Z" fill="white" stroke="#263238" stroke-linecap="round" stroke-linejoin="round"/>
<path d="M219.96 194.73C219.96 201.687 219.44 207.324 218.79 207.324C218.14 207.324 217.625 201.687 217.625 194.73C217.625 187.772 218.145 182.135 218.79 182.135C219.435 182.135 219.96 187.777 219.96 194.73Z" fill="#696969" stroke="#263238" stroke-linecap="round" stroke-linejoin="round"/>
<path d="M213.028 183.232C212.274 183.196 211.51 183.175 210.74 183.175C197.324 183.175 186.451 188.526 186.451 195.135C186.451 201.744 197.324 207.095 210.74 207.095C211.51 207.095 212.3 207.095 213.028 207.043V183.232Z" fill="#696969" stroke="#263238" stroke-linecap="round" stroke-linejoin="round"/>
<path d="M49.3428 183.435H36.8784V187.33H49.3428V183.435Z" fill="#263238" stroke="#263238" stroke-linecap="round" stroke-linejoin="round"/>
<path d="M32.422 186.29H54.054L58.6872 204.064H27.7888L32.422 186.29Z" fill="white" stroke="#263238" stroke-linecap="round" stroke-linejoin="round"/>
<path d="M58.6872 203.928H27.7888V209.399H58.6872V203.928Z" fill="#263238" stroke="#263238" stroke-linecap="round" stroke-linejoin="round"/>
<path d="M54.158 186.68L54.054 186.274H32.422L32.318 186.68C33.878 193.7 38.1784 198.739 43.238 198.739C48.2976 198.739 52.5928 193.716 54.158 186.68Z" fill="#696969" stroke="#263238" stroke-linecap="round" stroke-linejoin="round"/>
<path d="M37.9184 199.274H36.0984V202.649H37.9184V199.274Z" fill="white" stroke="#263238" stroke-linecap="round" stroke-linejoin="round"/>
<path d="M42.0732 199.274H40.2532V202.649H42.0732V199.274Z" fill="white" stroke="#263238" stroke-linecap="round" stroke-linejoin="round"/>
<path d="M46.228 199.274H44.408V202.649H46.228V199.274Z" fill="white" stroke="#263238" stroke-linecap="round" stroke-linejoin="round"/>
<path d="M50.3828 199.274H48.5628V202.649H50.3828V199.274Z" fill="white" stroke="#263238" stroke-linecap="round" stroke-linejoin="round"/>
<path d="M113.36 49.972C113.36 49.972 102.216 53.742 99.5488 60.4916C96.8812 67.2412 103.631 71.6352 105.513 72.7324C107.396 73.8296 108.81 79.4924 107.24 86.6996C105.669 93.9068 100.963 96.5796 97.6664 96.278C94.3696 95.9764 93.7404 95.6488 93.7404 95.6488C93.7404 95.6488 94.2136 104.125 102.534 107.89C110.854 111.654 114.478 110.24 114.478 110.24C114.478 110.24 128.757 114.634 135.98 113.36C143.203 112.086 146.64 109.933 146.64 109.933C146.64 109.933 150.566 111.66 156.218 108.675C161.871 105.69 163.909 101.14 163.909 101.14C163.909 101.14 155.745 100.984 157.628 92.508C159.51 84.032 159.983 67.7092 150.868 57.8188C141.752 47.9284 124.363 42.7544 113.36 49.972Z" fill="#263238"/>
<mask id="mask0_30_27217" style="mask-type:luminance" maskUnits="userSpaceOnUse" x="93" y="46" width="71" height="68">
<path d="M113.36 49.972C113.36 49.972 102.216 53.742 99.5488 60.4916C96.8812 67.2412 103.631 71.6352 105.513 72.7324C107.396 73.8296 108.81 79.4924 107.24 86.6996C105.669 93.9068 100.963 96.5796 97.6664 96.278C94.3696 95.9764 93.7404 95.6488 93.7404 95.6488C93.7404 95.6488 94.2136 104.125 102.534 107.89C110.854 111.654 114.478 110.24 114.478 110.24C114.478 110.24 128.757 114.634 135.98 113.36C143.203 112.086 146.64 109.933 146.64 109.933C146.64 109.933 150.566 111.66 156.218 108.675C161.871 105.69 163.909 101.14 163.909 101.14C163.909 101.14 155.745 100.984 157.628 92.508C159.51 84.032 159.983 67.7092 150.868 57.8188C141.752 47.9284 124.363 42.7544 113.36 49.972Z" fill="white"/>
</mask>
<g mask="url(#mask0_30_27217)">
<path d="M124.649 53.9136C124.649 53.9136 129.329 70.096 139.209 75.4884C149.089 80.8808 155.849 87.4484 155.849 93.3088C155.849 99.1692 156.083 108.087 166.868 104.333" stroke="#6E6E6E" stroke-linecap="round" stroke-linejoin="round"/>
<path d="M127.696 50.3932C127.696 50.3932 140.832 54.3816 147.394 63.9964C153.956 73.6112 151.84 78.3016 154.44 83.72C157.04 89.1384 160.774 89.1176 160.774 89.1176" stroke="#6E6E6E" stroke-linecap="round" stroke-linejoin="round"/>
<path d="M126.292 52.0364C126.292 52.0364 137.545 57.6628 141.768 66.1076" stroke="#6E6E6E" stroke-linecap="round" stroke-linejoin="round"/>
<path d="M120.64 57.6628C120.64 57.6628 119.704 50.1592 127.442 49.2232" stroke="#6E6E6E" stroke-linecap="round" stroke-linejoin="round"/>
<path d="M105.186 70.564C105.186 70.564 97.682 67.0436 101.899 61.4172C106.116 55.7908 119.018 56.2588 119.018 56.2588" stroke="#6E6E6E" stroke-linecap="round" stroke-linejoin="round"/>
<path d="M117.614 61.1832C117.614 61.1832 104.952 65.1716 104.718 66.1076C104.484 67.0436 106.122 67.0436 106.122 67.0436" stroke="#6E6E6E" stroke-linecap="round" stroke-linejoin="round"/>
<path d="M122.304 51.5684C122.304 51.5684 120.661 49.4572 113.625 50.8664" stroke="#6E6E6E" stroke-linecap="round" stroke-linejoin="round"/>
<path d="M94.64 103.631C94.64 103.631 106.834 106.231 111.758 91.4368" stroke="#6E6E6E" stroke-linecap="round" stroke-linejoin="round"/>
<path d="M103.542 109.72C103.542 109.72 112.689 109.72 115.034 99.8712" stroke="#6E6E6E" stroke-linecap="round" stroke-linejoin="round"/>
<path d="M144.347 93.782C144.347 93.782 142.704 111.134 153.707 113.022" stroke="#6E6E6E" stroke-linecap="round" stroke-linejoin="round"/>
</g>
<path d="M113.36 49.972C113.36 49.972 102.216 53.742 99.5488 60.4916C96.8812 67.2412 103.631 71.6352 105.513 72.7324C107.396 73.8296 108.81 79.4924 107.24 86.6996C105.669 93.9068 100.963 96.5796 97.6664 96.278C94.3696 95.9764 93.7404 95.6488 93.7404 95.6488C93.7404 95.6488 94.2136 104.125 102.534 107.89C110.854 111.654 114.478 110.24 114.478 110.24C114.478 110.24 128.757 114.634 135.98 113.36C143.203 112.086 146.64 109.933 146.64 109.933C146.64 109.933 150.566 111.66 156.218 108.675C161.871 105.69 163.909 101.14 163.909 101.14C163.909 101.14 155.745 100.984 157.628 92.508C159.51 84.032 159.983 67.7092 150.868 57.8188C141.752 47.9284 124.363 42.7544 113.36 49.972Z" stroke="#263238" stroke-linecap="round" stroke-linejoin="round"/>
<path d="M105.066 120.286C105.066 120.286 97.0892 119.621 93.106 124.108C89.1228 128.596 70.0024 159.011 65.6812 165.188C61.36 171.366 61.36 182.307 69.3212 183.804C77.2824 185.302 84.9212 176.327 88.27 172.167C89.9565 169.995 91.7894 167.942 93.756 166.02C93.756 166.02 92.2584 159.702 96.746 149.562C101.234 139.422 104.395 131.446 105.888 127.124C107.38 122.803 105.066 120.286 105.066 120.286Z" fill="white"/>
<mask id="mask1_30_27217" style="mask-type:luminance" maskUnits="userSpaceOnUse" x="62" y="120" width="45" height="64">
<path d="M105.066 120.286C105.066 120.286 97.0892 119.621 93.106 124.108C89.1228 128.596 70.0024 159.011 65.6812 165.188C61.36 171.366 61.36 182.307 69.3212 183.804C77.2824 185.302 84.9212 176.327 88.27 172.167C89.9565 169.995 91.7894 167.942 93.756 166.02C93.756 166.02 92.2584 159.702 96.746 149.562C101.234 139.422 104.395 131.446 105.888 127.124C107.38 122.803 105.066 120.286 105.066 120.286Z" fill="white"/>
</mask>
<g mask="url(#mask1_30_27217)">
<path opacity="0.1" d="M98.8 144.846L101.176 128.726C101.176 128.726 83.3664 162.672 78.3276 169.728C75.2908 173.976 70.3144 179.561 68.7336 183.628C68.926 183.68 69.1236 183.732 69.3264 183.768C77.3084 185.266 84.9264 176.29 88.2752 172.13C89.9617 169.959 91.7946 167.905 93.7612 165.984C93.7612 165.984 92.2636 159.666 96.7512 149.526C97.4723 147.911 98.1552 146.351 98.8 144.846Z" fill="black"/>
</g>
<path d="M105.066 120.286C105.066 120.286 97.0892 119.621 93.106 124.108C89.1228 128.596 70.0024 159.011 65.6812 165.188C61.36 171.366 61.36 182.307 69.3212 183.804C77.2824 185.302 84.9212 176.327 88.27 172.167C89.9565 169.995 91.7894 167.942 93.756 166.02C93.756 166.02 92.2584 159.702 96.746 149.562C101.234 139.422 104.395 131.446 105.888 127.124C107.38 122.803 105.066 120.286 105.066 120.286Z" stroke="#263238" stroke-linecap="round" stroke-linejoin="round"/>
<path d="M116.371 102.336C116.371 102.336 117.369 107.489 116.038 112.476C114.707 117.463 115.206 117.463 111.878 118.789C109.691 119.62 107.394 120.125 105.061 120.286C105.061 120.286 98.9144 136.406 94.2604 144.056C89.6064 151.705 88.2752 160.176 90.1004 164.497C91.2827 167.207 92.8598 169.727 94.7804 171.974C94.7804 171.974 97.4376 181.449 95.94 187.574C94.4424 193.7 90.792 202.535 89.2944 215.831C87.7968 229.128 88.6288 244.249 88.6288 244.249H175.874C175.874 244.249 175.708 227.464 173.878 213.668C172.047 199.872 169.889 198.739 166.92 190.424C163.951 182.109 163.592 181.782 163.592 175.968C163.592 170.154 165.256 154.523 164.757 144.056C164.258 133.588 161.767 125.44 157.446 122.444C153.124 119.449 142.818 118.284 138.996 115.632C135.174 112.98 137.498 96.018 137.498 96.018C137.498 96.018 131.019 100.178 125.7 101.67C122.677 102.577 119.491 102.804 116.371 102.336Z" fill="white"/>
<mask id="mask2_30_27217" style="mask-type:luminance" maskUnits="userSpaceOnUse" x="88" y="96" width="88" height="149">
<path d="M116.371 102.336C116.371 102.336 117.369 107.489 116.038 112.476C114.707 117.463 115.206 117.463 111.878 118.789C109.691 119.62 107.394 120.125 105.061 120.286C105.061 120.286 98.9144 136.406 94.2604 144.056C89.6064 151.705 88.2752 160.176 90.1004 164.497C91.2827 167.207 92.8598 169.727 94.7804 171.974C94.7804 171.974 97.4376 181.449 95.94 187.574C94.4424 193.7 90.792 202.535 89.2944 215.831C87.7968 229.128 88.6288 244.249 88.6288 244.249H175.874C175.874 244.249 175.708 227.464 173.878 213.668C172.047 199.872 169.889 198.739 166.92 190.424C163.951 182.109 163.592 181.782 163.592 175.968C163.592 170.154 165.256 154.523 164.757 144.056C164.258 133.588 161.767 125.44 157.446 122.444C153.124 119.449 142.818 118.284 138.996 115.632C135.174 112.98 137.498 96.018 137.498 96.018C137.498 96.018 131.019 100.178 125.7 101.67C122.677 102.577 119.491 102.804 116.371 102.336Z" fill="white"/>
</mask>
<g mask="url(#mask2_30_27217)">
<path opacity="0.1" d="M132.08 117C137.706 120.214 145.683 121.711 153.629 120.64C148.689 118.846 141.898 117.686 138.954 115.638C135.132 112.98 137.457 96.0232 137.457 96.0232C134.567 97.84 131.532 99.4157 128.383 100.734L128.716 105.555C128.716 105.555 125.044 112.944 132.08 117Z" fill="black"/>
<path opacity="0.1" d="M155.288 149.573C155.288 149.573 153.608 162.006 156.629 164.362C159.65 166.717 161.335 165.703 161.335 157.976C161.335 150.249 155.958 147.893 155.288 149.573Z" fill="black"/>
</g>
<path d="M116.371 102.336C116.371 102.336 117.369 107.489 116.038 112.476C114.707 117.463 115.206 117.463 111.878 118.789C109.691 119.62 107.394 120.125 105.061 120.286C105.061 120.286 98.9144 136.406 94.2604 144.056C89.6064 151.705 88.2752 160.176 90.1004 164.497C91.2827 167.207 92.8598 169.727 94.7804 171.974C94.7804 171.974 97.4376 181.449 95.94 187.574C94.4424 193.7 90.792 202.535 89.2944 215.831C87.7968 229.128 88.6288 244.249 88.6288 244.249H175.874C175.874 244.249 175.708 227.464 173.878 213.668C172.047 199.872 169.889 198.739 166.92 190.424C163.951 182.109 163.592 181.782 163.592 175.968C163.592 170.154 165.256 154.523 164.757 144.056C164.258 133.588 161.767 125.44 157.446 122.444C153.124 119.449 142.818 118.284 138.996 115.632C135.174 112.98 137.498 96.018 137.498 96.018C137.498 96.018 131.019 100.178 125.7 101.67C122.677 102.577 119.491 102.804 116.371 102.336Z" stroke="#263238" stroke-linecap="round" stroke-linejoin="round"/>
<path d="M116.626 109.075C119.733 110.452 123.251 110.577 126.448 109.424C128.648 108.649 133.957 104.853 136.874 102.695C137.067 99.0236 137.478 96.018 137.478 96.018C137.478 96.018 130.998 100.178 125.679 101.67C122.663 102.574 119.485 102.801 116.371 102.336C116.738 104.563 116.823 106.827 116.626 109.075Z" fill="#263238" stroke="#263238" stroke-linecap="round" stroke-linejoin="round"/>
<path d="M173.878 213.72C173.139 208.156 172.349 204.651 171.47 201.9C136.63 214.313 104.619 208.66 91.078 205.161C90.2836 208.7 89.6829 212.279 89.2788 215.883C87.7812 229.18 88.6132 244.301 88.6132 244.301H175.874C175.874 244.301 175.708 227.49 173.878 213.72Z" fill="#263238" stroke="#263238" stroke-linecap="round" stroke-linejoin="round"/>
<path d="M132.865 242.549C132.865 242.549 140.369 225.597 153.665 218.816" stroke="#6E6E6E" stroke-linecap="round" stroke-linejoin="round"/>
<path d="M130.203 240.126C131.558 234.866 134.224 230.036 137.951 226.086" stroke="#6E6E6E" stroke-linecap="round" stroke-linejoin="round"/>
<path d="M98.722 218.093C98.722 218.093 103.08 227.048 111.311 232.133" stroke="#6E6E6E" stroke-linecap="round" stroke-linejoin="round"/>
<path d="M163.571 175.968C163.571 173.165 163.956 168.095 164.299 162.448C161.117 162.568 156.53 162.178 153.104 159.531C147.285 155.043 144.295 146.401 145.122 137.093C145.694 130.723 147.976 123.339 149.36 119.314C148.075 118.95 146.526 118.56 145.283 118.201C144.56 120.864 143.562 125.185 141.799 130.281C138.809 138.923 133.479 150.223 122.684 150.389C111.888 150.556 103.407 147.212 105.56 137.738C107.12 130.868 109.132 123.131 110.115 119.392C108.466 119.866 106.772 120.166 105.061 120.286C105.061 120.286 98.9144 136.406 94.2604 144.056C89.6064 151.705 88.2752 160.176 90.1004 164.497C91.2827 167.207 92.8598 169.727 94.7804 171.974C94.7804 171.974 97.4376 181.449 95.94 187.574C94.666 192.826 91.8164 200.054 90.0796 210.293C94.588 212.768 104.962 217.053 123.88 217.989C145.356 219.029 166 213.028 173.456 210.548C171.725 199.628 169.676 198.032 166.93 190.398C163.904 182.114 163.571 181.782 163.571 175.968Z" fill="#F2B620"/>
<mask id="mask3_30_27217" style="mask-type:luminance" maskUnits="userSpaceOnUse" x="89" y="118" width="85" height="101">
<path d="M163.571 175.968C163.571 173.165 163.956 168.095 164.299 162.448C161.117 162.568 156.53 162.178 153.104 159.531C147.285 155.043 144.295 146.401 145.122 137.093C145.694 130.723 147.976 123.339 149.36 119.314C148.075 118.95 146.526 118.56 145.283 118.201C144.56 120.864 143.562 125.185 141.799 130.281C138.809 138.923 133.479 150.223 122.684 150.389C111.888 150.556 103.407 147.212 105.56 137.738C107.12 130.868 109.132 123.131 110.115 119.392C108.466 119.866 106.772 120.166 105.061 120.286C105.061 120.286 98.9144 136.406 94.2604 144.056C89.6064 151.705 88.2752 160.176 90.1004 164.497C91.2827 167.207 92.8598 169.727 94.7804 171.974C94.7804 171.974 97.4376 181.449 95.94 187.574C94.666 192.826 91.8164 200.054 90.0796 210.293C94.588 212.768 104.962 217.053 123.88 217.989C145.356 219.029 166 213.028 173.456 210.548C171.725 199.628 169.676 198.032 166.93 190.398C163.904 182.114 163.571 181.782 163.571 175.968Z" fill="white"/>
</mask>
<g mask="url(#mask3_30_27217)">
<path opacity="0.1" d="M143.265 217.272C153.514 216.034 163.616 213.791 173.425 210.574C171.694 199.654 169.645 198.058 166.899 190.424C163.904 182.104 163.571 181.782 163.571 175.968C163.571 173.165 163.956 168.095 164.299 162.448C161.117 162.568 156.53 162.178 153.104 159.531C148.507 155.99 145.688 149.848 145.106 142.844C141.554 149.817 134.472 162.016 126.708 165.901C115.612 171.449 108.68 168.329 99.32 164.512C92.56 161.756 90.48 162.261 90.142 164.59C91.3126 167.271 92.8701 169.766 94.7648 171.995C94.7648 171.995 95.2848 173.945 95.7632 176.639C98.1188 178.542 101.39 180.487 105.908 182.541C117.348 187.741 136.412 190.861 146.468 196.752C156.525 202.644 148.548 208.541 143.692 215.821C143.418 216.256 143.271 216.758 143.265 217.272Z" fill="black"/>
</g>
<path d="M163.571 175.968C163.571 173.165 163.956 168.095 164.299 162.448C161.117 162.568 156.53 162.178 153.104 159.531C147.285 155.043 144.295 146.401 145.122 137.093C145.694 130.723 147.976 123.339 149.36 119.314C148.075 118.95 146.526 118.56 145.283 118.201C144.56 120.864 143.562 125.185 141.799 130.281C138.809 138.923 133.479 150.223 122.684 150.389C111.888 150.556 103.407 147.212 105.56 137.738C107.12 130.868 109.132 123.131 110.115 119.392C108.466 119.866 106.772 120.166 105.061 120.286C105.061 120.286 98.9144 136.406 94.2604 144.056C89.6064 151.705 88.2752 160.176 90.1004 164.497C91.2827 167.207 92.8598 169.727 94.7804 171.974C94.7804 171.974 97.4376 181.449 95.94 187.574C94.666 192.826 91.8164 200.054 90.0796 210.293C94.588 212.768 104.962 217.053 123.88 217.989C145.356 219.029 166 213.028 173.456 210.548C171.725 199.628 169.676 198.032 166.93 190.398C163.904 182.114 163.571 181.782 163.571 175.968Z" stroke="#263238" stroke-linecap="round" stroke-linejoin="round"/>
<path d="M98.1136 173.363C98.1136 173.363 101.644 175.048 107.474 175.048" stroke="#263238" stroke-linecap="round" stroke-linejoin="round"/>
<path d="M73.2056 114.468C73.2056 114.468 72.9092 112.065 72.6856 108.259C72.462 104.452 72.1656 101.452 73.9908 101.052C75.816 100.651 76.492 102.45 76.492 104.556C76.492 106.662 77.4956 111.264 78.572 114.369C79.6484 117.473 80.7768 119.179 79.092 119.98C77.4072 120.78 73.71 117.473 73.2056 114.468Z" fill="white" stroke="#263238" stroke-linecap="round" stroke-linejoin="round"/>
<path d="M108.68 109.361C108.68 109.361 105.456 111.28 105.04 113.968C104.624 116.657 106.142 118.576 110.349 118.076C114.556 117.577 114.353 114.956 114.353 114.956L108.68 109.361Z" fill="#F2B620" stroke="#263238" stroke-linecap="round" stroke-linejoin="round"/>
<path d="M110.718 112.32C110.718 112.32 108.082 113.573 107.328 114.956C106.574 116.34 105.446 117.468 108.082 116.589C110.718 115.71 111.727 112.211 110.718 112.32Z" fill="white" stroke="#263238" stroke-linecap="round" stroke-linejoin="round"/>
<path d="M105.83 114.4C102.742 115.149 101.062 114.213 99.3772 114.587C99.0104 114.672 98.6388 114.735 98.2644 114.774C95.8724 113.948 93.9068 112.554 91.7956 111.041C90.9844 110.458 90.142 109.855 89.2476 109.268C83.9176 105.747 75.2076 103.475 74.854 103.381C74.7078 103.345 74.5532 103.368 74.4239 103.445C74.2946 103.523 74.201 103.648 74.1633 103.794C74.1257 103.939 74.147 104.094 74.2228 104.224C74.2986 104.355 74.4226 104.45 74.568 104.489C74.6564 104.489 83.4496 106.803 88.608 110.209C89.4816 110.786 90.3188 111.384 91.1196 111.961C95.1964 114.878 100.974 118.066 106.132 116.407C106.248 116.388 106.356 116.334 106.44 116.251C106.524 116.168 106.58 116.061 106.6 115.944C107.396 114.92 105.83 114.4 105.83 114.4Z" fill="white" stroke="#263238" stroke-linecap="round" stroke-linejoin="round"/>
<path d="M106.392 115.076C104.833 115.628 103.155 115.757 101.53 115.45" stroke="#263238" stroke-linecap="round" stroke-linejoin="round"/>
<path d="M71.3284 114.634C71.3284 114.634 69.1652 116.797 69.6644 117.79" stroke="#263238" stroke-linecap="round" stroke-linejoin="round"/>
<path d="M85.8 124.441L83.8032 122.117C83.8032 122.117 85.2384 115.939 85.9664 114.135C86.3121 113.36 86.5753 112.552 86.7516 111.722C87.2716 110.682 87.542 108.862 86.84 108.16C86.2212 107.541 85.4516 108.295 85.28 108.488H85.254C85.3125 108.299 85.3253 108.099 85.2915 107.904C85.2576 107.71 85.178 107.526 85.0592 107.368C84.9404 107.21 84.7858 107.083 84.6081 106.996C84.4304 106.91 84.2348 106.866 84.0372 106.87C82.4356 106.766 81.0212 108.051 81.0212 108.051C81.0212 108.051 80.7352 106.87 79.8356 106.87C78.936 106.87 77.1316 108.472 76.4296 109.372C76.3776 109.439 76.3308 109.507 76.2788 109.585C74.594 111.181 71.344 114.644 71.344 114.644C71.344 114.644 72.176 111.155 73.6684 109.658C75.1608 108.16 79.1544 105.336 78.4888 104.01C77.8232 102.684 75.8316 104.01 75.8316 104.01C75.8316 104.01 66.8564 108.826 66.69 110.822C66.5236 112.819 64.194 121.295 65.026 122.127C65.858 122.959 76.986 129.771 76.986 129.771C76.986 129.771 68.8376 146.058 65.8476 153.208C62.8576 160.358 59.8624 167.664 59.5296 174.148C59.1968 180.632 63.1696 185.453 70.0024 185.453C76.8352 185.453 79.8096 180.799 80.808 171.824C81.8064 162.848 86.6216 135.918 86.9544 131.264C87.2872 126.61 87.7812 126.771 85.8 124.441Z" fill="white"/>
<mask id="mask4_30_27217" style="mask-type:luminance" maskUnits="userSpaceOnUse" x="59" y="103" width="29" height="83">
<path d="M85.8 124.441L83.8032 122.117C83.8032 122.117 85.2384 115.939 85.9664 114.135C86.3121 113.36 86.5753 112.552 86.7516 111.722C87.2716 110.682 87.542 108.862 86.84 108.16C86.2212 107.541 85.4516 108.295 85.28 108.488H85.254C85.3125 108.299 85.3253 108.099 85.2915 107.904C85.2576 107.71 85.178 107.526 85.0592 107.368C84.9404 107.21 84.7858 107.083 84.6081 106.996C84.4304 106.91 84.2348 106.866 84.0372 106.87C82.4356 106.766 81.0212 108.051 81.0212 108.051C81.0212 108.051 80.7352 106.87 79.8356 106.87C78.936 106.87 77.1316 108.472 76.4296 109.372C76.3776 109.439 76.3308 109.507 76.2788 109.585C74.594 111.181 71.344 114.644 71.344 114.644C71.344 114.644 72.176 111.155 73.6684 109.658C75.1608 108.16 79.1544 105.336 78.4888 104.01C77.8232 102.684 75.8316 104.01 75.8316 104.01C75.8316 104.01 66.8564 108.826 66.69 110.822C66.5236 112.819 64.194 121.295 65.026 122.127C65.858 122.959 76.986 129.771 76.986 129.771C76.986 129.771 68.8376 146.058 65.8476 153.208C62.8576 160.358 59.8624 167.664 59.5296 174.148C59.1968 180.632 63.1696 185.453 70.0024 185.453C76.8352 185.453 79.8096 180.799 80.808 171.824C81.8064 162.848 86.6216 135.918 86.9544 131.264C87.2872 126.61 87.7812 126.771 85.8 124.441Z" fill="white"/>
</mask>
<g mask="url(#mask4_30_27217)">
<path opacity="0.1" d="M80.8028 171.813C81.8012 162.838 86.6164 135.907 86.9492 131.253C87.282 126.599 87.7812 126.766 85.7896 124.436L83.7928 122.112C83.7928 122.112 85.228 115.934 85.956 114.13C86.3017 113.355 86.5649 112.546 86.7412 111.717C87.1377 110.887 87.2996 109.964 87.2092 109.049L87.0688 109.242C87.0688 109.242 81.3488 121.675 81.692 124.03C81.9572 125.897 69.6852 122.881 64.9896 122.075V122.112C65.8216 122.938 76.9496 129.756 76.9496 129.756C76.9496 129.756 82.6696 131.087 81.6608 136.464C80.652 141.84 74.0792 175.635 69.3004 183.784C68.9789 184.326 68.61 184.84 68.198 185.318C68.7839 185.399 69.3745 185.442 69.966 185.448C76.8144 185.442 79.8044 180.788 80.8028 171.813Z" fill="black"/>
</g>
<path d="M85.8 124.441L83.8032 122.117C83.8032 122.117 85.2384 115.939 85.9664 114.135C86.3121 113.36 86.5753 112.552 86.7516 111.722C87.2716 110.682 87.542 108.862 86.84 108.16C86.2212 107.541 85.4516 108.295 85.28 108.488H85.254C85.3125 108.299 85.3253 108.099 85.2915 107.904C85.2576 107.71 85.178 107.526 85.0592 107.368C84.9404 107.21 84.7858 107.083 84.6081 106.996C84.4304 106.91 84.2348 106.866 84.0372 106.87C82.4356 106.766 81.0212 108.051 81.0212 108.051C81.0212 108.051 80.7352 106.87 79.8356 106.87C78.936 106.87 77.1316 108.472 76.4296 109.372C76.3776 109.439 76.3308 109.507 76.2788 109.585C74.594 111.181 71.344 114.644 71.344 114.644C71.344 114.644 72.176 111.155 73.6684 109.658C75.1608 108.16 79.1544 105.336 78.4888 104.01C77.8232 102.684 75.8316 104.01 75.8316 104.01C75.8316 104.01 66.8564 108.826 66.69 110.822C66.5236 112.819 64.194 121.295 65.026 122.127C65.858 122.959 76.986 129.771 76.986 129.771C76.986 129.771 68.8376 146.058 65.8476 153.208C62.8576 160.358 59.8624 167.664 59.5296 174.148C59.1968 180.632 63.1696 185.453 70.0024 185.453C76.8352 185.453 79.8096 180.799 80.808 171.824C81.8064 162.848 86.6216 135.918 86.9544 131.264C87.2872 126.61 87.7812 126.771 85.8 124.441Z" stroke="#263238" stroke-linecap="round" stroke-linejoin="round"/>
<path d="M81.0056 108.04C81.0056 108.04 77.2148 113.469 76.414 114.972C75.8869 116.14 75.5802 117.395 75.5092 118.674" stroke="#263238" stroke-linecap="round" stroke-linejoin="round"/>
<path d="M80.1164 120.177C80.2609 118.651 80.6673 117.161 81.3176 115.773C82.3212 113.568 85.2644 108.493 85.2644 108.493" stroke="#263238" stroke-linecap="round" stroke-linejoin="round"/>
<path d="M154.736 146.032C154.736 146.032 161.871 175.713 163.296 181.418C164.72 187.122 169.671 196.253 176.951 194.683C184.231 193.112 184.912 184.07 184.751 175.51C184.59 166.951 179.577 147.852 176.01 139.006C172.442 130.161 167.69 123.63 161.138 121.774C154.586 119.917 150.862 120.489 150.862 120.489" fill="white"/>
<mask id="mask5_30_27217" style="mask-type:luminance" maskUnits="userSpaceOnUse" x="150" y="120" width="35" height="75">
<path d="M154.736 146.032C154.736 146.032 161.871 175.713 163.296 181.418C164.72 187.122 169.671 196.253 176.951 194.683C184.231 193.112 184.912 184.07 184.751 175.51C184.59 166.951 179.577 147.852 176.01 139.006C172.442 130.161 167.69 123.63 161.138 121.774C154.586 119.917 150.862 120.489 150.862 120.489" fill="white"/>
</mask>
<g mask="url(#mask5_30_27217)">
<path opacity="0.1" d="M184.772 175.51C184.631 166.951 179.598 147.852 176.03 139.006C172.463 130.161 167.71 123.63 161.158 121.774C159.389 121.268 157.585 120.889 155.761 120.64C158.527 121.815 167.721 126.88 173.098 143.863C179.483 164.024 183.498 179.145 176.795 186.202C173.28 189.894 170.035 190.086 166.655 189.051C169.088 192.738 172.604 195.619 176.951 194.683C184.226 193.112 184.912 184.08 184.772 175.51Z" fill="black"/>
</g>
<path d="M154.736 146.032C154.736 146.032 161.871 175.713 163.296 181.418C164.72 187.122 169.671 196.253 176.951 194.683C184.231 193.112 184.912 184.07 184.751 175.51C184.59 166.951 179.577 147.852 176.01 139.006C172.442 130.161 167.69 123.63 161.138 121.774C154.586 119.917 150.862 120.489 150.862 120.489" stroke="#263238" stroke-linecap="round" stroke-linejoin="round"/>
<path d="M151.559 142.241L103.636 143L109.928 159.562H109.996C111.394 163.722 118.721 166.92 127.556 166.92C136.063 166.92 143.156 163.966 144.934 160.02H145.049L151.559 142.241Z" fill="white" stroke="#263238" stroke-linecap="round" stroke-linejoin="round"/>
<path d="M127.556 149.594C140.815 149.594 151.564 146.302 151.564 142.241C151.564 138.18 140.815 134.888 127.556 134.888C114.297 134.888 103.548 138.18 103.548 142.241C103.548 146.302 114.297 149.594 127.556 149.594Z" fill="white" stroke="#263238" stroke-linecap="round" stroke-linejoin="round"/>
<path d="M127.556 148.314C139.968 148.314 150.03 145.407 150.03 141.82C150.03 138.233 139.968 135.325 127.556 135.325C115.144 135.325 105.082 138.233 105.082 141.82C105.082 145.407 115.144 148.314 127.556 148.314Z" fill="white" stroke="#263238" stroke-linecap="round" stroke-linejoin="round"/>
<mask id="mask6_30_27217" style="mask-type:luminance" maskUnits="userSpaceOnUse" x="103" y="129" width="50" height="20">
<path d="M152.62 129.215H103.927V142.662H105.659C107.162 145.782 116.392 148.164 127.566 148.164C138.128 148.164 146.952 146.026 149.157 143.166L149.677 142.568L151.892 141.461L152.62 129.215Z" fill="white"/>
</mask>
<g mask="url(#mask6_30_27217)">
<path d="M105.446 141.773C105.446 141.773 104.406 137.998 105.16 137.873C105.914 137.748 107.136 139.542 108.347 138.33C109.559 137.119 110.474 135.444 112.143 135.595C113.812 135.746 113.662 137.571 114.743 137.571C115.825 137.571 117.172 135.595 117.78 137.722C118.388 139.849 116.74 143.036 115.653 144.248C114.566 145.46 112.164 145.158 108.826 145.158C105.487 145.158 105.446 141.773 105.446 141.773Z" fill="#F2B620" stroke="#263238" stroke-linecap="round" stroke-linejoin="round"/>
<path d="M108.805 145.158L107.754 140.78" stroke="#263238" stroke-linecap="round" stroke-linejoin="round"/>
<path d="M110.391 145.054L110.646 137.888" stroke="#263238" stroke-linecap="round" stroke-linejoin="round"/>
<path d="M123.464 138.013C123.464 138.013 122.08 136.001 123.214 134.618C124.348 133.234 124.847 134.368 126.984 134.618C129.121 134.867 128.872 132.86 131.383 133.614C133.895 134.368 134.68 136.24 135.408 136.24C136.136 136.24 137.795 135.231 139.303 136.76C140.811 138.289 140.431 139.152 141.185 139.152C141.939 139.152 143.073 138.143 143.322 139.906C143.572 141.669 142.802 142.797 141.565 142.797C140.327 142.797 138.044 140.66 135.658 140.91C133.271 141.159 132.387 142.168 130.629 141.788C128.872 141.409 128.742 140.535 127.988 140.28C127.234 140.026 124.868 140.405 123.828 139.76C122.788 139.116 123.952 137.998 123.952 137.998L123.464 138.013Z" fill="#F2B620" stroke="#263238" stroke-linecap="round" stroke-linejoin="round"/>
<path d="M129.896 138.278C129.896 138.278 128.513 136.266 129.646 134.883C130.78 133.5 131.279 134.633 133.416 134.883C135.554 135.132 135.304 133.125 137.816 133.879C140.327 134.633 141.086 136.521 141.84 136.521C142.594 136.521 144.227 135.512 145.735 137.041C147.243 138.57 146.869 139.433 147.623 139.433C148.377 139.433 149.505 138.424 149.76 140.187C150.015 141.95 149.24 143.078 147.997 143.078C146.754 143.078 144.477 140.941 142.09 141.19C139.703 141.44 138.824 142.449 137.062 142.069C135.299 141.69 135.179 140.816 134.425 140.561C133.671 140.306 131.305 140.686 130.265 140.041C129.225 139.396 130.39 138.278 130.39 138.278H129.896Z" fill="#F2B620" stroke="#263238" stroke-linecap="round" stroke-linejoin="round"/>
<path d="M142.698 137.384L141.565 142.792L143.718 143.151L145.714 138.518" fill="#F2B620"/>
<path d="M142.698 137.384L141.565 142.792L143.718 143.151L145.714 138.518" stroke="#263238" stroke-linecap="round" stroke-linejoin="round"/>
<path d="M136.412 135.626L136.661 138.518" stroke="#263238" stroke-linecap="round" stroke-linejoin="round"/>
<path d="M129.121 141.908C129.121 141.908 127.738 139.901 128.872 138.518C130.005 137.134 130.504 138.263 132.642 138.518C134.779 138.772 134.524 136.755 137.041 137.509C139.558 138.263 140.306 140.15 141.06 140.15C141.814 140.15 143.452 139.147 144.96 140.67C146.468 142.194 146.089 143.057 146.843 143.057C147.597 143.057 148.73 142.054 148.98 143.811C149.23 145.569 148.46 146.702 147.222 146.702C145.985 146.702 143.702 144.565 141.315 144.815C138.928 145.064 138.044 146.073 136.287 145.699C134.529 145.324 134.399 144.44 133.645 144.191C132.891 143.941 130.525 144.316 129.485 143.671C128.445 143.026 129.615 141.908 129.615 141.908H129.121Z" fill="#F2B620" stroke="#263238" stroke-linecap="round" stroke-linejoin="round"/>
<path d="M129.995 143.406C132.467 143.406 134.472 142.132 134.472 140.561C134.472 138.99 132.467 137.717 129.995 137.717C127.522 137.717 125.518 138.99 125.518 140.561C125.518 142.132 127.522 143.406 129.995 143.406Z" fill="#808080" stroke="#263238" stroke-linecap="round" stroke-linejoin="round"/>
<path d="M129.896 140.057C129.896 140.057 128.658 138.57 129.022 138.221C129.386 137.873 131.102 137.774 131.31 138.284C131.518 138.793 129.896 140.057 129.896 140.057Z" fill="white"/>
<path d="M129.36 140.26C129.36 140.26 126.76 140.005 126.521 139.615C126.282 139.225 127.192 138.289 127.956 138.481C128.721 138.674 129.36 140.26 129.36 140.26Z" fill="white"/>
<path d="M129.256 140.639C129.256 140.639 127.275 141.752 126.656 141.606C126.038 141.461 125.486 140.431 126.214 140.182C126.942 139.932 129.256 140.639 129.256 140.639Z" fill="white"/>
<path d="M129.646 140.92C129.646 140.92 129.714 142.6 129.126 142.808C128.539 143.016 126.953 142.62 127.119 142.106C127.286 141.591 129.646 140.92 129.646 140.92Z" fill="white"/>
<path d="M130.26 140.92C130.26 140.92 132.34 141.96 132.21 142.381C132.08 142.802 130.588 143.317 130.073 142.901C129.558 142.485 130.26 140.92 130.26 140.92Z" fill="white"/>
<path d="M130.65 140.634C130.65 140.634 133.25 140.301 133.661 140.634C134.072 140.967 133.744 142.022 132.922 142.012C132.101 142.002 130.65 140.634 130.65 140.634Z" fill="white"/>
<path d="M130.52 140.254C130.52 140.254 131.784 138.778 132.439 138.778C133.094 138.778 134.17 139.63 133.624 140.026C133.078 140.421 130.52 140.254 130.52 140.254Z" fill="white"/>
<path d="M143.068 145.922C145.54 145.922 147.545 144.649 147.545 143.078C147.545 141.507 145.54 140.234 143.068 140.234C140.595 140.234 138.59 141.507 138.59 143.078C138.59 144.649 140.595 145.922 143.068 145.922Z" fill="#808080" stroke="#263238" stroke-linecap="round" stroke-linejoin="round"/>
<path d="M142.969 142.568C142.969 142.568 141.731 141.086 142.095 140.738C142.459 140.39 144.175 140.291 144.383 140.795C144.591 141.3 142.969 142.568 142.969 142.568Z" fill="white"/>
<path d="M142.433 142.771C142.433 142.771 139.833 142.522 139.594 142.126C139.355 141.731 140.265 140.8 141.029 140.993C141.794 141.185 142.433 142.771 142.433 142.771Z" fill="white"/>
<path d="M142.329 143.151C142.329 143.151 140.343 144.264 139.729 144.123C139.116 143.983 138.559 142.943 139.287 142.693C140.015 142.444 142.329 143.151 142.329 143.151Z" fill="white"/>
<path d="M142.719 143.447C142.719 143.447 142.787 145.127 142.199 145.335C141.612 145.543 140.026 145.148 140.192 144.633C140.358 144.118 142.719 143.447 142.719 143.447Z" fill="white"/>
<path d="M143.333 143.447C143.333 143.447 145.413 144.487 145.283 144.903C145.153 145.319 143.66 145.839 143.146 145.423C142.631 145.007 143.333 143.447 143.333 143.447Z" fill="white"/>
<path d="M143.723 143.151C143.723 143.151 146.323 142.818 146.734 143.151C147.144 143.484 146.817 144.544 145.995 144.529C145.174 144.513 143.723 143.151 143.723 143.151Z" fill="white"/>
<path d="M143.614 142.771C143.614 142.771 144.877 141.294 145.532 141.294C146.188 141.294 147.264 142.147 146.718 142.537C146.172 142.927 143.614 142.771 143.614 142.771Z" fill="white"/>
<path d="M126.36 141.019C126.36 141.019 127.452 137.244 126.656 137.119C125.861 136.994 124.576 138.788 123.339 137.576C122.101 136.365 121.16 134.68 119.392 134.841C117.624 135.002 117.832 136.817 116.709 136.817C115.586 136.817 114.176 134.841 113.542 136.968C112.908 139.095 114.65 142.282 115.757 143.494C116.865 144.706 119.397 144.404 122.871 144.404C126.344 144.404 126.36 141.019 126.36 141.019Z" fill="#F2B620" stroke="#263238" stroke-linecap="round" stroke-linejoin="round"/>
<path d="M122.871 144.404L123.968 140.026" stroke="#263238" stroke-linecap="round" stroke-linejoin="round"/>
<path d="M121.217 144.3L120.957 137.134" stroke="#263238" stroke-linecap="round" stroke-linejoin="round"/>
<path d="M115.544 146.297C118.017 146.297 120.021 145.023 120.021 143.452C120.021 141.881 118.017 140.608 115.544 140.608C113.071 140.608 111.067 141.881 111.067 143.452C111.067 145.023 113.071 146.297 115.544 146.297Z" fill="#808080" stroke="#263238" stroke-linecap="round" stroke-linejoin="round"/>
<path d="M115.44 142.948C115.44 142.948 114.197 141.461 114.561 141.112C114.925 140.764 116.641 140.665 116.849 141.175C117.057 141.684 115.44 142.948 115.44 142.948Z" fill="white"/>
<path d="M114.92 143.146C114.92 143.146 112.32 142.896 112.081 142.506C111.842 142.116 112.752 141.18 113.516 141.372C114.28 141.565 114.92 143.146 114.92 143.146Z" fill="white"/>
<path d="M114.8 143.52C114.8 143.52 112.819 144.633 112.2 144.487C111.582 144.342 111.03 143.312 111.758 143.062C112.486 142.813 114.8 143.52 114.8 143.52Z" fill="white"/>
<path d="M115.196 143.827C115.196 143.827 115.263 145.506 114.676 145.714C114.088 145.922 112.502 145.527 112.668 145.012C112.835 144.498 115.196 143.827 115.196 143.827Z" fill="white"/>
<path d="M115.804 143.822C115.804 143.822 117.884 144.862 117.754 145.283C117.624 145.704 116.132 146.219 115.622 145.803C115.112 145.387 115.804 143.822 115.804 143.822Z" fill="white"/>
<path d="M116.194 143.52C116.194 143.52 118.794 143.187 119.205 143.52C119.616 143.853 119.293 144.908 118.466 144.898C117.64 144.888 116.194 143.52 116.194 143.52Z" fill="white"/>
<path d="M116.085 143.146C116.085 143.146 117.348 141.669 118.009 141.669C118.669 141.669 119.74 142.522 119.189 142.917C118.638 143.312 116.085 143.146 116.085 143.146Z" fill="white"/>
<path d="M117.125 143.395C117.125 143.395 119.205 140.275 124.342 139.755C124.342 139.755 126.859 140.509 125.85 140.634C124.842 140.759 121.077 140.379 118.05 143.525C115.024 146.671 117.125 143.395 117.125 143.395Z" fill="white" stroke="#263238" stroke-linecap="round" stroke-linejoin="round"/>
<path d="M129.199 144.503C129.199 145.959 127.197 147.144 124.722 147.144C122.247 147.144 120.245 145.959 120.245 144.503C120.245 143.047 122.247 141.866 124.722 141.866C127.197 141.866 129.199 143.047 129.199 144.503Z" fill="#808080" stroke="#263238" stroke-linecap="round" stroke-linejoin="round"/>
<path d="M124.623 144.04C124.623 144.04 123.38 142.662 123.744 142.34C124.108 142.017 125.824 141.929 126.032 142.397C126.24 142.865 124.623 144.04 124.623 144.04Z" fill="white"/>
<path d="M124.082 144.222C124.082 144.222 121.482 143.988 121.248 143.624C121.014 143.26 121.914 142.397 122.684 142.584C123.453 142.771 124.082 144.222 124.082 144.222Z" fill="white"/>
<path d="M123.978 144.56C123.978 144.56 121.997 145.6 121.378 145.46C120.76 145.319 120.208 144.368 120.931 144.134C121.654 143.9 123.978 144.56 123.978 144.56Z" fill="white"/>
<path d="M124.374 144.851C124.374 144.851 124.441 146.411 123.854 146.598C123.266 146.786 121.685 146.427 121.852 145.948C122.018 145.47 124.374 144.851 124.374 144.851Z" fill="white"/>
<path d="M124.982 144.846C124.982 144.846 127.062 145.818 126.937 146.198C126.812 146.578 125.315 147.066 124.8 146.687C124.285 146.307 124.982 144.846 124.982 144.846Z" fill="white"/>
<path d="M125.372 144.56C125.372 144.56 127.972 144.253 128.388 144.56C128.804 144.867 128.471 145.85 127.644 145.839C126.818 145.829 125.372 144.56 125.372 144.56Z" fill="white"/>
<path d="M125.263 144.217C125.263 144.217 126.532 142.849 127.187 142.854C127.842 142.86 128.918 143.645 128.372 144.009C127.826 144.373 125.263 144.217 125.263 144.217Z" fill="white"/>
<path d="M138.876 144.628C138.876 146.089 136.874 147.269 134.399 147.269C131.924 147.269 129.922 146.089 129.922 144.628C129.922 143.166 131.929 141.991 134.399 141.991C136.869 141.991 138.876 143.172 138.876 144.628Z" fill="#808080" stroke="#263238" stroke-linecap="round" stroke-linejoin="round"/>
<path d="M134.3 144.16C134.3 144.16 133.058 142.782 133.427 142.464C133.796 142.147 135.507 142.048 135.715 142.516C135.923 142.984 134.3 144.16 134.3 144.16Z" fill="white"/>
<path d="M133.765 144.347C133.765 144.347 131.165 144.118 130.926 143.749C130.686 143.38 131.591 142.522 132.361 142.709C133.13 142.896 133.765 144.347 133.765 144.347Z" fill="white"/>
<path d="M133.64 144.7C133.64 144.7 131.654 145.74 131.04 145.6C130.426 145.46 129.87 144.508 130.598 144.274C131.326 144.04 133.64 144.7 133.64 144.7Z" fill="white"/>
<path d="M134.051 144.976C134.051 144.976 134.118 146.536 133.531 146.723C132.943 146.91 131.362 146.552 131.529 146.073C131.695 145.595 134.051 144.976 134.051 144.976Z" fill="white"/>
<path d="M134.68 144.976C134.68 144.976 136.76 145.943 136.635 146.328C136.51 146.713 135.013 147.191 134.498 146.812C133.983 146.432 134.68 144.976 134.68 144.976Z" fill="white"/>
<path d="M135.049 144.7C135.049 144.7 137.649 144.388 138.065 144.7C138.481 145.012 138.148 145.99 137.327 145.98C136.505 145.969 135.049 144.7 135.049 144.7Z" fill="white"/>
<path d="M134.945 144.347C134.945 144.347 136.209 142.974 136.864 142.979C137.519 142.984 138.596 143.77 138.05 144.134C137.504 144.498 134.945 144.347 134.945 144.347Z" fill="white"/>
<path d="M129.069 140.634C129.069 140.634 127.759 144.139 122.829 145.782C122.829 145.782 120.229 145.61 121.165 145.262C122.101 144.914 125.876 144.435 128.112 140.696C130.348 136.958 129.069 140.634 129.069 140.634Z" fill="white" stroke="#263238" stroke-linecap="round" stroke-linejoin="round"/>
<path d="M140.998 141.96C140.998 141.96 139.688 145.465 134.758 147.108C134.758 147.108 132.158 146.936 133.094 146.588C134.03 146.24 137.805 145.761 140.041 142.028C142.277 138.294 140.998 141.96 140.998 141.96Z" fill="white" stroke="#263238" stroke-linecap="round" stroke-linejoin="round"/>
<path d="M109.538 146.058C109.538 146.058 106.647 144.55 108.914 144.045C111.181 143.541 112.304 146.307 112.809 144.929C113.313 143.551 114.015 142.745 115.612 143.146C117.208 143.546 115.612 144.882 117.281 145.283C118.95 145.683 117.437 142.62 120.463 144.149C123.49 145.678 122.611 147.566 124.249 147.69C125.887 147.815 125.627 144.674 127.764 145.054C129.901 145.434 128.898 145.933 130.281 146.182C131.664 146.432 131.914 145.054 133.297 145.933C134.68 146.812 135.559 147.69 136.313 147.191C137.067 146.692 136.833 146.058 138.2 145.808C139.568 145.558 139.708 145.054 140.712 143.796C141.716 142.537 143.229 144.316 144.737 144.316C146.245 144.316 146.37 144.316 147.124 142.808C147.332 142.377 147.651 142.01 148.049 141.745C148.447 141.48 148.908 141.326 149.386 141.3C149.386 141.3 150.644 142.553 149.011 144.061C147.378 145.569 140.962 149.089 135.938 149.594C130.915 150.098 123.869 150.722 117.712 149.843C111.556 148.964 109.538 146.058 109.538 146.058Z" fill="#F2B620" stroke="#263238" stroke-linecap="round" stroke-linejoin="round"/>
<path d="M132.21 142.392C132.21 142.392 134.29 139.272 139.428 138.752C139.428 138.752 141.944 139.506 140.936 139.63C139.927 139.755 136.162 139.381 133.136 142.522C130.109 145.662 132.21 142.392 132.21 142.392Z" fill="white" stroke="#263238" stroke-linecap="round" stroke-linejoin="round"/>
</g>
<path d="M120.791 59.2176C120.791 59.2176 108.909 64.5216 107.271 68.7232C105.633 72.9248 106.543 77.1368 105.076 81.8896C103.61 86.6424 100.506 89.0188 102.882 95.784C105.258 102.549 113.49 105.472 116.782 106.938C119.904 108.332 123.445 108.463 126.662 107.302C129.782 106.205 139.095 99.0756 139.095 99.0756C139.095 99.0756 140.01 100.355 144.03 98.8936C148.049 97.4324 150.27 90.116 149.152 86.8244C148.034 83.5328 143.114 85.9092 143.114 85.9092C143.114 85.9092 119.33 71.8328 120.791 59.2176Z" fill="white"/>
<mask id="mask7_30_27217" style="mask-type:luminance" maskUnits="userSpaceOnUse" x="102" y="59" width="48" height="50">
<path d="M120.791 59.2176C120.791 59.2176 108.909 64.5216 107.271 68.7232C105.633 72.9248 106.543 77.1368 105.076 81.8896C103.61 86.6424 100.506 89.0188 102.882 95.784C105.258 102.549 113.49 105.472 116.782 106.938C119.904 108.332 123.445 108.463 126.662 107.302C129.782 106.205 139.095 99.0756 139.095 99.0756C139.095 99.0756 140.01 100.355 144.03 98.8936C148.049 97.4324 150.27 90.116 149.152 86.8244C148.034 83.5328 143.114 85.9092 143.114 85.9092C143.114 85.9092 119.33 71.8328 120.791 59.2176Z" fill="white"/>
</mask>
<g mask="url(#mask7_30_27217)">
<path opacity="0.1" d="M143.094 85.9092C139.041 83.4199 135.201 80.6006 131.612 77.48C132.605 81.1564 134.628 89.5752 134.113 95.4668C133.442 103.194 126.386 106.22 120.338 106.907C119.527 106.995 119.132 107.286 119.049 107.718C121.565 108.327 124.204 108.186 126.641 107.312C129.761 106.215 139.074 99.086 139.074 99.086C139.074 99.086 139.989 100.365 144.009 98.904C148.028 97.4428 150.249 90.1264 149.131 86.8348C148.013 83.5432 143.094 85.9092 143.094 85.9092Z" fill="black"/>
</g>
<path d="M120.791 59.2176C120.791 59.2176 108.909 64.5216 107.271 68.7232C105.633 72.9248 106.543 77.1368 105.076 81.8896C103.61 86.6424 100.506 89.0188 102.882 95.784C105.258 102.549 113.49 105.472 116.782 106.938C119.904 108.332 123.445 108.463 126.662 107.302C129.782 106.205 139.095 99.0756 139.095 99.0756C139.095 99.0756 140.01 100.355 144.03 98.8936C148.049 97.4324 150.27 90.116 149.152 86.8244C148.034 83.5328 143.114 85.9092 143.114 85.9092C143.114 85.9092 119.33 71.8328 120.791 59.2176Z" stroke="#263238" stroke-linecap="round" stroke-linejoin="round"/>
<path d="M116.038 79.144C115.775 80.4946 115.067 81.7179 114.026 82.6176C112.382 83.8968 111.103 84.812 112.746 86.2576C114.39 87.7032 115.674 87.1676 115.674 87.1676" stroke="#263238" stroke-linecap="round" stroke-linejoin="round"/>
<path d="M113.844 92.1284C113.844 92.1284 116.771 94.1356 120.973 91.2132" stroke="#263238" stroke-linecap="round" stroke-linejoin="round"/>
<path d="M120.609 89.752C120.609 89.752 120.245 90.662 121.888 92.3104" stroke="#263238" stroke-linecap="round" stroke-linejoin="round"/>
<path d="M108.358 79.326C109.122 78.8128 110.029 78.5545 110.949 78.5881C111.869 78.6218 112.755 78.9456 113.48 79.5132" stroke="#263238" stroke-linecap="round" stroke-linejoin="round"/>
<path d="M121.16 79.8772C121.16 79.8772 123.354 77.8648 126.646 80.2412" stroke="#263238" stroke-linecap="round" stroke-linejoin="round"/>
<path d="M108.54 74.2092C108.54 74.2092 111.103 70.9176 114.39 72.3788" stroke="#263238" stroke-width="3" stroke-linecap="round" stroke-linejoin="round"/>
<path d="M119.33 72.566C119.33 72.566 122.803 70.5536 125.913 74.2092" stroke="#263238" stroke-width="3" stroke-linecap="round" stroke-linejoin="round"/>
<path d="M180.133 183.986C178.749 181.648 176.867 179.644 174.62 178.116C172.373 176.588 169.817 175.574 167.133 175.146C157.862 173.586 149.157 173.29 146.016 171.72C142.875 170.149 141.31 166.728 139.594 164.44C137.574 161.971 135.164 159.849 132.46 158.158C130.322 156.874 129.178 157.877 129.605 159.302C130.031 160.727 131.607 161.585 132.725 163.296C133.46 164.482 133.988 165.785 134.285 167.149C134.285 167.149 131.576 167.575 126.006 163.727C120.437 159.879 116.308 157.16 115.736 158.444C115.394 159.153 115.294 159.955 115.45 160.727C115.45 160.727 112.736 159.016 112.33 160.872C111.925 162.729 115.326 166.592 115.326 166.592C115.326 166.592 116.329 168.022 117.894 170.019C119.972 172.869 122.958 174.926 126.36 175.854C131.071 177.278 135.065 178.563 137.634 179.707C140.202 180.851 155.896 192.405 166.031 195.546C176.166 198.687 180.872 194.402 182.723 190.835C183.842 188.582 184.288 186.054 184.007 183.555" fill="white"/>
<mask id="mask8_30_27217" style="mask-type:luminance" maskUnits="userSpaceOnUse" x="112" y="157" width="73" height="40">
<path d="M180.133 183.986C178.749 181.648 176.867 179.644 174.62 178.116C172.373 176.588 169.817 175.574 167.133 175.146C157.862 173.586 149.157 173.29 146.016 171.72C142.875 170.149 141.31 166.728 139.594 164.44C137.574 161.971 135.164 159.849 132.46 158.158C130.322 156.874 129.178 157.877 129.605 159.302C130.031 160.727 131.607 161.585 132.725 163.296C133.46 164.482 133.988 165.785 134.285 167.149C134.285 167.149 131.576 167.575 126.006 163.727C120.437 159.879 116.308 157.16 115.736 158.444C115.394 159.153 115.294 159.955 115.45 160.727C115.45 160.727 112.736 159.016 112.33 160.872C111.925 162.729 115.326 166.592 115.326 166.592C115.326 166.592 116.329 168.022 117.894 170.019C119.972 172.869 122.958 174.926 126.36 175.854C131.071 177.278 135.065 178.563 137.634 179.707C140.202 180.851 155.896 192.405 166.031 195.546C176.166 198.687 180.872 194.402 182.723 190.835C183.842 188.582 184.288 186.054 184.007 183.555" fill="white"/>
</mask>
<g mask="url(#mask8_30_27217)">
<path opacity="0.1" d="M183.986 183.56L180.133 183.986C179.84 183.442 179.507 182.92 179.135 182.426C178.612 183.822 177.816 185.1 176.795 186.186C170.071 193.242 164.252 187.522 156.967 184.844C149.682 182.166 135.127 174.762 127.733 175.1C126.504 175.155 125.273 175.115 124.051 174.98C124.794 175.316 125.558 175.603 126.339 175.838C131.05 177.263 135.044 178.547 137.613 179.691C140.182 180.835 155.875 192.39 166.01 195.53C176.145 198.671 180.851 194.386 182.702 190.819C183.817 188.573 184.263 186.053 183.986 183.56Z" fill="black"/>
</g>
<path d="M180.133 183.986C178.749 181.648 176.867 179.644 174.62 178.116C172.373 176.588 169.817 175.574 167.133 175.146C157.862 173.586 149.157 173.29 146.016 171.72C142.875 170.149 141.31 166.728 139.594 164.44C137.574 161.971 135.164 159.849 132.46 158.158C130.322 156.874 129.178 157.877 129.605 159.302C130.031 160.727 131.607 161.585 132.725 163.296C133.46 164.482 133.988 165.785 134.285 167.149C134.285 167.149 131.576 167.575 126.006 163.727C120.437 159.879 116.308 157.16 115.736 158.444C115.394 159.153 115.294 159.955 115.45 160.727C115.45 160.727 112.736 159.016 112.33 160.872C111.925 162.729 115.326 166.592 115.326 166.592C115.326 166.592 116.329 168.022 117.894 170.019C119.972 172.869 122.958 174.926 126.36 175.854C131.071 177.278 135.065 178.563 137.634 179.707C140.202 180.851 155.896 192.405 166.031 195.546C176.166 198.687 180.872 194.402 182.723 190.835C183.842 188.582 184.288 186.054 184.007 183.555" stroke="#263238" stroke-linecap="round" stroke-linejoin="round"/>
<path d="M115.497 160.727C115.497 160.727 121.581 165.849 122.964 167.076C123.978 167.91 125.115 168.581 126.334 169.068" stroke="#263238" stroke-linecap="round" stroke-linejoin="round"/>
<path d="M113.604 163.394C113.604 163.394 119.434 170.154 123.271 171.829" stroke="#263238" stroke-linecap="round" stroke-linejoin="round"/>
</svg>
