<svg width="19" height="18" viewBox="0 0 19 18" fill="none" xmlns="http://www.w3.org/2000/svg">
<g id="icon" clip-path="url(#clip0_241_41)">
<path id="Vector" d="M18.491 9.16838C18.491 8.43093 18.4298 7.89279 18.2973 7.33472H9.67929V10.6632H14.7378C14.6359 11.4904 14.0852 12.7361 12.8613 13.5732L12.8441 13.6846L15.569 15.7472L15.7577 15.7657C17.4915 14.201 18.491 11.899 18.491 9.16838Z" fill="#4285F4"/>
<path id="Vector_2" d="M9.67929 17.9382C12.1576 17.9382 14.2381 17.1409 15.7577 15.7657L12.8613 13.5732C12.0862 14.1014 11.0459 14.4701 9.67929 14.4701C7.252 14.4701 5.19187 12.9055 4.45748 10.743L4.34984 10.7519L1.51651 12.8945L1.47946 12.9952C2.98886 15.9251 6.08929 17.9382 9.67929 17.9382Z" fill="#34A853"/>
<path id="Vector_3" d="M4.45748 10.743C4.2637 10.1849 4.15156 9.58692 4.15156 8.96908C4.15156 8.35117 4.26371 7.75325 4.44728 7.19519L4.44215 7.07633L1.57332 4.89929L1.47945 4.94292C0.857357 6.15874 0.500397 7.52406 0.500397 8.96908C0.500397 10.4141 0.857357 11.7793 1.47945 12.9952L4.45748 10.743Z" fill="#FBBC05"/>
<path id="Vector_4" d="M9.67929 3.46802C11.4029 3.46802 12.5655 4.19551 13.2284 4.80346L15.8189 2.33196C14.228 0.886946 12.1576 0 9.67929 0C6.08929 0 2.98886 2.01305 1.47946 4.94292L4.44729 7.19519C5.19187 5.03265 7.252 3.46802 9.67929 3.46802Z" fill="#EB4335"/>
</g>
<defs>
<clipPath id="clip0_241_41">
<rect width="18" height="18" fill="white" transform="translate(0.5)"/>
</clipPath>
</defs>
</svg>
