<svg width="376" height="26" viewBox="0 0 376 26" fill="none" xmlns="http://www.w3.org/2000/svg">
<g clip-path="url(#clip0_1_3321)">
<path d="M365.046 393.5L1595.97 393.5V-424.392L365.046 -424.392V393.5Z" fill="#4F323B"/>
<path d="M203.064 26V0.0415961L0.000111754 0.0415961V26L15.8482 26C15.1771 24.6473 14.7968 23.1131 14.7968 21.4888C14.7968 15.8077 19.4124 11.2045 25.1123 11.2045C30.7959 11.2045 35.4146 15.8077 35.4146 21.4888C35.4146 23.1147 35.0344 24.6489 34.3632 26L48.4133 26C47.7422 24.6473 47.3619 23.1131 47.3619 21.4888C47.3619 15.8077 51.9774 11.2045 57.6775 11.2045C63.3758 11.2045 67.996 15.8077 67.996 21.4888C67.996 23.1147 67.6158 24.6489 66.9446 26L80.9943 26C80.3232 24.6473 79.943 23.1131 79.943 21.4888C79.943 15.8077 84.5603 11.2045 90.2456 11.2045C95.944 11.2045 100.561 15.8077 100.561 21.4888C100.561 23.1147 100.181 24.6489 99.5094 26L113.559 26C112.888 24.6473 112.508 23.1131 112.508 21.4888C112.508 15.8077 117.124 11.2045 122.824 11.2045C128.522 11.2045 133.142 15.8077 133.142 21.4888C133.142 23.1147 132.762 24.6489 132.091 26H146.14C145.469 24.6473 145.089 23.1131 145.089 21.4888C145.089 15.8077 149.703 11.2045 155.388 11.2045C161.087 11.2045 165.707 15.8077 165.707 21.4888C165.707 23.1147 165.327 24.6489 164.655 26H178.706C178.034 24.6473 177.654 23.1131 177.654 21.4888C177.654 15.8077 182.27 11.2045 187.97 11.2045C193.668 11.2045 198.288 15.8077 198.288 21.4888C198.288 23.1147 197.905 24.6489 197.233 26H203.064Z" fill="#FFBE1D"/>
<path d="M376 25.9585V6.16693e-05L168.198 6.16693e-05V25.9585H178.78C178.108 24.6057 177.728 23.0718 177.728 21.4474C177.728 15.7664 182.343 11.163 188.043 11.163C193.727 11.163 198.346 15.7664 198.346 21.4474C198.346 23.0734 197.966 24.6073 197.295 25.9585H211.344C210.673 24.6057 210.293 23.0718 210.293 21.4474C210.293 15.7664 214.908 11.163 220.608 11.163C226.307 11.163 230.927 15.7664 230.927 21.4474C230.927 23.0734 230.547 24.6073 229.876 25.9585H243.926C243.254 24.6057 242.874 23.0718 242.874 21.4474C242.874 15.7664 247.492 11.163 253.177 11.163C258.875 11.163 263.492 15.7664 263.492 21.4474C263.492 23.0734 263.112 24.6073 262.441 25.9585L276.491 25.9585C275.82 24.6057 275.439 23.0718 275.439 21.4474C275.439 15.7664 280.055 11.163 285.755 11.163C291.453 11.163 296.073 15.7664 296.073 21.4474C296.073 23.0734 295.693 24.6073 295.022 25.9585L309.072 25.9585C308.401 24.6057 308.02 23.0718 308.02 21.4474C308.02 15.7664 312.634 11.163 318.32 11.163C324.018 11.163 328.638 15.7664 328.638 21.4474C328.638 23.0734 328.258 24.6073 327.587 25.9585L341.637 25.9585C340.966 24.6057 340.585 23.0718 340.585 21.4474C340.585 15.7664 345.201 11.163 350.901 11.163C356.599 11.163 361.22 15.7664 361.22 21.4474C361.22 23.0734 360.836 24.6073 360.165 25.9585L376 25.9585Z" fill="#FFBE1D"/>
</g>
<defs>
<clipPath id="clip0_1_3321">
<rect width="376" height="26" fill="white" transform="matrix(-1 0 0 -1 376 26)"/>
</clipPath>
</defs>
</svg>
