<svg width="200" height="200" viewBox="0 0 200 200" fill="none" xmlns="http://www.w3.org/2000/svg">
<g id="Illustration - Food" clip-path="url(#clip0_806_30928)">
<g id="Food">
<path id="Vector" d="M200 0H0V200H200V0Z" fill="white"/>
<g id="Group">
<path id="Blob" fill-rule="evenodd" clip-rule="evenodd" d="M109.642 17.3334C156.4 17.3334 166.244 82.1326 166.435 82.6659C166.632 83.2152 166.818 83.7806 166.998 84.3294C167.362 85.444 167.832 86.5171 168.196 87.6243C168.42 88.2998 168.83 88.8592 169.104 89.4971C169.638 90.7158 170.291 91.8787 171.055 92.9683C171.37 93.3998 171.618 93.8766 171.79 94.3824C171.91 94.7696 172.31 94.8731 172.482 95.2147C172.762 95.7678 173.134 96.2731 173.456 96.8043C173.53 96.991 173.698 97.1238 173.897 97.1515L173.834 97.6787C173.951 97.8688 173.991 97.612 174.113 97.6571C174.266 97.863 174.484 98.0456 174.506 98.359C174.526 98.6534 174.87 98.6811 174.987 98.9379C175.245 99.4955 175.962 99.7798 175.952 100.511C176.467 100.835 176.721 101.391 177.11 101.827C177.31 102.028 177.432 102.292 177.455 102.573L177.458 102.637C177.455 102.917 177.994 102.854 177.849 103.235C178.674 103.854 178.888 104.865 179.324 105.703C180.023 107.048 180.828 108.347 181.302 109.82C181.54 110.556 182.001 111.253 182.257 111.999C182.833 113.675 183.525 115.315 183.899 117.062C184.054 117.783 184.369 118.47 184.517 119.193L184.687 120.029C184.941 121.283 185.182 122.541 185.341 123.812C185.423 124.099 185.423 124.403 185.341 124.689C185.204 125.016 185.569 125.225 185.598 125.552C185.635 125.941 185.48 126.309 185.592 126.721C185.653 126.948 185.592 127.313 185.662 127.577C185.892 128.434 185.601 129.318 185.851 130.169C185.89 130.498 185.856 130.831 185.75 131.146C185.577 132.194 185.893 133.264 185.578 134.287C185.43 134.792 185.402 135.323 185.495 135.84L185.534 136.039C185.562 136.186 185.58 136.33 185.508 136.429C185.22 136.822 185.294 137.286 185.237 137.716L185.226 137.787C185.143 138.268 185.229 138.773 185.083 139.263C184.885 139.743 184.773 140.255 184.754 140.774C184.828 141.654 184.531 142.443 184.35 143.261C184.259 143.669 184.334 144.154 183.885 144.458C183.656 144.612 184.196 144.912 183.869 145.138L183.83 145.162C183.59 145.297 183.601 145.516 183.668 145.778C183.73 146.017 183.312 146.182 183.432 146.427C183.551 146.672 183.605 147.028 183.466 147.073C183.116 147.188 183.472 147.568 183.178 147.64C183.149 147.656 183.129 147.684 183.124 147.716C183.024 148.635 182.432 149.39 182.286 150.308C182.175 150.857 181.961 151.38 181.656 151.849C181.404 152.302 181.189 152.775 181.014 153.264C180.686 154.085 180.124 154.771 179.808 155.589C179.721 155.81 179.148 155.736 179.44 156.19C179.105 156.308 179.207 156.655 179.073 156.871C178.924 157.034 178.752 157.174 178.561 157.285C178.438 157.771 178.201 158.222 177.87 158.601C177.293 159.445 176.662 160.253 175.983 161.018L175.421 161.646C174.671 162.485 173.896 163.305 172.908 163.882C172.653 164.031 172.769 164.313 172.56 164.465C171.348 165.36 170.231 166.376 168.852 167.054C168.274 167.338 167.779 167.843 167.189 168.138C166.071 168.7 165.033 169.399 163.836 169.836L163.624 169.91C162.862 170.163 162.112 170.548 161.338 170.827C159.75 171.451 158.092 171.882 156.4 172.11L155.356 172.226C154.429 172.328 153.5 172.422 152.562 172.448C152.119 172.46 151.694 172.32 151.288 172.37C150.892 172.42 150.491 172.388 150.108 172.275C149.806 172.191 149.551 172.451 149.226 172.311C148.976 172.155 148.667 172.132 148.398 172.246L148.344 172.27C148.19 172.359 147.887 172.194 147.652 172.141C147.309 172.094 146.972 172.01 146.647 171.893C146.395 171.777 146.074 172.151 145.898 171.753C145.579 172 123.917 166.853 104.018 177.306C102.397 178.379 100.501 178.851 98.7696 179.685C97.9646 180.073 97.0598 180.251 96.1934 180.516L96.0083 180.574C94.4787 181.069 92.9102 181.406 91.3438 181.758C89.9048 182.07 88.4467 182.287 86.979 182.407C85.9238 182.502 84.8638 182.547 83.8112 182.662C83.3843 182.708 82.9659 182.407 82.5483 182.666C81.6096 182.41 80.6246 182.72 79.6886 182.432C79.0662 182.616 78.4814 182.387 77.9094 182.219C77.4726 182.089 77.0611 182.358 76.62 182.167C76.2184 181.958 75.7686 181.858 75.316 181.878C74.5646 181.993 73.9104 181.717 73.2262 181.572C71.6358 181.233 70.051 180.867 68.472 180.473C67.955 180.344 67.3742 180.394 66.9312 179.999C66.5424 179.651 65.9291 179.869 65.5472 179.459C65.408 179.31 65.2302 179.599 65.0203 179.486C64.6107 179.266 64.0846 179.411 63.7019 179.015C63.4184 178.721 62.8835 178.92 62.5699 178.565L62.5286 178.514C62.3432 178.256 61.8547 178.863 61.7102 178.29C61.1262 178.245 60.6422 177.927 60.1222 177.709C59.6915 177.529 59.183 177.63 58.7942 177.255C58.463 176.935 57.8371 177.171 57.5502 176.691C56.848 176.686 56.3304 176.16 55.6614 176.022C55.1536 175.889 54.6659 175.688 54.2115 175.426C53.491 175.055 52.7595 174.706 52.0224 174.375C51.7582 174.252 51.5008 174.115 51.2515 173.963C51.1118 173.882 51.0779 173.701 50.8782 173.657C49.6144 173.377 48.5518 172.64 47.4723 171.996C46.8566 171.678 46.2678 171.311 45.711 170.899L45.5264 170.76C45.3635 170.62 45.0251 170.551 44.8819 170.356C44.4824 169.814 43.8851 169.549 43.3432 169.223L43.2536 169.168C42.9483 168.988 42.671 168.765 42.4299 168.505C42.3843 168.456 42.3659 168.349 42.3174 168.337C41.4182 168.114 40.8814 167.372 40.1939 166.853C39.6024 166.406 39.0854 165.862 38.503 165.408L38.2811 165.242C36.9184 164.267 22.0058 147.858 20.316 145.026L19.8324 144.215C19.3495 143.403 18.8722 142.586 18.4327 141.751L18.0585 141.042C17.6848 140.33 17.317 139.613 16.9918 138.884L16.5568 137.911C15.6888 135.964 14.8394 134.006 14.1155 131.995C13.47 130.202 12.9355 128.378 12.396 126.553C12.0505 125.382 11.7585 124.205 11.5118 123.011C11.1177 121.103 10.7662 119.187 10.4574 117.264C10.1695 115.453 10.276 113.616 9.89141 111.825C10.1434 110.726 9.68014 109.61 9.96776 108.512C9.7544 107.969 9.94203 107.406 9.96208 106.872C9.98264 106.32 9.85885 105.742 10.0792 105.183C10.1802 104.929 9.9468 104.623 10.0733 104.313C10.2121 104.055 10.2281 103.748 10.1169 103.477C10.4916 103.305 10.045 103.04 10.2006 102.794C10.3684 102.528 10.4425 102.214 10.4112 101.901C10.3021 101.2 10.7057 100.553 10.6349 99.92C10.561 99.2728 10.8806 98.724 10.8797 98.1438L10.8755 98.0347C10.8203 97.2731 11.3648 96.6995 11.383 95.979C11.3847 95.916 11.5337 95.8579 11.6154 95.7952C11.5892 95.6331 11.4099 95.6699 11.2828 95.5438C11.4858 95.3675 11.6634 95.1643 11.8106 94.9395C11.9219 94.6312 12.0011 94.3126 12.0466 93.988L11.5305 93.3222C11.721 92.9414 11.6546 92.595 11.9089 92.2963C12.0195 92.1656 11.9578 91.767 11.9715 91.4915C11.9895 91.1299 12.4543 90.9144 12.3421 90.6288C12.2557 90.3003 12.2837 89.952 12.4216 89.6416C13.0865 86.7102 13.7638 83.7816 14.4535 80.8558C14.5261 80.5422 14.4629 80.1478 14.8489 79.964C14.4271 79.5286 15.0894 79.3766 15.0997 79.0315C15.1535 78.7088 15.2778 78.4022 15.4638 78.1328C15.7272 77.6294 15.7514 77.004 15.9015 76.4366C15.941 76.0352 16.093 75.6534 16.34 75.3342C16.5969 75.0683 16.5599 74.6048 16.7534 74.2312C17.0266 73.78 17.2384 73.2944 17.3831 72.787C17.4267 72.4227 17.5721 72.0776 17.8025 71.7915C18.0071 71.5656 17.8391 71.0979 18.2368 70.9275C18.3483 70.272 18.7398 69.7454 19.0296 69.171L19.0826 69.0627C19.7945 67.5846 20.5946 66.1504 21.4786 64.7678C22.213 63.6043 22.9277 62.4286 23.6733 61.2723C23.9159 60.899 24.1739 60.5272 24.4406 60.1728C25.3673 58.8696 26.3654 57.6187 27.4304 56.4256C28.4046 55.3934 29.3331 54.3147 30.3558 53.3222C30.8995 52.7942 31.3443 52.1459 31.8723 51.5851C33.1163 50.2611 34.3936 48.9731 35.7371 47.7507C36.8718 46.6299 38.1126 45.6214 39.4422 44.7395C39.8038 44.5195 40.1008 44.1974 40.4499 43.9539C40.8734 43.7206 41.2798 43.4576 41.6662 43.1667C42.1155 42.744 42.667 42.4752 43.1208 42.0838C43.4731 41.78 44.0368 41.9534 44.2891 41.4067C44.4728 41.0091 45.1608 41.155 45.3923 40.6904C46.0275 40.6691 46.324 40.0542 46.9008 39.852L46.9776 39.8283C47.5854 39.6624 48.104 39.172 48.6614 38.8243C49.1992 38.4435 49.7616 38.099 50.3456 37.7934C51.4416 37.2998 52.3875 36.5478 53.459 36.0379C54.4803 35.5526 55.3995 34.8419 56.5136 34.5715C56.7768 34.5078 56.7278 34.2755 56.9088 34.1766C57.0974 34.0728 57.3038 34.1416 57.4739 34.0222C58.1784 33.5624 62.8851 17.3334 109.642 17.3334Z" fill="#FFBE1D"/>
<path id="Shape" fill-rule="evenodd" clip-rule="evenodd" d="M56.8998 52.1198C55.3358 53.0022 53.0456 51.8766 52.7888 50.0993C53.7864 50.0459 54.8526 49.9681 55.6414 49.355C56.4299 48.7417 56.7059 47.3838 55.9155 46.7729C49.4798 45.9825 43.219 43.7961 37.6907 40.4075C41.4656 39.2702 44.7136 36.871 48.2595 35.147C51.8051 33.423 56.0936 32.4035 59.6299 34.1467C63.1022 35.8585 67.0995 33.675 70.723 32.3121C77.0235 29.9422 84.2486 30.1409 90.4094 32.8534C94.9043 34.8326 102.521 31.6203 107.377 30.8835C115.308 29.6801 123.051 35.239 131.015 34.2763C130.161 34.8414 129.306 35.4062 128.452 35.9713C129.294 35.8945 130.139 35.8633 130.984 35.8782C124.375 39.0411 117.765 42.2038 111.155 45.3667C112.83 46.0441 114.504 46.7214 116.179 47.3987C115.785 48.6606 114.374 49.5129 113.074 49.2739C114.12 50.1065 115.166 50.939 116.212 51.7716C115.096 52.5646 113.682 52.9291 112.321 52.7747C113.771 53.7105 114.967 55.0345 115.751 56.571C119.204 55.4206 122.986 55.279 126.516 56.1678C123.327 56.5859 120.138 57.0041 116.95 57.4219C117.431 58.7329 117.913 60.0441 118.394 61.355C122.56 60.4017 126.987 60.6185 131.039 61.9739C127.021 62.0763 123.002 62.1785 118.984 62.2809C118.89 67.6121 116.236 73.0489 111.575 75.6398C106.915 78.2305 97.6024 80.5342 94.5179 72.9907C92.1563 74.5406 92.3235 78.2662 94.0072 80.5342C95.691 82.8022 98.3659 84.0574 100.785 85.5156C108.821 90.3588 114.882 98.379 117.348 107.432C119.813 116.485 118.656 126.472 114.185 134.721C120.213 135.658 125.814 139.088 129.388 144.031C137.084 140.45 141.347 132.279 147.242 126.171C153.948 119.224 163.206 114.795 172.824 113.934C178.514 113.424 185.004 114.521 188.323 119.171C192.637 125.216 188.66 134.613 181.773 137.392C176.314 139.594 170.157 138.486 164.285 138.902C152.477 139.739 142.11 146.702 132.374 153.434C131.977 155.614 132.774 157.974 134.411 159.467C137.894 155.867 142.287 153.155 147.066 151.654C148.833 151.1 151.48 151.245 151.677 153.086C151.751 153.782 151.384 154.443 151.013 155.038C147.827 160.146 143.335 164.431 138.082 167.372C135.31 168.925 132.212 170.129 129.039 169.951C125.866 169.773 122.636 167.942 121.558 164.953C121.059 163.567 121.005 161.964 120.059 160.835C118.459 158.926 115.386 159.497 113.143 160.582C110.901 161.667 108.51 163.141 106.103 162.498C100.087 160.889 93.8264 160.199 87.6043 160.459C79.6806 160.791 71.6067 162.636 63.9296 160.646C61.3651 159.981 58.4952 158.933 56.2232 160.296C51.7459 162.981 54.7659 171.58 50.1726 174.062C48.5454 174.941 46.5515 174.617 44.7566 174.171C36.8243 172.202 29.384 168.282 23.2754 162.852C22.6867 162.329 22.0801 161.741 21.9151 160.971C21.4201 158.661 24.8301 157.7 27.1536 158.128C31.1006 158.854 34.8755 160.499 38.0947 162.896C39.223 163.736 40.94 162.756 41.4179 161.433C41.896 160.11 41.5672 158.653 41.3806 157.258C40.2022 148.451 45.7275 139.191 54.0384 136.046C49.0067 128.703 47.0934 119.295 48.8574 110.57C50.6214 101.845 56.0392 93.9196 63.5283 89.1084C66.52 87.1862 69.9574 85.6142 71.864 82.6126C73.7707 79.6113 72.9339 74.5755 69.4459 73.8835C66.1595 77.4427 60.8142 78.9484 56.1534 77.627C51.4923 76.306 47.732 72.2195 46.8019 67.4654C43.7083 68.5099 40.615 69.5547 37.5214 70.5995C40.2672 68.4835 43.5187 67.0286 46.9264 66.3913C47.2534 64.9742 47.5803 63.5574 47.9075 62.1404C42.0046 61.7596 36.0184 62.731 30.5392 64.959C33.911 62.4209 38.2011 61.1313 42.4134 61.3891C46.6979 61.6516 51.0534 59.5553 53.5208 56.0427C51.9771 55.5001 50.5896 54.5203 49.5616 53.2467C51.1363 52.3921 53.0432 52.1708 54.7715 52.6417M87.1814 145.055C86.9003 145.328 86.5979 145.653 86.6179 146.045C86.6376 146.436 87.2251 146.729 87.4278 146.393C88.5342 144.561 90.4579 143.243 92.5662 142.874C94.6747 142.505 96.9315 143.091 98.5944 144.438C99.1747 144.909 99.6926 145.471 100.355 145.814C100.594 145.938 101.002 145.942 101.012 145.673C101.015 145.585 100.965 145.505 100.915 145.432C99.7214 143.672 97.9358 142.32 95.9176 141.65C94.1483 141.062 92.0982 141.025 90.516 142.011C89.9414 142.369 89.4512 142.845 88.9662 143.317C88.3712 143.896 87.7763 144.476 87.1814 145.055ZM78.6016 141.852C76.311 141.55 73.8448 142.318 72.3195 144.054C72.0507 144.36 71.8062 144.704 71.7136 145.1C71.6214 145.497 71.7083 145.956 72.0155 146.223C73.1955 144.39 75.2923 143.181 77.4696 143.078C79.6472 142.976 81.8486 143.982 83.1958 145.696C83.4064 145.964 83.6075 146.257 83.9064 146.421C84.2056 146.584 84.6408 146.563 84.8227 146.275C85.0403 145.931 84.7774 145.49 84.5091 145.184C82.9872 143.446 80.892 142.155 78.6016 141.852ZM94.7587 139.507C94.7232 139.895 95.235 140.136 95.6027 140.009C95.9704 139.882 96.2142 139.543 96.4603 139.242C98.508 136.738 102.407 135.983 105.241 137.543C105.613 137.229 105.634 136.627 105.386 136.209C105.137 135.79 104.683 135.534 104.219 135.386C103.215 135.065 102.125 135.174 101.092 135.383C98.6472 135.878 96.1776 137.037 94.8923 139.175C94.8302 139.278 94.7699 139.387 94.7587 139.507ZM85.147 147.633C84.1422 147.702 83.1587 147.968 82.2179 148.328C80.9179 148.826 79.6379 149.551 78.8768 150.716C79.9928 151.032 81.0627 150.2 82.0822 149.647C84.3691 148.406 87.3355 148.534 89.507 149.968C90.188 150.418 91.0632 150.999 91.7275 150.524C90.1736 148.576 87.6328 147.46 85.147 147.633ZM89.275 147.004C90.0371 146.607 90.6464 145.962 91.4024 145.553C92.4435 144.99 93.7406 144.925 94.8328 145.381C95.4259 145.629 95.951 146.017 96.5355 146.284C97.1198 146.552 97.816 146.691 98.3982 146.418C98.4627 146.388 98.5296 146.348 98.5568 146.282C98.6011 146.175 98.5224 146.06 98.4462 145.973C97.1432 144.485 95.1019 143.68 93.1344 143.876C91.167 144.072 89.3251 145.266 88.3419 146.981C88.5472 147.252 88.9742 147.161 89.275 147.004ZM74.0115 147.075C74.4198 146.843 74.7392 146.484 75.1126 146.199C75.8592 145.629 76.8318 145.366 77.7648 145.475C78.8048 145.596 79.7424 146.146 80.6024 146.743C80.8539 146.918 81.1107 147.101 81.4088 147.17C81.7072 147.24 82.0624 147.165 82.231 146.909C82.3979 146.656 82.331 146.304 82.1523 146.059C81.9736 145.815 81.7056 145.654 81.4443 145.501C80.3814 144.877 79.2582 144.254 78.0275 144.19C76.4891 144.111 75.0595 144.913 73.7291 145.689C73.1894 146.004 72.5699 146.481 72.684 147.095C73.0534 147.385 73.6032 147.308 74.0115 147.075ZM80.9392 141.112C81.2171 141.472 81.7608 141.086 82.0672 140.752C83.0118 139.72 84.3731 139.081 85.7702 139.014C87.1675 138.947 88.5835 139.452 89.6224 140.389C89.8846 140.625 90.1608 140.904 90.5136 140.914C90.8662 140.923 91.184 140.431 90.9043 140.216C89.4064 139.065 87.664 138.125 85.7792 138.001C83.8947 137.877 81.8635 138.722 80.991 140.397C80.8742 140.622 80.7846 140.912 80.9392 141.112ZM97.6024 140.797C97.8512 140.692 98.0334 140.478 98.2238 140.287C99.6739 138.828 102.13 138.502 103.911 139.532C104.356 139.789 105.026 140.074 105.285 139.629C105.5 139.258 105.116 138.827 104.749 138.604C102.354 137.152 98.9406 137.705 97.127 139.839C96.9422 140.057 96.7651 140.355 96.892 140.61C97.012 140.852 97.3536 140.902 97.6024 140.797ZM98.9262 140.934C98.8232 141.021 98.7206 141.117 98.6774 141.244C98.5563 141.598 98.9872 141.93 99.3606 141.901C99.7342 141.871 100.051 141.631 100.39 141.471C101.217 141.081 102.209 141.174 103.048 141.536C103.38 141.68 103.701 141.865 104.058 141.918C104.416 141.972 104.833 141.854 104.995 141.531C103.574 139.77 100.663 139.484 98.9262 140.934ZM76.4571 140.258C76.6694 140.358 76.9587 140.339 77.095 140.149C77.2806 139.889 77.0819 139.537 76.8848 139.286C76.2179 138.438 75.5006 137.604 74.5838 137.035C73.667 136.466 72.5123 136.192 71.4915 136.541C71.3875 136.918 71.8568 137.174 72.2262 137.303C73.6483 137.799 74.9392 138.666 75.9352 139.796C76.0902 139.972 76.2451 140.159 76.4571 140.258ZM89.0248 141.205C87.3464 140.134 85.0555 140.116 83.3598 141.158C83.0651 141.34 82.7624 141.594 82.7395 141.94C82.7166 142.285 83.1854 142.605 83.4179 142.349C84.3544 141.316 86.0662 141.102 87.2286 141.872C87.7992 142.25 88.6187 142.198 89.1376 141.752C89.3827 141.726 89.2323 141.337 89.0248 141.205ZM101.233 146.996C98.8488 146.835 96.6296 148.238 94.8987 149.887C95.0248 150.178 95.4547 150.101 95.7459 149.975C97.7171 149.122 99.6883 148.269 101.659 147.415C101.807 147.219 101.479 147.013 101.233 146.996ZM78.5374 148.058C78.8307 148.225 79.1179 148.451 79.455 148.451C79.7923 148.451 80.1264 148.045 79.9126 147.785C79.2392 146.964 78.1808 146.473 77.1192 146.489C76.0574 146.505 75.0147 147.028 74.3667 147.87C74.4467 148.175 74.8208 148.316 75.1334 148.27C75.4459 148.225 75.7214 148.049 76.0115 147.923C76.8134 147.576 77.7771 147.627 78.5374 148.058ZM90.3627 147.834C90.3358 148.069 90.6019 148.249 90.8379 148.236C91.0739 148.223 91.2811 148.085 91.488 147.971C92.3568 147.492 93.4264 147.394 94.3678 147.707C94.971 147.907 95.7235 148.234 96.1587 147.772C96.1971 147.507 95.9315 147.307 95.6955 147.182C94.8502 146.732 93.9195 146.393 92.9619 146.402C92.0043 146.41 91.0163 146.812 90.4694 147.598C90.4198 147.67 90.3726 147.748 90.3627 147.834ZM88.5827 137.53C89.5686 137.884 90.4867 138.424 91.2731 139.116C91.5974 139.4 91.9078 139.716 92.3011 139.894C92.6944 140.072 93.2051 140.076 93.5131 139.774C92.8318 139.251 92.2723 138.571 91.8904 137.802C91.6848 137.388 91.1368 137.312 90.675 137.289C89.9998 137.256 89.3248 137.223 88.6496 137.19C88.5784 137.286 88.5531 137.415 88.5827 137.53ZM79.7774 139.901C80.1259 139.576 80.3832 139.165 80.7051 138.813C81.2046 138.268 81.8624 137.869 82.5768 137.678C82.8854 137.596 83.2907 137.438 83.244 137.123C82.3707 136.971 81.3739 136.849 80.6851 137.406C79.7206 138.188 78.9555 139.214 78.4824 140.362C78.948 140.465 79.4288 140.226 79.7774 139.901ZM72.0134 139.506C72.6392 139.914 73.2654 140.321 73.8912 140.729C74.1563 140.902 74.4944 141.079 74.7694 140.922C75.0246 140.777 75.0635 140.403 74.9304 140.142C74.7976 139.88 74.544 139.705 74.3006 139.541C73.791 139.198 73.2814 138.855 72.7718 138.512C72.3448 138.224 71.6496 137.995 71.4176 138.454C71.2174 138.85 71.6416 139.264 72.0134 139.506ZM85.1928 144.409C85.4323 144.646 85.7678 144.903 86.0723 144.757C86.211 144.691 86.3003 144.554 86.3824 144.425C86.6539 143.996 86.9254 143.567 87.1966 143.138C86.4862 142.348 85.0915 142.327 84.3574 143.095C84.3011 143.154 84.2462 143.221 84.236 143.302C84.22 143.431 84.3192 143.542 84.411 143.633C84.6715 143.892 84.9323 144.15 85.1928 144.409ZM74.2392 150.541C74.7483 150.72 75.3491 150.773 75.7979 150.474C75.1222 149.697 74.3299 149.02 73.456 148.475C73.208 148.32 72.9286 148.171 72.6392 148.212C72.3499 148.253 72.0939 148.582 72.2339 148.839C72.664 149.626 73.3928 150.245 74.2392 150.541ZM102.168 144.293C102.408 144.003 102.649 143.712 102.889 143.421C102.972 143.321 103.06 143.208 103.055 143.078C103.048 142.913 102.897 142.795 102.753 142.714C102.253 142.433 101.663 142.316 101.094 142.384C100.876 142.41 100.649 142.47 100.496 142.626C100.343 142.784 100.299 143.062 100.453 143.219C100.802 143.572 101.151 143.926 101.501 144.28C101.615 144.396 101.759 144.521 101.918 144.486C102.023 144.464 102.099 144.376 102.168 144.293ZM77.0651 138.013C77.2808 138.246 77.552 138.484 77.868 138.457C78.5454 138.401 78.764 137.232 79.4408 137.296C79.6224 136.997 79.1267 136.757 78.7763 136.751C77.8696 136.737 76.963 136.723 76.0566 136.708C76.3523 137.173 76.6904 137.61 77.0651 138.013ZM82.6643 150.756C84.5502 150.748 86.436 150.74 88.3222 150.732C88.1568 150.359 87.7144 150.207 87.315 150.125C86.0064 149.853 84.6342 149.895 83.344 150.244C83.0552 150.323 82.7256 150.463 82.6643 150.756ZM94.3088 148.772C93.6848 148.8 93.0608 148.828 92.4368 148.856C92.2355 148.865 91.9768 148.924 91.952 149.124C91.9411 149.213 91.9859 149.299 92.0294 149.378C92.1944 149.678 92.3699 149.989 92.6552 150.178C92.9406 150.366 93.3699 150.385 93.5918 150.125C93.7619 149.925 93.7752 149.614 93.9782 149.448C94.1088 149.341 94.2902 149.32 94.4347 149.232C94.5795 149.145 94.6715 148.918 94.5374 148.815C94.4744 148.766 94.388 148.768 94.3088 148.772ZM78.152 149.815C78.3187 149.555 78.1611 149.187 77.9014 149.02C77.6416 148.852 77.3168 148.832 77.0083 148.817C76.6675 148.8 76.2187 148.863 76.1574 149.198C76.1283 149.358 76.2099 149.516 76.2886 149.658C76.5198 150.075 76.86 150.554 77.335 150.507C77.7032 150.47 77.9523 150.127 78.152 149.815ZM102.801 146.073C103.081 146.097 103.332 145.907 103.529 145.706C104.128 145.093 104.509 144.271 104.59 143.418C104.391 143.291 104.149 143.488 103.997 143.668C103.487 144.271 102.977 144.874 102.466 145.478C102.285 145.692 102.521 146.05 102.801 146.073ZM71.5878 141.799C71.8723 142.155 72.4211 142.267 72.8222 142.05C73.0275 141.939 73.2006 141.719 73.1598 141.489C73.1235 141.284 72.9374 141.146 72.7656 141.029C72.5174 140.86 72.2694 140.69 72.0211 140.521C71.9454 140.469 71.8582 140.415 71.7686 140.434C71.7064 140.446 71.6568 140.492 71.6152 140.54C71.3155 140.883 71.3032 141.443 71.5878 141.799ZM93.6246 138.041C93.9224 138.291 94.364 138.032 94.6598 137.78C94.9806 137.505 95.3014 137.231 95.6224 136.957C95.4408 136.784 95.1504 136.823 94.9046 136.874C94.1902 137.021 93.4758 137.169 92.7614 137.317C93.0491 137.558 93.3368 137.799 93.6246 138.041ZM104.843 134.536C105.023 134.76 105.402 134.712 105.608 134.512C105.814 134.312 105.89 134.016 105.949 133.735C105.963 133.668 105.977 133.594 105.949 133.532C105.876 133.371 105.639 133.42 105.48 133.494C105.051 133.693 104.547 134.168 104.843 134.536Z" fill="white"/>
<path id="Shape_2" fill-rule="evenodd" clip-rule="evenodd" d="M48.8572 110.571C50.6212 101.846 56.6527 94.5424 64.1418 89.7312C60.3554 94.9219 48.7354 103.434 52.4703 112.917C58.4402 128.076 81.6647 130.46 80.8567 130.625C67.1204 133.426 47.5439 117.067 48.8572 110.571Z" fill="#E7EAEE"/>
<g id="Food_2">
<path id="Combined Shape" fill-rule="evenodd" clip-rule="evenodd" d="M92.7952 34.8571C91.8395 34.9731 90.9976 35.7385 90.7912 36.6787C98.5267 32.5195 107.87 31.4505 116.345 33.7542C116.352 38.0283 113.354 42.1393 109.282 43.4382L100.454 46.2545C102.783 46.5129 105.176 46.1713 107.339 45.2718C108.108 46.483 109.374 47.3678 110.776 47.6726L108.062 48.2678C108.462 49.4867 109.279 50.5649 110.345 51.2796C109.441 50.9699 108.435 50.9667 107.529 51.2707L108.136 53.4771C104.135 52.9219 99.8595 53.4668 96.4894 55.694C93.1192 57.9212 90.8563 62.0153 91.4635 66.0089C92.1742 61.6667 95.1499 57.7603 99.147 55.9217C103.144 54.0827 108.046 54.3654 111.806 56.651L109.256 58.5398C110.235 58.9294 111.396 58.8299 112.294 58.2793C114.257 59.1478 113.714 62.739 111.582 62.9878L114.402 63.1841C114.891 67.9793 111.929 72.9246 107.47 74.7564C103.011 76.5881 97.4278 75.1537 94.4043 71.3995C90.6512 73.3161 90.9144 79.1249 93.5891 82.3814C95.4563 84.6547 98.0278 86.1316 100.603 87.6108C101.717 88.2505 102.832 88.8908 103.891 89.5963C109.517 93.3433 113.71 99.1862 115.459 105.715C112.404 107.761 109.687 110.309 107.45 113.226C110.76 113.072 114.001 111.721 116.442 109.481L116.963 114.522C114.283 115.347 111.876 117.032 110.182 119.266C112.57 119.509 115.033 118.951 117.083 117.703C116.349 123.504 115.023 129.23 113.134 134.763L106.975 134.713C108.436 130.675 109.917 126.33 108.84 122.173C107.763 118.016 102.935 114.584 99.1344 116.584C103.505 113.06 106.815 108.238 108.531 102.892L97.5238 117.1L89.0774 117.172C88.8118 113.192 88.5563 109.113 89.6878 105.288C90.819 101.464 93.6438 97.8833 97.5358 97.0113C97.9579 96.9166 98.4075 96.8395 98.863 96.7617C100.765 96.4358 102.771 96.0921 103.329 94.3731C97.0203 94.0059 90.696 98.0449 88.3755 103.923C86.7219 108.112 87.0131 112.781 87.3299 117.273C81.4974 116.432 75.5251 116.567 69.7366 117.671C68.7318 114.246 67.6896 110.744 65.5816 107.863C63.4739 104.982 60.0518 102.797 56.4998 103.153C62.22 104.003 65.0536 110.359 67.2107 115.725C69.3678 121.091 73.2835 127.22 79.0424 126.689C80.6824 126.538 81.2046 129.232 79.9475 130.296C78.6904 131.36 76.823 131.158 75.2139 130.806C66.9259 128.992 59.188 124.736 53.2176 118.708C52.0552 117.534 50.9312 116.25 50.3939 114.688C49.7312 112.761 50.04 110.632 50.6099 108.675C53.5211 98.6782 62.4803 91.8284 70.9947 85.835C75.5755 82.6105 75.4112 74.6195 70.7019 71.5862C67.2158 74.7539 62.5675 76.9692 57.8854 76.4524C53.2035 75.9356 48.7723 72.102 48.6214 67.394C50.0918 67.2644 51.5331 66.8129 52.8147 66.0806C51.5568 65.6334 50.139 65.6526 48.8934 66.1334C48.5547 64.8646 48.8019 63.4515 49.5515 62.3734L52.2211 62.0881C51.6843 61.4814 50.9358 61.0657 50.1371 60.931C52.0638 57.7209 56.535 56.8422 60.1184 57.927C63.7016 59.0118 66.6038 61.5961 69.38 64.1078C66.4851 57.7604 58.635 55.7145 51.7808 54.4137L54.7715 52.6417C53.0432 52.1708 51.1363 52.3921 49.5616 53.2467C50.5896 54.5203 51.9771 55.5001 53.5208 56.0427C51.0534 59.5553 46.6979 61.6516 42.4134 61.3891C38.2011 61.1313 33.911 62.4209 30.5392 64.959C36.0184 62.731 42.0046 61.7596 47.9075 62.1404L46.9264 66.3913C43.5187 67.0286 40.2672 68.4835 37.5214 70.5995L46.8019 67.4654C47.732 72.2195 51.4923 76.306 56.1534 77.627C60.8142 78.9484 66.1595 77.4427 69.4459 73.8835C72.9339 74.5755 73.7707 79.6113 71.864 82.6126C70.3544 84.9894 67.8851 86.4697 65.4371 87.9374C64.7934 88.3233 64.1512 88.7081 63.5283 89.1084C56.0392 93.9196 50.6214 101.845 48.8574 110.57C47.0934 119.295 49.0067 128.703 54.0384 136.046C45.7275 139.191 40.2022 148.451 41.3806 157.258C41.4075 157.46 41.4374 157.663 41.4675 157.867C41.6454 159.072 41.827 160.301 41.4179 161.433C40.94 162.756 39.223 163.736 38.0947 162.896C34.8755 160.499 31.1006 158.854 27.1536 158.128C24.8301 157.7 21.4201 158.661 21.9151 160.971C22.0801 161.741 22.6867 162.329 23.2754 162.852C29.384 168.282 36.8243 172.202 44.7566 174.171C46.5515 174.617 48.5454 174.941 50.1726 174.062C52.4888 172.81 52.8691 170.003 53.2512 167.183C53.6267 164.411 54.0038 161.627 56.2232 160.296C58.2275 159.093 60.6971 159.767 63.0118 160.399L63.0131 160.4C63.3219 160.484 63.628 160.568 63.9296 160.646C69.4342 162.072 75.1422 161.528 80.8528 160.983C83.1072 160.768 85.3616 160.553 87.6043 160.459C93.8264 160.199 100.087 160.889 106.103 162.498C108.199 163.058 110.282 162.013 112.266 161.017C112.561 160.869 112.853 160.722 113.143 160.582C115.386 159.497 118.459 158.926 120.059 160.835C120.692 161.59 120.925 162.558 121.16 163.53V163.53H121.16V163.531V163.532L121.161 163.532V163.532V163.533H121.161V163.533V163.534C121.277 164.014 121.393 164.495 121.558 164.953C122.636 167.942 125.866 169.773 129.039 169.951C132.212 170.129 135.31 168.925 138.082 167.372C143.335 164.431 147.827 160.146 151.013 155.038C151.384 154.443 151.751 153.782 151.677 153.086C151.48 151.245 148.833 151.1 147.066 151.654C142.287 153.155 137.894 155.867 134.411 159.467C132.774 157.974 131.977 155.614 132.374 153.434C142.11 146.702 152.477 139.739 164.285 138.902C166.136 138.771 168.016 138.792 169.893 138.812C173.97 138.856 178.035 138.9 181.773 137.392C188.66 134.613 192.637 125.216 188.323 119.171C185.004 114.521 178.514 113.424 172.824 113.934C163.206 114.795 153.948 119.224 147.242 126.171C145.379 128.102 143.678 130.238 141.981 132.371C138.309 136.986 134.651 141.582 129.388 144.031C125.814 139.088 120.213 135.658 114.185 134.721C118.656 126.472 119.813 116.485 117.348 107.432C114.882 98.379 108.821 90.3588 100.785 85.5156C100.347 85.2516 99.9011 84.9945 99.4539 84.7366L99.4536 84.7363C97.4299 83.5699 95.3862 82.3915 94.0072 80.5342C92.3235 78.2662 92.1563 74.5406 94.5179 72.9907C97.6582 77.2998 104.248 78.2305 108.909 75.6398C113.569 73.0489 116.223 67.6121 116.317 62.2809L128.372 61.9739C124.32 60.6185 119.893 60.4017 115.728 61.355L114.283 57.4219L123.849 56.1678C120.32 55.279 116.538 55.4206 113.085 56.571C112.3 55.0345 111.104 53.7105 109.655 52.7747C111.016 52.9291 112.429 52.5646 113.546 51.7716L110.407 49.2739C111.707 49.5129 113.118 48.6606 113.512 47.3987L108.489 45.3667L128.318 35.8782C127.473 35.8633 126.627 35.8945 125.785 35.9713L128.349 34.2763C124.435 34.7494 120.575 33.6478 116.72 32.5475C112.729 31.4089 108.744 30.2715 104.71 30.8835C103.125 31.1241 101.53 31.6281 99.944 32.1297C96.6712 33.1641 93.4371 34.1867 90.4094 32.8534C84.2486 30.1409 77.0235 29.9422 70.723 32.3121C70.1659 32.5217 69.5998 32.7507 69.0283 32.9819C65.8827 34.2545 62.5683 35.5953 59.6299 34.1467C56.0936 32.4035 51.8051 33.423 48.2595 35.147C47.0147 35.7521 45.8067 36.4406 44.5998 37.1283C42.3683 38.3998 40.1406 39.6694 37.6907 40.4075C43.219 43.7961 49.4798 45.9825 55.9155 46.7729C56.7059 47.3838 56.4299 48.7417 55.6414 49.355C54.8526 49.9681 53.7864 50.0459 52.7888 50.0993C53.0456 51.8766 55.3358 53.0022 56.8998 52.1198C56.2424 52.242 56.1934 51.1742 56.4664 50.5641L58.1704 46.7561C59.4939 47.2419 61.1408 46.4622 61.6038 45.1307C58.3267 45.5251 54.9264 45.9089 51.787 44.8894C48.6478 43.8699 45.8427 41.0257 45.9899 37.7281C52.9811 33.6777 62.3662 34.2262 68.8379 39.0633C68.3382 37.6051 67.1099 36.4169 65.6358 35.9659C67.3379 34.2902 69.5974 33.1905 71.9662 32.8849C70.559 33.9982 69.9139 35.9889 70.4008 37.7161L76.7195 31.9046C75.683 33.7627 75.1024 35.8731 75.0427 38.0001C77.3859 36.4686 79.2528 34.219 80.3262 31.6334L83.1368 32.0281C81.416 33.4819 80.4574 35.7923 80.6432 38.0374C82.7851 36.7059 84.4454 34.6174 85.26 32.2307C87.8995 32.6571 90.4627 33.5507 92.7952 34.8571ZM170.438 137.735C169.025 137.688 167.611 137.641 166.205 137.681C155.741 137.978 146.012 143.075 137.379 148.995L137.289 149.056L137.192 149.123L137.022 149.24L137.015 149.245C135.377 150.372 133.722 151.51 131.852 152.174L129.655 145.77C129.537 145.427 129.464 144.955 129.783 144.782C133.143 142.965 136.211 140.61 138.834 137.834C140.582 135.984 142.132 133.951 143.681 131.921C145.874 129.046 148.063 126.175 150.804 123.836C155.182 120.1 160.693 117.961 166.222 116.367C170.314 115.186 174.603 114.261 178.812 114.909C183.021 115.557 187.166 118.069 188.709 122.039C189.935 125.192 189.335 128.91 187.447 131.717C185.558 134.523 182.491 136.433 179.205 137.234C176.346 137.93 173.395 137.833 170.438 137.735ZM50.0371 151.301C50.2584 151.827 50.3979 152.529 49.9563 152.891C49.3872 153.357 48.5803 152.756 48.1022 152.198L44.0275 147.436C43.052 149.972 42.6046 152.71 42.7216 155.424C42.7451 155.968 42.7894 156.52 42.8339 157.074V157.075L42.8342 157.075V157.076V157.076V157.076C43.0046 159.197 43.1771 161.345 42.195 163.184C41.7643 163.99 41.0315 164.731 40.119 164.79C39.6019 164.824 39.0984 164.634 38.6211 164.433C37.3128 163.879 36.0238 163.199 34.7352 162.52C31.4179 160.77 28.1035 159.022 24.4712 159.439C23.9751 159.496 23.3574 159.74 23.3768 160.239C23.3855 160.463 23.5312 160.655 23.673 160.828C28.9099 167.224 37.0992 170.325 45.027 172.667C46.3235 173.05 47.6899 173.423 49.0102 173.132C50.3304 172.841 51.556 171.65 51.3966 170.308C50.9747 166.756 52.0875 163.048 54.3958 160.316C55.3171 159.225 56.4822 158.254 57.88 157.963C59.5974 157.607 61.2758 158.314 62.9288 159.011C63.3534 159.19 63.7766 159.368 64.1979 159.528C67.4291 160.749 71.0608 160.882 74.3728 159.901C73.0779 159.884 72.456 158.332 72.1878 157.065C70.4491 148.858 69.5246 140.478 69.4326 132.089C69.4227 131.177 68.7827 130.371 68.011 129.884C67.3576 129.473 66.6126 129.244 65.8718 129.016C65.7376 128.975 65.6035 128.934 65.4699 128.891C62.7726 128.037 60.231 126.693 58.0054 124.946C57.7248 124.726 57.4488 124.499 57.1723 124.272C56.3206 123.572 55.468 122.871 54.4902 122.369C53.1952 121.705 51.5926 121.434 50.2947 122.093C50.0051 122.783 50.5286 123.584 51.1984 123.917C51.7059 124.17 52.2744 124.238 52.8414 124.306C53.0232 124.328 53.2048 124.35 53.384 124.378C54.2371 124.511 55.0675 124.788 55.8286 125.196C56.6278 125.624 57.3851 126.754 56.6726 127.316C56.3803 127.546 55.971 127.529 55.6 127.502L51.416 127.195C52.436 129.97 53.7363 132.641 55.291 135.156C55.4304 135.382 55.6168 135.633 55.8822 135.635C59.9811 135.672 64.5584 136.246 67.156 139.417C67.6483 140.018 68.0523 140.887 67.6302 141.539C65.2491 138.664 61.5246 136.952 57.792 137.016C54.0595 137.081 50.3963 138.92 48.116 141.876C50.1288 143.223 51.7288 145.178 52.6512 147.418C52.9296 148.094 52.8784 149.2 52.1472 149.185L47.7552 143.808C47.559 143.567 47.323 143.306 47.0128 143.297C46.7643 143.289 46.5451 143.448 46.3478 143.6C45.9206 143.928 45.4771 144.276 45.2542 144.767C45.0312 145.257 45.1142 145.932 45.5787 146.205C47.5587 147.368 49.1475 149.184 50.0371 151.301ZM100.109 159.716C102.929 157.364 103.849 153.489 104.607 149.895L107.382 136.726C107.412 136.585 107.446 136.436 107.547 136.334C107.681 136.199 107.89 136.184 108.08 136.178C113.139 136.025 118.525 136.508 122.6 139.51C120.937 140.334 119.484 141.577 118.411 143.091C118.11 143.516 117.859 144.155 118.246 144.502C118.391 144.633 118.594 144.679 118.789 144.693C119.76 144.762 120.647 144.155 121.357 143.489C121.51 143.345 121.661 143.196 121.811 143.048C122.358 142.506 122.908 141.962 123.603 141.644C124.488 141.239 125.718 141.352 126.207 142.195C124.627 142.999 123.326 144.337 122.566 145.938C122.369 146.355 122.205 146.837 122.365 147.27C122.526 147.702 123.156 147.956 123.466 147.614L126.517 144.246C126.664 144.083 126.869 143.905 127.076 143.98C127.187 144.021 127.26 144.126 127.324 144.226C128.941 146.763 129.583 149.717 130.229 152.684C130.607 154.421 130.986 156.163 131.562 157.828C132.023 159.162 132.914 160.66 134.326 160.661C135.106 160.662 135.796 160.182 136.413 159.705C137.073 159.196 137.73 158.661 138.39 158.124C141.493 155.6 144.666 153.017 148.573 152.708C149.189 152.659 149.98 152.795 150.124 153.396C150.208 153.745 150.02 154.096 149.833 154.402C146.929 159.156 142.572 162.905 137.759 165.71C135.295 167.147 132.593 168.381 129.741 168.403C126.889 168.425 123.868 166.967 122.79 164.326C122.571 163.787 122.436 163.218 122.302 162.65L122.302 162.65C122.146 161.993 121.991 161.337 121.704 160.728C120.965 159.159 119.325 158.055 117.594 157.959C115.945 157.868 114.429 158.602 112.916 159.335C112.384 159.593 111.853 159.85 111.317 160.071C107.756 161.54 103.57 161.407 100.109 159.716ZM81.2819 131.364C80.22 132.27 78.792 132.632 77.4 132.734C74.8923 132.918 72.3334 132.331 70.1566 131.072L71.0547 134.472C71.0934 134.618 71.1395 134.776 71.2611 134.866C71.3667 134.945 71.5067 134.954 71.6382 134.961L84.5438 135.64C86.4254 135.738 88.3094 135.837 90.1926 135.783C95.475 135.63 100.718 134.251 105.392 131.785C105.662 131.643 105.937 131.492 106.131 131.257C106.362 130.976 106.454 130.609 106.531 130.254C107.186 127.252 107.299 124.132 106.863 121.089C106.757 120.342 106.608 119.576 106.188 118.949C105.768 118.321 105.012 117.863 104.27 118.004C96.676 119.45 88.9235 119.004 81.1715 118.557H81.1712H81.171H81.1704H81.1702H81.1699H81.1696C78.2478 118.389 75.3259 118.22 72.4128 118.153C71.8926 118.141 71.3456 118.139 70.8886 118.388C70.4318 118.637 70.1174 119.227 70.352 119.692C71.6803 122.32 74.4251 123.997 77.271 124.753C77.4755 124.808 77.6846 124.861 77.8963 124.915C79.7374 125.383 81.7648 125.899 82.4331 127.612C82.9403 128.913 82.3435 130.458 81.2819 131.364ZM101.988 153.639C101.467 155.706 100.373 157.85 98.3875 158.626C97.6928 158.897 96.9406 158.978 96.1982 159.047C89.3136 159.688 82.3555 159.533 75.5062 158.588C75.0984 158.532 74.6686 158.463 74.3507 158.201C73.9635 157.883 73.8323 157.355 73.7307 156.864C73.4198 155.359 73.179 153.84 73.0088 152.312C72.979 152.042 73.0539 151.656 73.3254 151.677C77.708 152.018 82.1035 152.197 86.4995 152.214C89.5318 152.225 92.5883 152.157 95.5502 151.505C98.5118 150.854 101.399 149.581 103.565 147.458C102.949 148.75 102.684 150.162 102.419 151.577L102.418 151.577V151.578L102.418 151.578V151.578V151.579H102.418V151.579C102.289 152.27 102.159 152.961 101.988 153.639ZM87.1814 145.055C86.9003 145.328 86.5979 145.653 86.6179 146.045C86.6376 146.436 87.2251 146.729 87.4278 146.393C88.5342 144.561 90.4579 143.243 92.5662 142.874C94.6747 142.505 96.9315 143.091 98.5944 144.438C98.7672 144.578 98.9344 144.726 99.1016 144.875C99.4958 145.224 99.8899 145.573 100.355 145.814C100.594 145.938 101.002 145.942 101.012 145.673C101.015 145.585 100.965 145.505 100.915 145.432C99.7214 143.672 97.9358 142.32 95.9176 141.65C94.1483 141.062 92.0982 141.025 90.516 142.011C89.9414 142.369 89.4512 142.845 88.9662 143.317L87.1814 145.055ZM72.3195 144.054C73.8448 142.318 76.311 141.55 78.6016 141.852C80.892 142.155 82.9872 143.446 84.5091 145.184C84.7774 145.49 85.0403 145.931 84.8227 146.275C84.6408 146.563 84.2056 146.584 83.9064 146.421C83.6456 146.278 83.4595 146.037 83.2763 145.799L83.2752 145.798C83.2592 145.777 83.243 145.756 83.227 145.736C83.2166 145.722 83.2062 145.709 83.1958 145.696C81.8486 143.982 79.6472 142.976 77.4696 143.078C75.2923 143.181 73.1955 144.39 72.0155 146.223C71.7083 145.956 71.6214 145.497 71.7136 145.1C71.8062 144.704 72.0507 144.36 72.3195 144.054ZM94.7587 139.507C94.7232 139.895 95.235 140.136 95.6027 140.009C95.9336 139.895 96.1643 139.609 96.3864 139.333C96.4112 139.303 96.4358 139.272 96.4603 139.242C98.508 136.738 102.407 135.983 105.241 137.543C105.613 137.229 105.634 136.627 105.386 136.209C105.137 135.79 104.683 135.534 104.219 135.386C103.215 135.065 102.125 135.174 101.092 135.383C98.6472 135.878 96.1776 137.037 94.8923 139.175C94.8302 139.278 94.7699 139.387 94.7587 139.507ZM82.2179 148.328C83.1587 147.968 84.1422 147.702 85.147 147.633C87.6328 147.46 90.1736 148.576 91.7275 150.524C91.0656 150.998 90.1939 150.422 89.5134 149.973L89.5067 149.968C87.3355 148.534 84.3691 148.406 82.0822 149.647C81.9038 149.744 81.7238 149.849 81.5422 149.956C80.6867 150.456 79.7976 150.977 78.8768 150.716C79.6379 149.551 80.9179 148.826 82.2179 148.328ZM89.275 147.004C89.6648 146.801 90.0147 146.533 90.3646 146.265C90.6987 146.009 91.0331 145.753 91.4024 145.553C92.4435 144.99 93.7406 144.925 94.8328 145.381C95.1515 145.514 95.4504 145.688 95.7496 145.861L95.7499 145.862C96.0075 146.011 96.2651 146.161 96.5355 146.284C97.1198 146.552 97.816 146.691 98.3982 146.418C98.4627 146.388 98.5296 146.348 98.5568 146.282C98.6011 146.175 98.5224 146.06 98.4462 145.973C97.1432 144.485 95.1019 143.68 93.1344 143.876C91.167 144.072 89.3251 145.266 88.3419 146.981C88.5472 147.252 88.9742 147.161 89.275 147.004ZM74.7115 146.537C74.4896 146.733 74.268 146.929 74.0115 147.075C73.6032 147.308 73.0534 147.385 72.684 147.095C72.5699 146.481 73.1894 146.004 73.7291 145.689C75.0595 144.913 76.4891 144.111 78.0275 144.19C79.2582 144.254 80.3814 144.877 81.4443 145.501C81.7056 145.654 81.9736 145.815 82.1523 146.059C82.331 146.304 82.3979 146.656 82.231 146.909C82.0624 147.165 81.7072 147.24 81.4088 147.17C81.1216 147.104 80.8731 146.931 80.6307 146.762L80.6024 146.743C79.7424 146.146 78.8048 145.596 77.7648 145.475C76.8318 145.366 75.8592 145.629 75.1126 146.199C74.9747 146.305 74.8443 146.42 74.7139 146.535L74.7136 146.536L74.7134 146.536L74.7131 146.536H74.7128L74.7126 146.536L74.7123 146.537L74.712 146.537H74.7118L74.7115 146.537ZM80.9392 141.112C81.2171 141.472 81.7608 141.086 82.0672 140.752C83.0118 139.72 84.3731 139.081 85.7702 139.014C87.1675 138.947 88.5835 139.452 89.6224 140.389C89.6438 140.408 89.6648 140.427 89.6862 140.447C89.9296 140.668 90.1894 140.905 90.5136 140.914C90.8662 140.923 91.184 140.431 90.9043 140.216C89.4064 139.065 87.664 138.125 85.7792 138.001C83.8947 137.877 81.8635 138.722 80.991 140.397C80.8742 140.622 80.7846 140.912 80.9392 141.112ZM98.1395 140.373C97.9779 140.539 97.8144 140.708 97.6024 140.797C97.3536 140.902 97.012 140.852 96.892 140.61C96.7651 140.355 96.9422 140.057 97.127 139.839C98.9406 137.705 102.354 137.152 104.749 138.604C105.116 138.827 105.5 139.258 105.285 139.629C105.026 140.074 104.356 139.789 103.911 139.532C102.13 138.502 99.6739 138.828 98.2238 140.287C98.1955 140.315 98.1675 140.344 98.1395 140.373ZM98.9262 140.934C98.8232 141.021 98.7206 141.117 98.6774 141.244C98.5563 141.598 98.9872 141.93 99.3606 141.901C99.631 141.879 99.872 141.747 100.113 141.616C100.205 141.565 100.297 141.515 100.39 141.471C101.217 141.081 102.209 141.174 103.048 141.536C103.073 141.547 103.098 141.558 103.122 141.569C103.177 141.594 103.231 141.619 103.285 141.644C103.536 141.761 103.787 141.878 104.058 141.918C104.416 141.972 104.833 141.854 104.995 141.531C103.574 139.77 100.663 139.484 98.9262 140.934ZM77.095 140.149C76.9587 140.339 76.6694 140.358 76.4571 140.258C76.26 140.166 76.1123 139.998 75.9683 139.833L75.9352 139.796C74.9392 138.666 73.6483 137.799 72.2262 137.303C71.8568 137.174 71.3875 136.918 71.4915 136.541C72.5123 136.192 73.667 136.466 74.5838 137.035C75.5006 137.604 76.2179 138.438 76.8848 139.286C77.0819 139.537 77.2806 139.889 77.095 140.149ZM89.0246 141.205C87.3464 140.134 85.0555 140.116 83.3598 141.158C83.0651 141.34 82.7624 141.594 82.7395 141.94C82.7166 142.285 83.1854 142.605 83.4179 142.349C84.3544 141.316 86.0662 141.102 87.2286 141.872C87.7992 142.25 88.6187 142.198 89.1376 141.752C89.3827 141.726 89.2323 141.337 89.0246 141.205ZM94.8987 149.887C96.6296 148.238 98.8486 146.835 101.233 146.996C101.479 147.013 101.807 147.219 101.659 147.415L95.7459 149.975C95.4547 150.101 95.0248 150.178 94.8987 149.887ZM78.5374 148.058C78.5955 148.091 78.6536 148.127 78.7118 148.162C78.9467 148.305 79.1848 148.451 79.455 148.451C79.7923 148.451 80.1264 148.045 79.9126 147.785C79.2392 146.964 78.1808 146.473 77.1192 146.489C76.0574 146.505 75.0147 147.028 74.3667 147.87C74.4467 148.175 74.8208 148.316 75.1334 148.27C75.3587 148.238 75.5648 148.137 75.7707 148.036C75.8507 147.997 75.9304 147.958 76.0115 147.923C76.8134 147.576 77.7771 147.627 78.5374 148.058ZM90.8379 148.236C90.6019 148.249 90.3358 148.069 90.3627 147.834C90.3726 147.748 90.4198 147.67 90.4694 147.598C91.0163 146.812 92.0043 146.41 92.9619 146.402C93.9195 146.393 94.8502 146.732 95.6955 147.182C95.9315 147.307 96.1968 147.507 96.1587 147.772C95.767 148.188 95.1182 147.965 94.5526 147.77C94.4896 147.748 94.428 147.727 94.3678 147.707C93.4264 147.394 92.3568 147.492 91.488 147.971C91.4582 147.987 91.4283 148.004 91.3982 148.021C91.2206 148.122 91.0398 148.225 90.8379 148.236ZM88.5827 137.53C89.5686 137.884 90.4867 138.424 91.2731 139.116C91.3278 139.164 91.3822 139.213 91.4363 139.261L91.4366 139.262H91.4368C91.7048 139.503 91.9744 139.746 92.3011 139.894C92.6944 140.072 93.2051 140.076 93.5131 139.774C92.8318 139.251 92.2723 138.571 91.8904 137.802C91.6848 137.388 91.1368 137.312 90.675 137.289L88.6496 137.19C88.5784 137.286 88.5531 137.415 88.5827 137.53ZM80.3291 139.268C80.1555 139.489 79.9822 139.71 79.7774 139.901C79.4288 140.226 78.948 140.465 78.4824 140.362C78.9555 139.214 79.7206 138.188 80.6851 137.406C81.3739 136.849 82.3707 136.971 83.244 137.123C83.2907 137.438 82.8854 137.596 82.5768 137.678C81.8624 137.869 81.2046 138.268 80.7051 138.813C80.5726 138.958 80.4507 139.113 80.3291 139.268ZM72.0134 139.506L73.8912 140.729C74.1563 140.902 74.4944 141.079 74.7694 140.922C75.0246 140.777 75.0635 140.403 74.9304 140.142C74.7976 139.88 74.544 139.705 74.3006 139.541L72.7718 138.512C72.3448 138.224 71.6496 137.995 71.4176 138.454C71.2174 138.85 71.6416 139.264 72.0134 139.506ZM86.0723 144.757C85.7678 144.903 85.4323 144.646 85.1928 144.409L84.411 143.633C84.3192 143.542 84.22 143.431 84.236 143.302C84.2462 143.221 84.3011 143.154 84.3574 143.095C85.0915 142.327 86.4862 142.348 87.1966 143.138L86.3824 144.425C86.3003 144.554 86.211 144.691 86.0723 144.757ZM74.2392 150.541C74.7483 150.72 75.3491 150.773 75.7979 150.474C75.1222 149.697 74.3299 149.02 73.456 148.475C73.208 148.32 72.9286 148.171 72.6392 148.212C72.3499 148.253 72.0939 148.582 72.2339 148.839C72.664 149.626 73.3928 150.245 74.2392 150.541ZM102.889 143.421L102.168 144.293C102.099 144.376 102.023 144.464 101.918 144.486C101.759 144.521 101.615 144.396 101.501 144.28L100.453 143.219C100.299 143.062 100.343 142.784 100.496 142.626C100.649 142.47 100.876 142.41 101.094 142.384C101.663 142.316 102.253 142.433 102.753 142.714C102.897 142.795 103.048 142.913 103.055 143.078C103.06 143.208 102.972 143.321 102.889 143.421ZM77.0651 138.013C77.2808 138.246 77.552 138.484 77.868 138.457C78.1952 138.43 78.4155 138.143 78.632 137.861C78.8635 137.559 79.091 137.263 79.4408 137.296C79.6224 136.997 79.1267 136.757 78.7763 136.751L76.0566 136.708C76.3523 137.173 76.6904 137.61 77.0651 138.013ZM88.3222 150.732L82.6643 150.756C82.7256 150.463 83.0552 150.323 83.344 150.244C84.6342 149.895 86.0064 149.853 87.315 150.125C87.7144 150.207 88.1568 150.359 88.3222 150.732ZM94.3088 148.772L92.4368 148.856C92.2355 148.865 91.9768 148.924 91.952 149.124C91.9411 149.213 91.9859 149.299 92.0294 149.378C92.1944 149.678 92.3699 149.989 92.6552 150.178C92.9403 150.366 93.3699 150.385 93.5918 150.125C93.668 150.035 93.7128 149.923 93.7574 149.812C93.812 149.675 93.8664 149.54 93.9782 149.448C94.0523 149.387 94.1427 149.354 94.2334 149.321C94.3027 149.296 94.372 149.27 94.4347 149.232C94.5795 149.145 94.6715 148.918 94.5374 148.815C94.4744 148.766 94.388 148.768 94.3088 148.772ZM77.9014 149.02C78.1611 149.187 78.3187 149.555 78.152 149.815C77.9523 150.127 77.7032 150.47 77.335 150.507C76.86 150.554 76.5198 150.075 76.2886 149.658C76.2099 149.516 76.1283 149.358 76.1574 149.198C76.2187 148.863 76.6675 148.8 77.0083 148.817C77.3168 148.832 77.6416 148.852 77.9014 149.02ZM102.801 146.073C103.081 146.097 103.332 145.907 103.529 145.706C104.128 145.093 104.509 144.271 104.59 143.418C104.391 143.291 104.149 143.488 103.997 143.668L102.466 145.478C102.285 145.692 102.521 146.05 102.801 146.073ZM72.8222 142.05C72.4211 142.267 71.8723 142.155 71.5878 141.799C71.3032 141.443 71.3155 140.883 71.6152 140.54C71.6568 140.492 71.7064 140.446 71.7686 140.434C71.8584 140.415 71.9454 140.469 72.0211 140.521L72.7656 141.029C72.9374 141.146 73.1235 141.284 73.1598 141.489C73.2006 141.719 73.0275 141.939 72.8222 142.05ZM93.6246 138.041C93.9224 138.291 94.364 138.032 94.6598 137.78L95.6224 136.957C95.4408 136.784 95.1504 136.823 94.9046 136.874L92.7614 137.317L93.6246 138.041ZM50.2963 119.19C50.0774 118.996 50.0214 118.677 50.015 118.385C50.0075 118.054 50.0462 117.723 50.1296 117.403L51.5502 119.252C51.6347 119.363 51.7043 119.553 51.5792 119.613C51.4016 119.494 51.1832 119.46 50.9662 119.427C50.7208 119.389 50.4771 119.351 50.2963 119.19ZM104.843 134.536C105.023 134.76 105.402 134.712 105.608 134.512C105.814 134.312 105.89 134.016 105.949 133.735C105.963 133.668 105.977 133.594 105.949 133.532C105.876 133.371 105.639 133.42 105.48 133.494C105.051 133.693 104.547 134.168 104.843 134.536ZM88.7678 52.7718C88.9416 52.3374 89.3462 52.0443 89.7448 51.7995C90.9475 51.0606 92.2832 50.539 93.6683 50.267C93.9998 50.202 94.3944 50.1702 94.6246 50.4174C94.8835 50.6955 94.7539 51.1769 94.4667 51.4254C94.2107 51.647 93.8739 51.738 93.5446 51.8268C93.504 51.8377 93.4638 51.8486 93.424 51.8596C92.3163 52.1662 91.2742 52.7078 90.3867 53.4382C90.0454 53.719 89.6408 54.0497 89.2152 53.9313C88.7646 53.806 88.5939 53.2059 88.7678 52.7718ZM63.8536 52.8731C63.5323 52.699 63.315 52.2646 63.5152 51.9585C63.6315 51.7806 63.8486 51.6995 64.0547 51.647C65.7246 51.2233 67.4534 51.9716 68.964 52.8004C69.304 52.9868 69.6539 53.1899 69.8683 53.5131C70.0827 53.8366 70.1139 54.3155 69.8342 54.5841C69.3662 55.034 68.624 54.5713 68.0955 54.1942C67.1702 53.5342 66.0582 53.1385 64.9238 53.0657C64.8734 53.0625 64.8224 53.0598 64.7712 53.0571V53.0569C64.4536 53.0401 64.1307 53.023 63.8536 52.8731ZM81.3595 76.815L80.2611 73.6822C79.2835 74.3878 78.5526 75.4286 78.2208 76.5878C77.9208 76.3438 77.9096 75.931 77.8987 75.5257C77.8955 75.4046 77.8923 75.2841 77.8814 75.1692C77.8166 74.4862 77.3875 73.8484 76.7795 73.531C76.1712 73.2134 75.403 73.2257 74.8054 73.5627C74.964 73.9097 75.3374 74.0198 75.7216 74.1331C75.9771 74.2083 76.2371 74.2851 76.4422 74.4334C76.8758 74.7467 76.9998 75.3374 77.0064 75.8723C77.0083 76.0062 77.0048 76.1412 77.0014 76.2764C76.991 76.6804 76.9808 77.0854 77.107 77.4657C77.1478 77.5886 77.2054 77.711 77.3048 77.7937C77.5867 78.0281 78.0134 77.8334 78.2987 77.6033C78.9432 77.0835 79.4502 76.3945 79.7544 75.6246C80.0227 75.8926 80.1219 76.2691 80.2203 76.6427C80.2491 76.7523 80.2779 76.8619 80.311 76.9681C80.4563 77.4366 80.8043 77.9377 81.2944 77.9147C81.6211 77.8998 81.8843 77.6539 82.1155 77.4227L83.4446 76.0953C83.6046 75.9353 83.7784 75.7318 83.7267 75.5113C83.6774 75.2998 83.4264 75.1865 83.2112 75.2169C82.996 75.2473 82.812 75.3828 82.6438 75.5201C82.1718 75.9052 81.7406 76.3401 81.3595 76.815ZM78.324 64.2486C78.3947 63.6745 78.4339 63.0057 78.012 62.6097C77.2248 61.8707 76.5355 61.0281 75.9675 60.11C75.7198 59.7097 75.487 59.2419 75.6051 58.7862C75.7835 58.0979 76.6203 57.8489 77.3262 57.763C78.4555 57.6254 79.5987 57.6022 80.7326 57.6934C81.22 57.7326 81.7366 57.806 82.1094 58.122C82.4822 58.438 82.6168 59.079 82.2568 59.4097C80.4926 61.0315 79.4595 63.4206 79.4862 65.8172C80.1403 66.2417 80.8054 66.6716 81.5507 66.9011C82.296 67.131 83.1454 67.1385 83.8179 66.743C84.1008 66.5766 84.3384 66.3489 84.5763 66.1206C84.7406 65.963 84.9051 65.8052 85.0851 65.667C85.5256 65.3292 86.1566 65.1198 86.6286 65.4121L84.8323 67.0657C84.1166 67.7249 83.2278 68.4337 82.2803 68.2118C81.9667 68.1382 81.6912 67.9686 81.4147 67.7982C81.2502 67.6969 81.0854 67.5953 80.9118 67.5137C79.984 67.0771 78.8955 67.2403 77.8931 67.4555C77.8328 67.4683 77.7726 67.4814 77.7118 67.4947L77.7096 67.495C76.7635 67.7001 75.7846 67.9123 74.856 67.6574C73.8672 67.3862 73 66.3585 73.3094 65.3811C73.9318 66.2921 75.0158 66.8694 76.119 66.878C76.5427 66.8812 76.9795 66.8001 77.3304 66.5628C78.0488 66.0771 78.2176 65.1094 78.324 64.2486Z" fill="#121212"/>
</g>
</g>
</g>
</g>
<defs>
<clipPath id="clip0_806_30928">
<rect width="200" height="200" fill="white"/>
</clipPath>
</defs>
</svg>
