<svg width="18" height="16" viewBox="0 0 18 16" fill="none" xmlns="http://www.w3.org/2000/svg">
<g id="cards-light 1">
<path id="Vector" d="M12.3541 4.625H2.7884C2.54175 4.625 2.3052 4.71719 2.13079 4.88128C1.95638 5.04538 1.8584 5.26794 1.8584 5.5V12.5C1.8584 12.7321 1.95638 12.9546 2.13079 13.1187C2.3052 13.2828 2.54175 13.375 2.7884 13.375H12.3541C12.6008 13.375 12.8373 13.2828 13.0117 13.1187C13.1861 12.9546 13.2841 12.7321 13.2841 12.5V5.5C13.2841 5.26794 13.1861 5.04538 13.0117 4.88128C12.8373 4.71719 12.6008 4.625 12.3541 4.625ZM12.487 12.5C12.487 12.5332 12.473 12.5649 12.4481 12.5884C12.4231 12.6118 12.3893 12.625 12.3541 12.625H2.7884C2.75316 12.625 2.71937 12.6118 2.69445 12.5884C2.66954 12.5649 2.65554 12.5332 2.65554 12.5V5.5C2.65554 5.46685 2.66954 5.43505 2.69445 5.41161C2.71937 5.38817 2.75316 5.375 2.7884 5.375H12.3541C12.3893 5.375 12.4231 5.38817 12.4481 5.41161C12.473 5.43505 12.487 5.46685 12.487 5.5V12.5ZM15.4098 3.5V11C15.4098 11.0995 15.3678 11.1948 15.2931 11.2652C15.2183 11.3355 15.117 11.375 15.0113 11.375C14.9055 11.375 14.8042 11.3355 14.7294 11.2652C14.6547 11.1948 14.6127 11.0995 14.6127 11V3.5C14.6127 3.46685 14.5987 3.43505 14.5738 3.41161C14.5489 3.38817 14.5151 3.375 14.4798 3.375H4.38268C4.27698 3.375 4.1756 3.33549 4.10085 3.26517C4.0261 3.19484 3.98411 3.09946 3.98411 3C3.98411 2.90054 4.0261 2.80516 4.10085 2.73483C4.1756 2.66451 4.27698 2.625 4.38268 2.625H14.4798C14.7265 2.625 14.963 2.71719 15.1374 2.88128C15.3118 3.04538 15.4098 3.26794 15.4098 3.5Z" fill="#121212"/>
</g>
</svg>
