<svg width="21" height="8" viewBox="0 0 21 8" fill="none" xmlns="http://www.w3.org/2000/svg">
<g id="logos:google-pay" clip-path="url(#clip0_577_27499)">
<path id="Vector" d="M14.8855 2.1591C15.4627 2.1591 15.9088 2.30965 16.2499 2.61075C16.591 2.9118 16.7484 3.31326 16.7484 3.81506V6.22369H16.0137V5.67177H15.9875C15.6726 6.12341 15.2266 6.34922 14.7018 6.34922C14.2557 6.34922 13.8621 6.22373 13.5472 5.97286C13.2586 5.72196 13.0749 5.37071 13.0749 4.99435C13.0749 4.5929 13.2324 4.26671 13.5472 4.0158C13.8621 3.7649 14.3082 3.66455 14.833 3.66455C15.3053 3.66455 15.6726 3.73984 15.9612 3.91545V3.73984C15.9612 3.50565 15.8698 3.27149 15.687 3.1189L15.6464 3.08749C15.4365 2.91184 15.1741 2.81149 14.8855 2.81149C14.4394 2.81149 14.0983 2.98714 13.8621 3.33839L13.1799 2.93686C13.5997 2.40996 14.1507 2.1591 14.8855 2.1591ZM11.1856 0.452981C11.6565 0.452981 12.1039 0.609648 12.4617 0.901805L12.5239 0.954746C12.8912 1.25584 13.0749 1.70749 13.0749 2.1842C13.0749 2.6609 12.8912 3.08745 12.5239 3.41361C12.1565 3.7398 11.7104 3.91541 11.1856 3.91541L9.92615 3.89031V6.22373H9.13892V0.452942L11.1856 0.452981ZM14.9904 4.26671C14.6755 4.26671 14.4131 4.34196 14.2032 4.49251C13.9933 4.61796 13.8883 4.79357 13.8883 5.01937C13.8883 5.22012 13.9933 5.39573 14.1507 5.49612C14.3344 5.62157 14.5443 5.69682 14.7543 5.69682C15.0481 5.69682 15.342 5.58753 15.5719 5.38937L15.6202 5.34557C15.8825 5.11977 16.0137 4.84377 16.0137 4.54267C15.7776 4.36706 15.4365 4.26667 14.9904 4.26667L14.9904 4.26671ZM11.2381 1.15549H9.92615V3.16275H11.2381C11.5267 3.16275 11.8154 3.06239 11.9991 2.86169C12.4189 2.48533 12.4189 1.85808 12.0253 1.48169L11.9991 1.45659C11.7891 1.25588 11.5267 1.13043 11.2381 1.15553L11.2381 1.15549ZM20.9993 2.28455L18.4016 7.98004H17.6144L18.5852 5.99792L16.8796 2.30965H17.7193L18.9526 5.14482H18.9788L20.1859 2.30965H20.9993V2.28455Z" fill="#5F6368"/>
<path id="Vector_2" d="M6.80309 3.38847C6.80309 3.16267 6.77684 2.93686 6.75059 2.71106H3.4707V3.99067H5.33369C5.25499 4.39208 5.01884 4.76843 4.65149 4.99428V5.82224H5.77978C6.43578 5.24518 6.80313 4.39208 6.80313 3.38851L6.80309 3.38847Z" fill="#4285F4"/>
<path id="Vector_3" d="M3.47103 6.62516C4.41563 6.62516 5.20282 6.32406 5.78011 5.82226L4.65182 4.99429C4.33693 5.195 3.94333 5.32045 3.47103 5.32045C2.57885 5.32045 1.79165 4.74339 1.52926 3.94049H0.374756V4.79355C0.978254 5.92261 2.15904 6.62516 3.47103 6.62516Z" fill="#34A853"/>
<path id="Vector_4" d="M1.52917 3.94053C1.37177 3.53908 1.37177 3.08747 1.52917 2.66092V1.80786H0.374673C-0.123915 2.73621 -0.123915 3.84018 0.374673 4.79359L1.52917 3.94053Z" fill="#FBBC04"/>
<path id="Vector_5" d="M3.47143 1.30605C3.96998 1.30605 4.44228 1.4817 4.80967 1.80786L5.80676 0.854445C5.17698 0.302445 4.33733 -0.0237121 3.49764 0.00134669C2.18565 0.00134669 0.978658 0.703896 0.401367 1.83295L1.55591 2.68601C1.79206 1.88311 2.57925 1.30605 3.47143 1.30605Z" fill="#EA4335"/>
</g>
<defs>
<clipPath id="clip0_577_27499">
<rect width="21" height="8" fill="white"/>
</clipPath>
</defs>
</svg>
