<svg width="20" height="20" viewBox="0 0 20 20" fill="none" xmlns="http://www.w3.org/2000/svg">
<g id="bank-thin 1">
<path id="Vector" d="M1.875 7.81245H4.0625V13.4374H2.5C2.41712 13.4374 2.33763 13.4704 2.27903 13.529C2.22042 13.5876 2.1875 13.6671 2.1875 13.7499C2.1875 13.8328 2.22042 13.9123 2.27903 13.9709C2.33763 14.0295 2.41712 14.0624 2.5 14.0624H17.5C17.5829 14.0624 17.6624 14.0295 17.721 13.9709C17.7796 13.9123 17.8125 13.8328 17.8125 13.7499C17.8125 13.6671 17.7796 13.5876 17.721 13.529C17.6624 13.4704 17.5829 13.4374 17.5 13.4374H15.9375V7.81245H18.125C18.1931 7.8126 18.2595 7.79048 18.3139 7.74945C18.3683 7.70841 18.4078 7.65072 18.4264 7.58516C18.445 7.51959 18.4416 7.44975 18.4168 7.38628C18.392 7.3228 18.3472 7.26916 18.2891 7.23354L10.1641 2.23354C10.1147 2.20312 10.0579 2.18701 10 2.18701C9.94206 2.18701 9.88525 2.20312 9.83594 2.23354L1.71094 7.23354C1.65284 7.26916 1.60798 7.3228 1.5832 7.38628C1.55841 7.44975 1.55505 7.51959 1.57363 7.58516C1.59221 7.65072 1.63171 7.70841 1.68612 7.74945C1.74053 7.79048 1.80685 7.8126 1.875 7.81245ZM4.6875 7.81245H7.8125V13.4374H4.6875V7.81245ZM11.5625 7.81245V13.4374H8.4375V7.81245H11.5625ZM15.3125 13.4374H12.1875V7.81245H15.3125V13.4374ZM10 2.86714L17.0211 7.18745H2.97891L10 2.86714ZM19.0625 16.2499C19.0625 16.3328 19.0296 16.4123 18.971 16.4709C18.9124 16.5295 18.8329 16.5624 18.75 16.5624H1.25C1.16712 16.5624 1.08763 16.5295 1.02903 16.4709C0.970424 16.4123 0.9375 16.3328 0.9375 16.2499C0.9375 16.1671 0.970424 16.0876 1.02903 16.029C1.08763 15.9704 1.16712 15.9374 1.25 15.9374H18.75C18.8329 15.9374 18.9124 15.9704 18.971 16.029C19.0296 16.0876 19.0625 16.1671 19.0625 16.2499Z" fill="#121212"/>
</g>
</svg>
