<svg width="16" height="16" viewBox="0 0 16 16" fill="none" xmlns="http://www.w3.org/2000/svg">
<g id="PhonePe_Logo_Svg_vfqcs9 1" clip-path="url(#clip0_577_27549)">
<g id="Group">
<path id="Vector" d="M12.1468 16H3.91086C1.7752 16 0.0288086 14.2528 0.0288086 12.118V3.88205C0.0288086 1.74721 1.77601 0 3.91086 0H12.1468C14.2824 0 16.0288 1.74721 16.0288 3.88205V12.118C16.0288 14.2536 14.2816 16 12.1468 16Z" fill="#5F259F"/>
<path id="Vector_2" d="M11.134 5.68423H10.069C9.6943 5.24399 7.99079 3.24429 7.6857 2.91411C7.34338 2.54266 7.00025 2.62844 6.82869 2.6859C6.65712 2.74335 5.97167 2.97157 5.8867 3.02579C5.80092 3.08001 5.8867 3.19978 5.8867 3.19978L8.4545 5.68423H4.61696C4.46644 5.68423 4.34424 5.80643 4.34424 5.95695V6.27823C4.34424 6.62864 4.62829 6.91269 4.9787 6.91269H5.48692C5.48692 7.28091 5.48692 8.74325 5.48692 9.35344C5.48692 10.0543 5.97248 11.5101 7.71402 11.5101C8.26351 11.5101 8.8122 11.3135 8.94168 11.2641V12.7321C8.94168 13.0825 9.22573 13.3666 9.57614 13.3666H10.2397C10.3903 13.3666 10.5125 13.2444 10.5125 13.0939V6.91188H11.4391C11.5896 6.91188 11.7118 6.78968 11.7118 6.63916V6.26204C11.7118 5.94319 11.4528 5.68423 11.134 5.68423ZM8.94249 10.0073C8.6811 10.1716 8.28294 10.1959 8.05715 10.1959C7.3717 10.1959 7.00025 9.76778 7.00025 9.39633C7.00025 9.06858 7.00025 7.32056 7.00025 6.91188H8.94168V10.0073H8.94249Z" fill="white"/>
</g>
</g>
<defs>
<clipPath id="clip0_577_27549">
<rect width="16" height="16" fill="white" transform="translate(-0.000244141)"/>
</clipPath>
</defs>
</svg>
